<?xml version="1.0" encoding="UTF-8"?>
<svg xmlns="http://www.w3.org/2000/svg" version="1.1" viewBox="0 0 4690.1 1073.67">
  <defs>
    <style>
      .cls-1, .cls-2, .cls-3, .cls-4, .cls-5, .cls-6, .cls-7, .cls-8, .cls-9 {
        stroke-width: 0px;
      }

      .cls-1, .cls-9 {
        fill: #a5e5f9;
      }

      .cls-10 {
        isolation: isolate;
      }

      .cls-2 {
        fill: #5bc5ef;
      }

      .cls-3 {
        fill: #7dd3f4;
      }

      .cls-4 {
        fill: #4ca3d8;
      }

      .cls-5 {
        fill: #408ac1;
        opacity: .18;
      }

      .cls-5, .cls-8 {
        mix-blend-mode: multiply;
      }

      .cls-6 {
        fill: #58b8e8;
      }

      .cls-7 {
        fill: #2c7daf;
      }

      .cls-8 {
        fill: #2677a8;
        opacity: .21;
      }

      .cls-9 {
        opacity: .34;
      }
    </style>
  </defs>
  <g class="cls-10">
    <g id="Layer_2" data-name="Layer 2">
      <g>
        <path class="cls-7" d="M397.96,65.77c146.27-45.71,178.27,13.71,275.17,41.14,85.29,24.14,184.12.82,353.05-32.54h-.02s173.72-43.34,356.1-36.48c181.02,6.81,348.73,52.63,355.1,54.08,62.65,12.2,147.93,27.59,265.01,40.54,198.38,21.94,267.86-48.45,367.51-63.08,99.65-14.63,319.05,85.02,558.57,94.16,239.52,9.14,410.47-52.11,556.74-97.82,146.27-45.71,178.27,13.71,275.17,41.14,96.9,27.43,211.18-6.4,426.01-46.62,214.84-40.22,503.72,58.51,503.72,58.51v884.74S153.78,1022.53,0,1003.09V118.79c146.94,30.95,286.26-18.11,397.96-53.02Z"/>
        <path class="cls-8" d="M3186.04,151.25s-147.62,29.56-286.2,13.59c-138.58-15.97-270.49-49.31-285.73-52.16-15.24-2.86-16.67,21.18-3.33,28.45,13.33,7.27,30.48,25.36,6.19,34.41-24.29,9.05-40.48-3.33-53.81,14.76-13.33,18.1-.43,28.96,3.33,40.44,3.77,11.48,77.39,128.5,218.53,120.78,141.14-7.72,213.96-68.84,263.39-99.31,25.97-19.93-9.05-16.19,2.38-29.05,11.43-12.86,62.86-13.81,74.76-27.14,11.91-13.33-15.72-12.38,16.19-22.38,31.91-10,68.44-26.58,44.29-22.38Z"/>
        <path class="cls-8" d="M3703.99,86.8s67.3,44.45,144.13,38.73c76.83-5.71,173.34-32.84,176.51-25.94,3.18,6.89-56.51,30.04-99.69,40.06-43.17,10.01,18.4,12.32,7.3,29.26-11.11,16.94-70.16,14.92-85.4,24.19-15.24,9.26-2.74,10.18-7.62,30.22-18.3,75.25-262.04,64.64-266.04-22.83-.55-12.06,20.32-5.41,50.8-13.51,30.48-8.1,4.44-20.8,24.13-34.77,19.68-13.97,50.16-6.35,60.96-19.05,10.79-12.7-15.87-25.4-15.24-37.46.64-12.06,5.17-11.95,10.16-8.89Z"/>
        <path class="cls-8" d="M2172.18,131.73s-51.91,20-48.1,24.76c3.81,4.76.84-11.84,13.33,8.35,22.14,35.77-139.29,137.85-250.2,128.8-106.01-8.65-164.97-70-136.33-76.04,0,0-1.9-20.32,46.35-23.49,48.26-3.17,72.38-9.99,76.83-17.38,4.44-7.39-9.52-20.72,26.67-25.16,36.19-4.45,43.81,10.16,64.76.63,20.95-9.52,18.41-17.78,48.89-15.87,30.48,1.9,102.23,4.76,157.78-4.6Z"/>
        <path class="cls-8" d="M871.5,110.93s-81.27,17.78-140.96,10.16c-59.69-7.62-68.57-15.24-76.83-15.87-8.25-.63-1.9,13.97-5.71,27.3-3.81,13.33-23.49,8.89-64.13,20.95-40.64,12.06-15.24,16.51-26.03,33.02-10.79,16.51-57.85-.16-66.04,15.24-8.18,15.4,67.05,33.32,160.64,31.11,93.6-2.21,125.72-8.26,140.96-18.41,15.24-10.16-27.94-10.16-20.95-24.13,6.98-13.97,69.21-7.62,95.88-29.84,26.67-22.22-15.87-18.41,8.89-33.02,24.76-14.6,19.75-21.19-5.71-16.51Z"/>
        <path class="cls-8" d="M256.23,112.84s-57.15,20.32-132.07,20.32-88.26-6.99-83.81,3.17c4.45,10.16,34.92,11.43,26.03,24.76s-34.29,13.97-40,25.4c-5.71,11.43,3.18,20.95,77.46,14.61,74.29-6.35,137.15-16.51,158.74-27.3,21.59-10.79-19.05-11.43-22.22-20.32-3.17-8.89,56.51-27.94,52.07-37.46-4.44-9.52-25.87-6.42-36.19-3.18Z"/>
      </g>
      <g>
        <path class="cls-7" d="M-4290.71,67.71c146.27-45.71,178.27,13.71,275.17,41.14,85.29,24.14,184.12.82,353.05-32.54h-.02s173.72-43.34,356.1-36.48c181.02,6.81,348.73,52.63,355.1,54.08,62.65,12.2,147.93,27.59,265.01,40.54,198.38,21.94,267.86-48.45,367.51-63.08,99.65-14.63,319.05,85.02,558.57,94.16,239.52,9.14,410.47-52.11,556.74-97.82,146.27-45.71,178.27,13.71,275.17,41.14,96.9,27.43,211.18-6.4,426.01-46.62C-287.46,22,1.43,120.73,1.43,120.73v884.74s-4536.31,19-4690.1-.44V120.73c146.94,30.95,286.26-18.11,397.96-53.02Z"/>
        <path class="cls-8" d="M-1502.63,153.19s-147.63,29.56-286.2,13.59c-138.58-15.97-270.49-49.31-285.73-52.16-15.24-2.86-16.67,21.18-3.33,28.45,13.33,7.27,30.48,25.36,6.19,34.41-24.29,9.05-40.48-3.33-53.81,14.76-13.33,18.1-.43,28.96,3.33,40.44,3.77,11.48,77.39,128.5,218.53,120.78,141.14-7.72,213.96-68.84,263.39-99.31,25.97-19.93-9.05-16.19,2.38-29.05,11.43-12.86,62.86-13.81,74.76-27.14,11.91-13.33-15.72-12.38,16.19-22.38,31.91-10,68.44-26.58,44.29-22.38Z"/>
        <path class="cls-8" d="M-984.68,88.74s67.3,44.45,144.13,38.73c76.83-5.71,173.34-32.84,176.51-25.94,3.18,6.89-56.51,30.04-99.69,40.06-43.17,10.01,18.4,12.32,7.3,29.26-11.11,16.94-70.16,14.92-85.4,24.19-15.24,9.26-2.74,10.18-7.62,30.22-18.3,75.25-262.04,64.64-266.04-22.83-.55-12.06,20.32-5.41,50.8-13.51,30.48-8.1,4.44-20.8,24.13-34.77,19.68-13.97,50.16-6.35,60.96-19.05,10.79-12.7-15.87-25.4-15.24-37.46.64-12.06,5.17-11.95,10.16-8.89Z"/>
        <path class="cls-8" d="M-2516.48,133.67s-51.91,20-48.1,24.76c3.81,4.76.84-11.84,13.33,8.35,22.14,35.77-139.29,137.85-250.2,128.8-106.01-8.65-164.97-70-136.33-76.04,0,0-1.9-20.32,46.35-23.49,48.26-3.17,72.38-9.99,76.83-17.38,4.44-7.39-9.52-20.72,26.67-25.16,36.19-4.45,43.81,10.16,64.76.63,20.95-9.52,18.41-17.78,48.89-15.87,30.48,1.9,102.23,4.76,157.78-4.6Z"/>
        <path class="cls-8" d="M-3817.17,112.87s-81.27,17.78-140.96,10.16c-59.69-7.62-68.57-15.24-76.83-15.87-8.25-.63-1.9,13.97-5.71,27.3-3.81,13.33-23.49,8.89-64.13,20.95-40.64,12.06-15.24,16.51-26.03,33.02-10.79,16.51-57.85-.16-66.04,15.24-8.18,15.4,67.05,33.32,160.64,31.11,93.6-2.21,125.72-8.26,140.96-18.41,15.24-10.16-27.94-10.16-20.95-24.13,6.98-13.97,69.21-7.62,95.88-29.84,26.67-22.22-15.87-18.41,8.89-33.02,24.76-14.6,19.75-21.19-5.71-16.51Z"/>
        <path class="cls-8" d="M-4432.44,114.78s-57.15,20.32-132.07,20.32-88.26-6.99-83.81,3.17c4.45,10.16,34.92,11.43,26.03,24.76s-34.29,13.97-40,25.4c-5.71,11.43,3.18,20.95,77.46,14.61,74.29-6.35,137.15-16.51,158.74-27.3,21.59-10.79-19.05-11.43-22.22-20.32-3.17-8.89,56.51-27.94,52.07-37.46-4.44-9.52-25.87-6.42-36.19-3.18Z"/>
      </g>
    </g>
    <g id="Elements">
      <g>
        <path class="cls-4" d="M0,196.52c153.78,19.45,318.71-44.35,371.45-33.5,85.02,17.49,85.93,98.86,404.07,54.97,318.14-43.88,501.89-62.17,655.47-42.97,6.36.8,12.41,1.55,18.31,2.29.03,0,226.71,53.47,450.67,37.93,223.98-15.54,379.39-83.19,460.75-64.91,81.36,18.28,141.7,137.13,409.56,134.39,267.86-2.74,603.37-139.2,688.39-121.71,85.02,17.49,85.93,98.86,404.07,54.97,318.14-43.88,501.89-62.17,655.47-42.97,153.59,19.2,171.87,21.94,171.87,21.94v798.36H0V196.52Z"/>
        <g>
          <path class="cls-5" d="M1105.07,344.45s161.91,120,443.83,169.53c281.92,49.52,527.49-40,527.49-40,0,0-227.06,61.81-504.35,15.24-277.29-46.57-466.96-144.77-466.96-144.77Z"/>
          <path class="cls-5" d="M2806.1,424.45c-5.71-1.91-348.59-98.07-542.88-62.37-194.29,35.7-360.01,84.92-535.26,74.6-175.25-10.32-223.23-40.57-223.23-40.57,0,0,179.77,42.18,391.8,12.18,212.03-30,313.46-99.42,506.31-85.43,192.86,14,403.25,101.59,403.25,101.59Z"/>
          <path class="cls-5" d="M1742.85,328.29c-4.29,0-339.63-79.06-530.52-64.53-190.9,14.53-329.47,64.53-470.9,53.1-141.43-11.43-200-32.09-200-32.09,0,0,110,73.52,350,43.52,240-30,324.28-55.61,492.85-43.52,168.57,12.09,358.57,43.52,358.57,43.52Z"/>
          <path class="cls-5" d="M605.52,350.16s-132.21-18.41-299.84,19.05c-167.62,37.46-265.41,72.38-265.41,72.38,0,0,156.2-68.57,300.33-92.7,144.13-24.13,264.92,1.27,264.92,1.27Z"/>
          <path class="cls-5" d="M3652.8,356.83s-126.67-38.1-268.58,0-236.96,89.46-409.54,103.81c-172.58,14.36-345.73-16.19-345.73-16.19,0,0,248.58,17.72,393.35-6.38,144.77-24.1,265.06-75.11,377.78-98.18,112.72-23.07,230.82,5.5,252.72,16.93Z"/>
          <path class="cls-5" d="M3954.28,274.04c-8.13-2.93-219.57,22.97-355.77,5.73-136.2-17.23-196.2-51.84-400.97-5.96-204.77,45.88-244.77,61.12-305.73,70.64-60.95,9.52-85.72,10.48-85.72,10.48,0,0,60.95,9.53,202.87-18.1,141.91-27.62,276.2-77.15,412.4-67.62,136.2,9.52,159.05,40,305.73,30.48s227.19-25.64,227.19-25.64Z"/>
          <path class="cls-5" d="M4567.12,478.74s-173.34,46.67-388.59,21.9c-215.25-24.76-447.64-128.58-447.64-128.58,0,0,242.02,84.06,461.93,107.62,219.9,23.56,374.3-.95,374.3-.95Z"/>
          <path class="cls-5" d="M4655.7,338.74s-242.84-64.77-441.43-47.62c-198.59,17.14-328.4,40.07-424.45,40.04-96.06-.04-148.44,0-148.44,0,0,0,116.19,13.3,281.91,7.58,165.73-5.71,234.76-24.47,426.69-24.54,191.93-.07,305.73,24.54,305.73,24.54Z"/>
          <path class="cls-3" d="M2409.25,179.36s-32.69-36.06-130.8-22.28c-98.11,13.78-186.67,38.16-186.67,38.16,0,0,149.44-25.73,210.8-34.92,61.36-9.2,106.67,19.05,106.67,19.05Z"/>
          <path class="cls-3" d="M1486.36,196.01s-32.06-13.39-90.48-19.14c-58.41-5.75-128.58,1.55-128.58,1.55,0,0,80.45,1.43,131.75,4.26,51.31,2.82,87.3,13.34,87.3,13.34Z"/>
          <path class="cls-3" d="M363.61,168.79s-89.53,17.56-142.86,37.56c-53.33,20-112.38,23.55-150.01,18.92-37.62-4.63-54.75-14.71-54.75-14.71,0,0,30.47,32.94,125.23,20.08,94.76-12.86,178.86-52.42,222.39-61.84Z"/>
          <path class="cls-3" d="M2496.08,261.11s-41.27-22.38-86.83-55.24c-45.56-32.86-105.08-40.66-156.04-31.28-50.95,9.38-77.15,13.19-77.15,13.19,0,0,97.15-13.99,124.29-13.19,27.14.81,65.24,13.03,99.05,33.58,33.81,20.56,82.38,47.7,96.67,52.94Z"/>
          <path class="cls-3" d="M392.47,219.04s-46.15-17.01-102.03-4.53c-55.88,12.48-104.77,30.26-136.51,33.43-31.75,3.18-43.18,4.44-43.18,4.44,0,0,67.6-.88,112.85-12.82,45.25-11.94,109.62-32.28,168.87-20.52Z"/>
          <path class="cls-3" d="M3356.91,177.14s-131.43,33.97-226.36,57.46c-94.93,23.49-213.66,39.97-213.66,39.97,0,0,100.96-6.32,214.3-34.26,113.34-27.94,225.72-63.18,225.72-63.18Z"/>
          <path class="cls-3" d="M3770.18,235.87s-31.43,3.1-74.76,3.81c-43.34.71-66.43-3.81-66.43-3.81,0,0,33.57,8.81,76.19,7.62,42.62-1.19,65-7.62,65-7.62Z"/>
          <path class="cls-3" d="M4141.86,186.83c-.71,0-69.53,5.71-118.34,11.9-48.81,6.19-53.57,7.43-53.57,7.43l171.91-19.34Z"/>
          <path class="cls-3" d="M4676.17,203.49s-87.38-10.95-141.43-9.29c-54.05,1.67-73.3,6.19-73.3,6.19,0,0,170.93-1.63,214.74,3.1Z"/>
        </g>
      </g>
      <g>
        <path class="cls-4" d="M-4688.67,198.46c153.78,19.45,318.71-44.35,371.45-33.5,85.02,17.49,85.93,98.86,404.07,54.97,318.14-43.88,501.89-62.17,655.47-42.97,6.36.8,12.41,1.55,18.31,2.29.03,0,226.71,53.47,450.67,37.93,223.98-15.54,379.39-83.19,460.75-64.91,81.36,18.28,141.7,137.13,409.56,134.39,267.86-2.74,603.37-139.2,688.39-121.71,85.02,17.49,85.93,98.86,404.07,54.97,318.14-43.88,501.89-62.17,655.47-42.97C-16.86,196.16,1.43,198.9,1.43,198.9v798.36h-4690.1V198.46Z"/>
        <g>
          <path class="cls-5" d="M-3583.59,346.39s161.91,120,443.83,169.53c281.92,49.52,527.49-40,527.49-40,0,0-227.06,61.81-504.35,15.24-277.29-46.57-466.96-144.77-466.96-144.77Z"/>
          <path class="cls-5" d="M-1882.57,426.39c-5.71-1.91-348.59-98.07-542.88-62.37-194.29,35.7-360.01,84.92-535.26,74.6-175.25-10.32-223.23-40.57-223.23-40.57,0,0,179.77,42.18,391.8,12.18,212.03-30,313.46-99.42,506.31-85.43,192.86,14,403.25,101.59,403.25,101.59Z"/>
          <path class="cls-5" d="M-2945.82,330.23c-4.29,0-339.63-79.06-530.52-64.53-190.9,14.53-329.47,64.53-470.9,53.1-141.43-11.43-200-32.09-200-32.09,0,0,110,73.52,350,43.52,240-30,324.28-55.61,492.85-43.52,168.57,12.09,358.57,43.52,358.57,43.52Z"/>
          <path class="cls-5" d="M-4083.15,352.1s-132.21-18.41-299.84,19.05c-167.62,37.46-265.41,72.38-265.41,72.38,0,0,156.2-68.57,300.33-92.7,144.13-24.13,264.92,1.27,264.92,1.27Z"/>
          <path class="cls-5" d="M-1035.87,358.77s-126.67-38.1-268.58,0-236.96,89.46-409.54,103.81c-172.58,14.36-345.73-16.19-345.73-16.19,0,0,248.58,17.72,393.35-6.38,144.77-24.1,265.06-75.11,377.78-98.18,112.72-23.07,230.82,5.5,252.72,16.93Z"/>
          <path class="cls-5" d="M-734.39,275.98c-8.13-2.93-219.57,22.97-355.77,5.73-136.2-17.23-196.2-51.84-400.97-5.96-204.77,45.88-244.77,61.12-305.73,70.64-60.95,9.52-85.72,10.48-85.72,10.48,0,0,60.95,9.53,202.87-18.1,141.91-27.62,276.2-77.15,412.4-67.62,136.2,9.52,159.05,40,305.73,30.48s227.19-25.64,227.19-25.64Z"/>
          <path class="cls-5" d="M-121.55,480.68s-173.34,46.67-388.59,21.9c-215.25-24.76-447.64-128.58-447.64-128.58,0,0,242.02,84.06,461.93,107.62,219.9,23.56,374.3-.95,374.3-.95Z"/>
          <path class="cls-5" d="M-32.97,340.67s-242.84-64.77-441.43-47.62c-198.59,17.14-328.4,40.07-424.45,40.04-96.06-.04-148.44,0-148.44,0,0,0,116.19,13.3,281.91,7.58,165.73-5.71,234.76-24.47,426.69-24.54,191.93-.07,305.73,24.54,305.73,24.54Z"/>
          <path class="cls-3" d="M-2279.41,181.3s-32.69-36.06-130.8-22.28c-98.11,13.78-186.67,38.16-186.67,38.16,0,0,149.44-25.73,210.8-34.92,61.36-9.2,106.67,19.05,106.67,19.05Z"/>
          <path class="cls-3" d="M-3202.31,197.95s-32.06-13.39-90.48-19.14c-58.41-5.75-128.58,1.55-128.58,1.55,0,0,80.45,1.43,131.75,4.26,51.31,2.82,87.3,13.34,87.3,13.34Z"/>
          <path class="cls-3" d="M-4325.05,170.73s-89.53,17.56-142.86,37.56c-53.33,20-112.38,23.55-150.01,18.92-37.62-4.63-54.75-14.71-54.75-14.71,0,0,30.47,32.94,125.23,20.08,94.76-12.86,178.86-52.42,222.39-61.84Z"/>
          <path class="cls-3" d="M-2192.59,263.05s-41.27-22.38-86.83-55.24c-45.56-32.86-105.08-40.66-156.04-31.28-50.95,9.38-77.15,13.19-77.15,13.19,0,0,97.15-13.99,124.29-13.19,27.14.81,65.24,13.03,99.05,33.58,33.81,20.56,82.38,47.7,96.67,52.94Z"/>
          <path class="cls-3" d="M-4296.2,220.97s-46.15-17.01-102.03-4.53c-55.88,12.48-104.77,30.26-136.51,33.43-31.75,3.18-43.18,4.44-43.18,4.44,0,0,67.6-.88,112.85-12.82,45.25-11.94,109.62-32.28,168.87-20.52Z"/>
          <path class="cls-3" d="M-1331.76,179.08s-131.43,33.97-226.36,57.46c-94.93,23.49-213.66,39.97-213.66,39.97,0,0,100.96-6.32,214.3-34.26,113.34-27.94,225.72-63.18,225.72-63.18Z"/>
          <path class="cls-3" d="M-918.49,237.81s-31.43,3.1-74.76,3.81c-43.34.71-66.43-3.81-66.43-3.81,0,0,33.57,8.81,76.19,7.62,42.62-1.19,65-7.62,65-7.62Z"/>
          <path class="cls-3" d="M-546.8,188.76c-.71,0-69.53,5.71-118.34,11.9-48.81,6.19-53.57,7.43-53.57,7.43l171.91-19.34Z"/>
          <path class="cls-3" d="M-12.49,205.43s-87.38-10.95-141.43-9.29c-54.05,1.67-73.3,6.19-73.3,6.19,0,0,170.93-1.63,214.74,3.1Z"/>
        </g>
      </g>
    </g>
    <g id="Layer_5" data-name="Layer 5">
      <g>
        <path class="cls-6" d="M4690.1,507.49v522.95H0V507.89s90.77-22.52,440.73-103.28c31.54-7.28,63.62-12.08,95.92-14.18,197.67-12.86,443.35,24.09,533.19,81.37,119.75,76.34,174.66,93.28,334.34,111.73s206.81,21.36,511.28-.76c304.47-22.12,232.58-164.47,480.26-168.1,255.04-3.74,289.53,129.55,569.87,100.17,280.34-29.38,402.8-95.05,574.47-110.55,218.63-2.7,464.75,169.64,716.93,165.05,252.18-4.6,433.1-61.85,433.1-61.85Z"/>
        <path class="cls-3" d="M149.84,514.84s271.96-112.77,530.13-74.28c258.17,38.48,546.64,205.24,824.76,226.9,278.12,21.66,309.96,0,309.96,0,0,0-198.98,53.09-470.4-8.33-271.43-61.43-504.66-212.86-738.04-207.14-233.38,5.71-456.4,62.86-456.4,62.86Z"/>
        <path class="cls-3" d="M2472.49,804.84s-217.77,72.86-481.97,45.71c-264.2-27.14-460.52-102.86-586.24-107.14-125.71-4.29-225.58,12.86-357.08-28.57-131.49-41.43-192.92-72.86-192.92-72.86,0,0,232.54,84.83,334.84,89.56,102.3,4.73,155.16-18.13,308.01,10.44,152.86,28.57,365.93,98.56,591.42,98.57,225.49.02,383.93-35.72,383.93-35.72Z"/>
        <path class="cls-3" d="M3169.98,499.6s-126.79,48.09-303.39,28.09c-176.6-20-375.17-27.41-540.88,4.87-165.71,32.28-175.71,65.13-320,97.99-144.28,32.86-162.04,36.91-162.04,36.91,0,0,136.33-14.05,339.19-71.19,202.86-57.14,295.71-75.71,495.71-68.57,200,7.14,296.65,44.04,491.42-28.09Z"/>
        <path class="cls-3" d="M3695.69,696.27s-161.43,34.29-352.85-12.86c-191.43-47.14-335.71-78.57-445.71-52.86-110,25.71-177.14,67.14-177.14,67.14,0,0,115.71-87.14,282.85-88.57,167.14-1.43,306.64,70.33,469.8,82.86,163.16,12.53,223.05,4.29,223.05,4.29Z"/>
        <path class="cls-3" d="M4399.97,583.53s-158.36,42.74-384.18-28.69c-225.82-71.43-371.33-134.29-490.71-131.43-119.39,2.86-252.24,51.69-252.24,51.69,0,0,131.37-37.4,284.25-33.12,152.88,4.29,338.6,127.03,522.88,154.23,184.28,27.2,320-12.68,320-12.68Z"/>
        <path class="cls-3" d="M4646.17,628.15s-149.2,51.53-341.92,52.38c-192.72.86-356.2-73.34-491.45-71.43-135.24,1.9-263.57,31.43-263.57,31.43,0,0,155.68-56.32,330.11-34.83,174.43,21.49,308.72,61.06,480.15,61.75,171.44.69,286.68-39.31,286.68-39.31Z"/>
        <path class="cls-3" d="M3136.9,583.53s-294.06-12.98-416.92,35.59c-122.86,48.57-197.02,117.14-374.94,150-177.92,32.86-395.2-5.71-395.2-5.71,0,0,223,27.49,424.42-14.11,201.43-41.6,245.15-125.27,389.28-151.31,144.13-26.03,339.06-20.03,373.35-14.46Z"/>
        <path class="cls-3" d="M185.04,546.24s230.49-78.1,396.21-44.76c165.72,33.33,274.3,104.81,423.83,140.5,149.53,35.69,228.58,40.46,228.58,40.46,0,0-189.53-30.48-340.01-87.62-150.48-57.14-272.39-121.91-433.35-109.53-160.96,12.38-275.25,60.96-275.25,60.96Z"/>
        <path class="cls-3" d="M3449.99,609.1c0-7.1,5.75-12.85,12.85-12.85s12.85,5.75,12.85,12.85-5.75,12.85-12.85,12.85-12.85-5.75-12.85-12.85Z"/>
        <path class="cls-3" d="M4382.49,596.26c0-4.62,3.75-8.36,8.37-8.36s8.37,3.75,8.37,8.36-3.75,8.37-8.37,8.37-8.37-3.75-8.37-8.37Z"/>
        <path class="cls-3" d="M4556.99,600.82c0-6.52,5.29-11.81,11.81-11.81s11.81,5.29,11.81,11.81-5.29,11.81-11.81,11.81-11.81-5.29-11.81-11.81Z"/>
        <path class="cls-3" d="M3272.84,530.55c0-8.68,7.04-15.71,15.71-15.71s15.71,7.03,15.71,15.71-7.04,15.71-15.71,15.71-15.71-7.04-15.71-15.71Z"/>
        <path class="cls-3" d="M3392.27,499.6c0-3.89,3.16-7.05,7.05-7.05s7.05,3.16,7.05,7.05-3.16,7.05-7.05,7.05-7.05-3.16-7.05-7.05Z"/>
        <path class="cls-3" d="M3323.57,621.95c0-4.33,3.51-7.84,7.84-7.84s7.84,3.51,7.84,7.84-3.51,7.84-7.84,7.84-7.84-3.51-7.84-7.84Z"/>
        <path class="cls-3" d="M3676.94,667.46c0-4.83,3.92-8.75,8.75-8.75s8.75,3.92,8.75,8.75-3.92,8.75-8.75,8.75-8.75-3.92-8.75-8.75Z"/>
        <path class="cls-3" d="M2543.38,764.84c0-2.71,2.19-4.9,4.9-4.9s4.9,2.2,4.9,4.9-2.19,4.9-4.9,4.9-4.9-2.2-4.9-4.9Z"/>
        <path class="cls-3" d="M2485.69,621.95c0-11.67,9.46-21.13,21.13-21.13s21.13,9.46,21.13,21.13-9.46,21.13-21.13,21.13-21.13-9.46-21.13-21.13Z"/>
        <path class="cls-3" d="M2423.77,658.71c0-4.22,3.42-7.65,7.65-7.65s7.65,3.43,7.65,7.65-3.42,7.65-7.65,7.65-7.65-3.42-7.65-7.65Z"/>
        <path class="cls-3" d="M1783.9,782.38c0-6.98,5.66-12.64,12.64-12.64s12.64,5.66,12.64,12.64-5.66,12.64-12.64,12.64-12.64-5.66-12.64-12.64Z"/>
        <path class="cls-3" d="M1939.49,699.12c0-5.72,4.64-10.36,10.36-10.36s10.36,4.64,10.36,10.36-4.64,10.36-10.36,10.36-10.36-4.64-10.36-10.36Z"/>
        <path class="cls-3" d="M1270.81,688.77c0-3.49,2.83-6.33,6.33-6.33s6.33,2.83,6.33,6.33-2.83,6.33-6.33,6.33-6.33-2.83-6.33-6.33Z"/>
        <path class="cls-3" d="M790.42,517.7c0-6.55,5.31-11.85,11.85-11.85s11.85,5.3,11.85,11.85-5.31,11.85-11.85,11.85-11.85-5.31-11.85-11.85Z"/>
        <path class="cls-3" d="M877.29,560.66c0-3.94,3.2-7.14,7.14-7.14s7.14,3.2,7.14,7.14-3.2,7.14-7.14,7.14-7.14-3.2-7.14-7.14Z"/>
        <path class="cls-3" d="M820,611.98c0-5.52,4.48-10,10-10s10,4.48,10,10-4.48,10-10,10-10-4.48-10-10Z"/>
        <circle class="cls-3" cx="80.84" cy="529.55" r="11.85" transform="translate(-350.77 212.27) rotate(-45)"/>
        <path class="cls-3" d="M143.07,541.4c0-3.74,3.03-6.77,6.77-6.77s6.77,3.03,6.77,6.77-3.03,6.77-6.77,6.77-6.77-3.03-6.77-6.77Z"/>
      </g>
      <g>
        <path class="cls-6" d="M1.43,509.43v522.95h-4690.1V509.83s90.77-22.52,440.73-103.28c31.54-7.28,63.62-12.08,95.92-14.18,197.67-12.86,443.35,24.09,533.19,81.37,119.75,76.34,174.66,93.28,334.34,111.73s206.81,21.36,511.28-.76c304.47-22.12,232.58-164.47,480.26-168.1,255.04-3.74,289.53,129.55,569.87,100.17,280.34-29.38,402.8-95.05,574.47-110.55,218.63-2.7,464.75,169.64,716.93,165.05C-179.5,566.68,1.43,509.43,1.43,509.43Z"/>
        <path class="cls-3" d="M-4538.83,516.78s271.96-112.77,530.13-74.28c258.17,38.48,546.64,205.24,824.76,226.9,278.12,21.66,309.96,0,309.96,0,0,0-198.98,53.09-470.4-8.33-271.43-61.43-504.66-212.86-738.04-207.14-233.38,5.71-456.4,62.86-456.4,62.86Z"/>
        <path class="cls-3" d="M-2216.18,806.77s-217.77,72.86-481.97,45.71c-264.2-27.14-460.52-102.86-586.24-107.14-125.71-4.29-225.58,12.86-357.08-28.57-131.49-41.43-192.92-72.86-192.92-72.86,0,0,232.54,84.83,334.84,89.56,102.3,4.73,155.16-18.13,308.01,10.44,152.86,28.57,365.93,98.56,591.42,98.57,225.49.02,383.93-35.72,383.93-35.72Z"/>
        <path class="cls-3" d="M-1518.69,501.54s-126.79,48.09-303.39,28.09c-176.6-20-375.17-27.41-540.88,4.87-165.71,32.28-175.71,65.13-320,97.99-144.28,32.86-162.04,36.91-162.04,36.91,0,0,136.33-14.05,339.19-71.19,202.86-57.14,295.71-75.71,495.71-68.57,200,7.14,296.65,44.04,491.42-28.09Z"/>
        <path class="cls-3" d="M-992.98,698.2s-161.43,34.29-352.85-12.86c-191.43-47.14-335.71-78.57-445.71-52.86-110,25.71-177.14,67.14-177.14,67.14,0,0,115.71-87.14,282.85-88.57,167.14-1.43,306.64,70.33,469.8,82.86,163.16,12.53,223.05,4.29,223.05,4.29Z"/>
        <path class="cls-3" d="M-288.7,585.47s-158.36,42.74-384.18-28.69c-225.82-71.43-371.33-134.29-490.71-131.43-119.39,2.86-252.24,51.69-252.24,51.69,0,0,131.37-37.4,284.25-33.12,152.88,4.29,338.6,127.03,522.88,154.23,184.28,27.2,320-12.68,320-12.68Z"/>
        <path class="cls-3" d="M-42.5,630.09s-149.2,51.53-341.92,52.38c-192.72.86-356.2-73.34-491.45-71.43-135.24,1.9-263.57,31.43-263.57,31.43,0,0,155.68-56.32,330.11-34.83,174.43,21.49,308.72,61.06,480.15,61.75,171.44.69,286.68-39.31,286.68-39.31Z"/>
        <path class="cls-3" d="M-1551.76,585.47s-294.06-12.98-416.92,35.59c-122.86,48.57-197.02,117.14-374.94,150-177.92,32.86-395.2-5.71-395.2-5.71,0,0,223,27.49,424.42-14.11,201.43-41.6,245.15-125.27,389.28-151.31,144.13-26.03,339.06-20.03,373.35-14.46Z"/>
        <path class="cls-3" d="M-4503.63,548.18s230.49-78.1,396.21-44.76c165.72,33.33,274.3,104.81,423.83,140.5,149.53,35.69,228.58,40.46,228.58,40.46,0,0-189.53-30.48-340.01-87.62-150.48-57.14-272.39-121.91-433.35-109.53-160.96,12.38-275.25,60.96-275.25,60.96Z"/>
        <path class="cls-3" d="M-1238.68,611.04c0-7.1,5.75-12.85,12.85-12.85s12.85,5.75,12.85,12.85-5.75,12.85-12.85,12.85-12.85-5.75-12.85-12.85Z"/>
        <path class="cls-3" d="M-306.18,598.19c0-4.62,3.75-8.36,8.37-8.36s8.37,3.75,8.37,8.36-3.75,8.37-8.37,8.37-8.37-3.75-8.37-8.37Z"/>
        <path class="cls-3" d="M-131.68,602.76c0-6.52,5.29-11.81,11.81-11.81s11.81,5.29,11.81,11.81-5.29,11.81-11.81,11.81-11.81-5.29-11.81-11.81Z"/>
        <path class="cls-3" d="M-1415.83,532.49c0-8.68,7.04-15.71,15.71-15.71s15.71,7.03,15.71,15.71-7.04,15.71-15.71,15.71-15.71-7.04-15.71-15.71Z"/>
        <path class="cls-3" d="M-1296.4,501.54c0-3.89,3.16-7.05,7.05-7.05s7.05,3.16,7.05,7.05-3.16,7.05-7.05,7.05-7.05-3.16-7.05-7.05Z"/>
        <path class="cls-3" d="M-1365.1,623.89c0-4.33,3.51-7.84,7.84-7.84s7.84,3.51,7.84,7.84-3.51,7.84-7.84,7.84-7.84-3.51-7.84-7.84Z"/>
        <path class="cls-3" d="M-1011.73,669.4c0-4.83,3.92-8.75,8.75-8.75s8.75,3.92,8.75,8.75-3.92,8.75-8.75,8.75-8.75-3.92-8.75-8.75Z"/>
        <path class="cls-3" d="M-2145.29,766.78c0-2.71,2.19-4.9,4.9-4.9s4.9,2.2,4.9,4.9-2.19,4.9-4.9,4.9-4.9-2.2-4.9-4.9Z"/>
        <path class="cls-3" d="M-2202.98,623.89c0-11.67,9.46-21.13,21.13-21.13s21.13,9.46,21.13,21.13-9.46,21.13-21.13,21.13-21.13-9.46-21.13-21.13Z"/>
        <path class="cls-3" d="M-2264.9,660.64c0-4.22,3.42-7.65,7.65-7.65s7.65,3.43,7.65,7.65-3.42,7.65-7.65,7.65-7.65-3.42-7.65-7.65Z"/>
        <path class="cls-3" d="M-2904.77,784.32c0-6.98,5.66-12.64,12.64-12.64s12.64,5.66,12.64,12.64-5.66,12.64-12.64,12.64-12.64-5.66-12.64-12.64Z"/>
        <path class="cls-3" d="M-2749.18,701.06c0-5.72,4.64-10.36,10.36-10.36s10.36,4.64,10.36,10.36-4.64,10.36-10.36,10.36-10.36-4.64-10.36-10.36Z"/>
        <path class="cls-3" d="M-3417.86,690.71c0-3.49,2.83-6.33,6.33-6.33s6.33,2.83,6.33,6.33-2.83,6.33-6.33,6.33-6.33-2.83-6.33-6.33Z"/>
        <path class="cls-3" d="M-3898.24,519.63c0-6.55,5.31-11.85,11.85-11.85s11.85,5.3,11.85,11.85-5.31,11.85-11.85,11.85-11.85-5.31-11.85-11.85Z"/>
        <path class="cls-3" d="M-3811.38,562.6c0-3.94,3.2-7.14,7.14-7.14s7.14,3.2,7.14,7.14-3.2,7.14-7.14,7.14-7.14-3.2-7.14-7.14Z"/>
        <path class="cls-3" d="M-3868.67,613.92c0-5.52,4.48-10,10-10s10,4.48,10,10-4.48,10-10,10-10-4.48-10-10Z"/>
        <circle class="cls-3" cx="-4607.82" cy="531.49" r="11.85" transform="translate(-1725.42 -3102.56) rotate(-45)"/>
        <path class="cls-3" d="M-4545.59,543.34c0-3.74,3.03-6.77,6.77-6.77s6.77,3.03,6.77,6.77-3.03,6.77-6.77,6.77-6.77-3.03-6.77-6.77Z"/>
      </g>
    </g>
    <g id="Layer_4" data-name="Layer 4">
      <g>
        <path class="cls-2" d="M0,663.82v409.85h4690.1s0-409.85,0-409.85c0,0-167.59,93.07-425.39,75.4-257.8-17.67-323.62-56.55-474.47-14.14-150.84,42.41-249.57,61.02-460.75,16.37-211.18-44.64-342.82-91.1-496.41-30.76-153.59,60.34-449.78,254.73-894.08,191.11-444.3-63.62-474.82-120.32-644.87-106.18-170.04,14.14-330.57-44.51-450.98-98.52-202.88-90.99-251.76-184.08-539.28-126.24C153.7,601.07,0,663.82,0,663.82h0Z"/>
        <path class="cls-1" d="M15.99,665.21s305.24-130.93,488.1-104.28c182.86,26.64,324.77,178.08,528.59,218.08,203.82,40,283.14,23.81,283.14,23.81,0,0-104.09,30.05-328.86-28.05-224.77-58.1-317-201.99-542.68-201.99-154.28,0-259.23,36.74-428.3,92.43Z"/>
        <path class="cls-1" d="M3214.27,723.76s-219.87-72.73-347.68-21.83c-127.81,50.9-318.91,174.56-609.9,203.92-290.98,29.35-543.08-41.67-543.08-41.67,0,0,298.5,88.82,552.78,50.24,254.28-38.57,334.62-83.68,466.05-143.68,131.43-60,185.65-85.75,281.92-79.37,96.26,6.38,199.91,32.38,199.91,32.38Z"/>
        <path class="cls-1" d="M4669.66,677.41s-140.96,70.48-328.27,67.31c-187.31-3.18-318.53-41.9-422.24-34.03-103.71,7.87-145.4,22.6-145.4,22.6,0,0,92.07-20.95,162.55-19.05,70.48,1.9,264.77,41.27,408.27,38.1,143.5-3.17,283.19-50.8,325.09-74.92Z"/>
        <path class="cls-9" d="M25.03,914.43s225.32-148.39,413.63-121.9c188.3,26.48,572.27,167.44,726.02,171.25,153.74,3.81,228.03,0,228.03,0,0,0-201.91,41.91-358.11,22.86-156.2-19.05-490.8-166.67-680.98-153.34-190.18,13.33-328.59,81.14-328.59,81.14h0Z"/>
        <path class="cls-9" d="M1613.67,914.43s373.35,114.51,660.98,77.17,503.85-151.18,591.94-187.6c88.09-36.42,131.9-29.23,131.9-29.23,0,0-205.72,84.97-312.39,149.37s-325.25,100.59-510.02,100.59-562.4-110.3-562.4-110.3Z"/>
        <path class="cls-9" d="M4338.63,924.14s-356.69-97.51-516.02-70.84c-159.33,26.67-386.01,95.24-559.35,93.34s-255.25-32.2-255.25-32.2c0,0,143.5,72.2,348.9,51.25,205.41-20.95,433.99-65.53,597.8-68.01s383.92,26.47,383.92,26.47Z"/>
      </g>
      <g>
        <path class="cls-2" d="M-4688.67,665.76v409.85H1.43s0-409.85,0-409.85c0,0-167.59,93.07-425.39,75.4-257.8-17.67-323.62-56.55-474.47-14.14-150.84,42.41-249.57,61.02-460.75,16.37-211.18-44.64-342.82-91.1-496.41-30.76-153.59,60.34-449.78,254.73-894.08,191.11-444.3-63.62-474.82-120.32-644.87-106.18-170.04,14.14-330.57-44.51-450.98-98.52-202.88-90.99-251.76-184.08-539.28-126.24-150.17,30.21-303.88,92.96-303.88,92.96h0Z"/>
        <path class="cls-1" d="M-4672.67,667.15s305.24-130.93,488.1-104.28c182.86,26.64,324.77,178.08,528.59,218.08,203.82,40,283.14,23.81,283.14,23.81,0,0-104.09,30.05-328.86-28.05-224.77-58.1-317-201.99-542.68-201.99-154.28,0-259.23,36.74-428.3,92.43Z"/>
        <path class="cls-1" d="M-1474.4,725.7s-219.87-72.73-347.68-21.83c-127.81,50.9-318.91,174.56-609.9,203.92-290.98,29.35-543.08-41.67-543.08-41.67,0,0,298.5,88.82,552.78,50.24,254.28-38.57,334.62-83.68,466.05-143.68,131.43-60,185.65-85.75,281.92-79.37,96.26,6.38,199.91,32.38,199.91,32.38Z"/>
        <path class="cls-1" d="M-19,679.35s-140.96,70.48-328.27,67.31c-187.31-3.18-318.53-41.9-422.24-34.03-103.71,7.87-145.4,22.6-145.4,22.6,0,0,92.07-20.95,162.55-19.05,70.48,1.9,264.77,41.27,408.27,38.1,143.5-3.17,283.19-50.8,325.09-74.92Z"/>
        <path class="cls-9" d="M-4663.64,916.37s225.32-148.39,413.63-121.9c188.3,26.48,572.27,167.44,726.02,171.25,153.74,3.81,228.03,0,228.03,0,0,0-201.91,41.91-358.11,22.86-156.2-19.05-490.8-166.67-680.98-153.34-190.18,13.33-328.59,81.14-328.59,81.14h0Z"/>
        <path class="cls-9" d="M-3075,916.37s373.35,114.51,660.98,77.17,503.85-151.18,591.94-187.6c88.09-36.42,131.9-29.23,131.9-29.23,0,0-205.72,84.97-312.39,149.37s-325.25,100.59-510.02,100.59-562.4-110.3-562.4-110.3Z"/>
        <path class="cls-9" d="M-350.04,926.08s-356.69-97.51-516.02-70.84c-159.33,26.67-386.01,95.24-559.35,93.34s-255.25-32.2-255.25-32.2c0,0,143.5,72.2,348.9,51.25,205.41-20.95,433.99-65.53,597.8-68.01s383.92,26.47,383.92,26.47Z"/>
      </g>
    </g>
  </g>
</svg>