<?xml version="1.0" encoding="utf-8"?>
<!-- Generator: Adobe Illustrator 28.3.0, SVG Export Plug-In . SVG Version: 6.00 Build 0)  -->
<svg version="1.1" id="Layer_1" xmlns="http://www.w3.org/2000/svg" xmlns:xlink="http://www.w3.org/1999/xlink" x="0px" y="0px"
	 viewBox="0 0 1876.8 1710.1" style="enable-background:new 0 0 1876.8 1710.1;" xml:space="preserve">
<style type="text/css">
	.st0{fill:url(#SVGID_1_);}
	.st1{fill:#B4E0E9;}
	.st2{fill:#00FCE8;}
	.st3{fill:#003E61;}
	.st4{fill:url(#SVGID_00000181766284253899192200000004547784809882582407_);}
	.st5{fill:#A28DE6;}
	.st6{fill:#FFFFFF;}
	.st7{fill:#C4889C;}
	.st8{fill:#2C75A7;}
	.st9{fill:url(#SVGID_00000070823359942395086110000004334627156049521055_);}
	.st10{fill:#A0C0CC;}
	.st11{fill:url(#SVGID_00000139279517044533411320000001733852758819994531_);}
	.st12{fill:url(#SVGID_00000088133994849270786200000007562263302033964978_);}
	.st13{fill:url(#SVGID_00000116222865739431097990000014886432684211967666_);}
	.st14{fill:#44F6FF;}
	.st15{fill:url(#SVGID_00000073707374557968606080000013618567859267646080_);}
	.st16{fill:#9FEAFD;}
	.st17{fill:#27B3FF;}
	.st18{fill:#DD3173;}
	.st19{fill:#F391D9;}
	.st20{fill:#FFFD89;}
	.st21{fill:url(#SVGID_00000129182695677633510560000006946710550782939789_);}
	.st22{fill:#00526F;}
	.st23{fill:url(#SVGID_00000007399884571593992540000015874697378532593042_);}
	.st24{fill:url(#SVGID_00000124156415549544533640000013136786487613040050_);}
	.st25{fill:url(#SVGID_00000147939595000264392430000009335253592003537315_);}
	.st26{fill:url(#SVGID_00000134965983668855079890000013023746303685204608_);}
	.st27{fill:url(#SVGID_00000129923592977831039910000009180936463347038606_);}
	.st28{fill:#FFBA89;}
	.st29{fill:url(#SVGID_00000151532934049411563030000017253779097334867113_);}
	.st30{fill:url(#SVGID_00000049220820602621974970000017049610904196749703_);}
	.st31{fill:url(#SVGID_00000051348969943228529590000013885314821623844242_);}
	.st32{opacity:0.75;fill:#FDE7B3;}
	.st33{fill:url(#SVGID_00000133527134205706082870000008072252323769181060_);}
	.st34{opacity:0.25;fill:#DD3173;}
	.st35{opacity:0.5;fill:#DD3173;}
	.st36{opacity:0.75;fill:#DD3173;}
	.st37{fill:url(#SVGID_00000023995606759752558400000015758724697863096706_);}
	.st38{opacity:0.25;fill:#A28DE6;}
	.st39{opacity:0.5;fill:#A28DE6;}
	.st40{opacity:0.75;fill:#A28DE6;}
	.st41{fill:url(#SVGID_00000070806078499506175120000004446852820563845534_);}
	.st42{opacity:0.25;fill:#00FCE8;}
	.st43{opacity:0.5;fill:#00FCE8;}
	.st44{opacity:0.75;fill:#00FCE8;}
	.st45{fill:url(#SVGID_00000071526228389504963710000002898374334018277050_);}
	.st46{fill:url(#SVGID_00000112602633150152385200000006902098855066938779_);}
	.st47{fill:url(#SVGID_00000029751832457727460930000003410240530839596704_);}
	.st48{fill:url(#SVGID_00000067225566300886517250000015234479660528057769_);}
	.st49{fill:url(#SVGID_00000142174870188403242870000008019392638124657580_);}
	.st50{fill:url(#SVGID_00000091735032256043269500000000281597986362525598_);}
	.st51{fill:url(#SVGID_00000056414362652417361420000002998089444107713198_);}
	.st52{fill:url(#SVGID_00000175281138767683904110000005072876922982483585_);}
	.st53{fill:url(#SVGID_00000010295633390052014690000008495091755760814225_);}
	.st54{fill:url(#SVGID_00000067930382389266879080000012432322881059230337_);}
	.st55{fill:url(#SVGID_00000113315613059767992010000013304646756607741315_);}
	.st56{fill:url(#SVGID_00000080169778523351886290000003080983539507984059_);}
	.st57{fill:url(#SVGID_00000003813286635245367660000014696024895823417989_);}
	.st58{fill:url(#SVGID_00000105387179756899914160000010494136370307283901_);}
	.st59{fill:#FDE7B3;}
	.st60{fill:url(#SVGID_00000012471739481935427670000006901396935223923364_);}
	.st61{fill:url(#SVGID_00000164475620243412589840000015469874600782753456_);}
	.st62{fill:url(#SVGID_00000088101200196105166690000000990560475482448007_);}
	.st63{fill:#D0C6F2;}
	.st64{fill:url(#SVGID_00000060714323227631238010000000882460128199224756_);}
	.st65{fill:#B9A9EC;}
	.st66{fill:url(#SVGID_00000052802992740292645760000009495095271114813088_);}
</style>
<radialGradient id="SVGID_1_" cx="1330.8168" cy="908.0576" r="927.2202" gradientUnits="userSpaceOnUse">
	<stop  offset="0" style="stop-color:#009FD9"/>
	<stop  offset="0.4503" style="stop-color:#007CA9"/>
	<stop  offset="1" style="stop-color:#005372"/>
	<stop  offset="1" style="stop-color:#003E56"/>
</radialGradient>
<circle class="st0" cx="938.1" cy="902.8" r="727.9"/>
<path class="st1" d="M938.1,1705.2c-442.4,0-802.4-359.9-802.4-802.4s359.9-802.4,802.4-802.4c442.4,0,802.4,359.9,802.4,802.4
	S1380.5,1705.2,938.1,1705.2z M938.1,178c-399.7,0-724.9,325.2-724.9,724.9s325.2,724.9,724.9,724.9s724.9-325.2,724.9-724.9
	S1337.7,178,938.1,178z"/>
<path class="st2" d="M938.1,1634.4c-403.4,0-731.6-328.2-731.6-731.6s328.2-731.6,731.6-731.6s731.6,328.2,731.6,731.6
	S1341.4,1634.4,938.1,1634.4z M938.1,179c-399.1,0-723.8,324.7-723.8,723.8s324.7,723.8,723.8,723.8s723.8-324.7,723.8-723.8
	S1337.2,179,938.1,179z"/>
<g>
	<polygon class="st3" points="517.2,614.5 517.2,602.9 382.9,602.9 382.9,614.5 327.6,614.5 327.6,602.9 193.4,602.9 193.4,614.5 
		138.1,614.5 138.1,559.2 149.7,559.2 149.7,397.1 138.1,397.1 138.1,341.8 149.7,341.8 149.7,179.6 138.1,179.6 138.1,124.3 
		193.4,124.3 193.4,135.9 327.6,135.9 327.6,124.3 382.9,124.3 382.9,135.9 517.2,135.9 517.2,124.3 572.5,124.3 572.5,179.6 
		560.8,179.6 560.8,341.8 572.5,341.8 572.5,397.1 560.8,397.1 560.8,559.2 572.5,559.2 572.5,614.5 	"/>
	<polygon class="st3" points="556.5,163.6 556.5,140.3 533.2,140.3 533.2,151.9 366.9,151.9 366.9,140.3 343.6,140.3 343.6,151.9 
		177.4,151.9 177.4,140.3 154.1,140.3 154.1,163.6 165.7,163.6 165.7,357.8 154.1,357.8 154.1,381.1 165.7,381.1 165.7,575.2 
		154.1,575.2 154.1,598.5 177.4,598.5 177.4,586.9 343.6,586.9 343.6,598.5 366.9,598.5 366.9,586.9 533.2,586.9 533.2,598.5 
		556.5,598.5 556.5,575.2 544.8,575.2 544.8,381.1 556.5,381.1 556.5,357.8 544.8,357.8 544.8,163.6 	"/>
	<g>
		
			<linearGradient id="SVGID_00000158012059355731556910000005973884354534541501_" gradientUnits="userSpaceOnUse" x1="355.2863" y1="532.4452" x2="355.2863" y2="-104.6574">
			<stop  offset="0" style="stop-color:#FFFFFF"/>
			<stop  offset="1" style="stop-color:#44F6FF"/>
		</linearGradient>
		
			<rect x="165.7" y="151.9" style="fill:url(#SVGID_00000158012059355731556910000005973884354534541501_);" width="379.1" height="434.9"/>
		<path class="st5" d="M544.8,151.9v434.9H165.7V151.9H544.8 M552.8,143.9h-8H165.7h-8v8v434.9v8h8h379.1h8v-8V151.9V143.9
			L552.8,143.9z"/>
	</g>
	<g>
		<rect x="154.1" y="140.3" class="st6" width="23.3" height="23.3"/>
		<path class="st5" d="M177.4,140.3v23.3h-23.3v-23.3H177.4 M185.4,132.3h-8h-23.3h-8v8v23.3v8h8h23.3h8v-8v-23.3V132.3L185.4,132.3
			z"/>
	</g>
	<g>
		<rect x="533.2" y="140.3" class="st6" width="23.3" height="23.3"/>
		<path class="st5" d="M556.5,140.3v23.3h-23.3v-23.3H556.5 M564.5,132.3h-8h-23.3h-8v8v23.3v8h8h23.3h8v-8v-23.3V132.3L564.5,132.3
			z"/>
	</g>
	<g>
		<rect x="154.1" y="357.8" class="st6" width="23.3" height="23.3"/>
		<path class="st5" d="M177.4,357.8v23.3h-23.3v-23.3H177.4 M185.4,349.8h-8h-23.3h-8v8v23.3v8h8h23.3h8v-8v-23.3V349.8L185.4,349.8
			z"/>
	</g>
	<g>
		<rect x="533.2" y="357.8" class="st6" width="23.3" height="23.3"/>
		<path class="st5" d="M556.5,357.8v23.3h-23.3v-23.3H556.5 M564.5,349.8h-8h-23.3h-8v8v23.3v8h8h23.3h8v-8v-23.3V349.8L564.5,349.8
			z"/>
	</g>
	<g>
		<rect x="533.2" y="575.2" class="st6" width="23.3" height="23.3"/>
		<path class="st5" d="M556.5,575.2v23.3h-23.3v-23.3H556.5 M564.5,567.2h-8h-23.3h-8v8v23.3v8h8h23.3h8v-8v-23.3V567.2L564.5,567.2
			z"/>
	</g>
	<g>
		<rect x="154.1" y="575.2" class="st6" width="23.3" height="23.3"/>
		<path class="st5" d="M177.4,575.2v23.3h-23.3v-23.3H177.4 M185.4,567.2h-8h-23.3h-8v8v23.3v8h8h23.3h8v-8v-23.3V567.2L185.4,567.2
			z"/>
	</g>
	<g>
		<rect x="343.6" y="575.2" class="st6" width="23.3" height="23.3"/>
		<path class="st5" d="M366.9,575.2v23.3h-23.3v-23.3H366.9 M374.9,567.2h-8h-23.3h-8v8v23.3v8h8h23.3h8v-8v-23.3V567.2L374.9,567.2
			z"/>
	</g>
	<g>
		<rect x="343.6" y="140.3" class="st6" width="23.3" height="23.3"/>
		<path class="st5" d="M366.9,140.3v23.3h-23.3v-23.3H366.9 M374.9,132.3h-8h-23.3h-8v8v23.3v8h8h23.3h8v-8v-23.3V132.3L374.9,132.3
			z"/>
	</g>
	<path class="st7" d="M504.2,538.6H206.4c-2.2,0-4-1.8-4-4s1.8-4,4-4h297.8c2.2,0,4,1.8,4,4S506.4,538.6,504.2,538.6z"/>
</g>
<g>
	<rect x="119.4" y="674.5" class="st8" width="1166.2" height="103.5"/>
	
		<linearGradient id="SVGID_00000165202439482106899680000003973546397660060854_" gradientUnits="userSpaceOnUse" x1="702.4592" y1="760.1051" x2="702.4592" y2="688.6175">
		<stop  offset="0" style="stop-color:#FDE7B3"/>
		<stop  offset="1" style="stop-color:#FFBA89"/>
	</linearGradient>
	
		<rect x="109.8" y="686" style="fill:url(#SVGID_00000165202439482106899680000003973546397660060854_);" width="1185.4" height="106.7"/>
	<rect x="109.8" y="731.9" class="st7" width="1185.4" height="4"/>
	<g>
		<rect x="534.3" y="763.2" class="st7" width="6.2" height="29.5"/>
		<rect x="562.6" y="763.2" class="st7" width="6.2" height="29.5"/>
		<rect x="590.9" y="763.2" class="st7" width="6.2" height="29.5"/>
		<rect x="619.2" y="763.2" class="st7" width="6.2" height="29.5"/>
		<rect x="647.5" y="747.5" class="st7" width="6.2" height="45.1"/>
		<rect x="391.1" y="763.2" class="st7" width="6.2" height="29.5"/>
		<rect x="419.4" y="763.2" class="st7" width="6.2" height="29.5"/>
		<rect x="447.7" y="763.2" class="st7" width="6.2" height="29.5"/>
		<rect x="475.9" y="763.2" class="st7" width="6.2" height="29.5"/>
		<rect x="504.2" y="747.5" class="st7" width="6.2" height="45.1"/>
		<rect x="247.7" y="763.2" class="st7" width="6.2" height="29.5"/>
		<rect x="276" y="763.2" class="st7" width="6.2" height="29.5"/>
		<rect x="304.2" y="763.2" class="st7" width="6.2" height="29.5"/>
		<rect x="332.5" y="763.2" class="st7" width="6.2" height="29.5"/>
		<rect x="360.8" y="747.5" class="st7" width="6.2" height="45.1"/>
		<rect x="131.8" y="763.2" class="st7" width="6.2" height="29.5"/>
		<rect x="160" y="763.2" class="st7" width="6.2" height="29.5"/>
		<rect x="188.3" y="763.2" class="st7" width="6.2" height="29.5"/>
		<rect x="216.6" y="747.5" class="st7" width="6.2" height="45.1"/>
		<rect x="675.8" y="763.2" class="st7" width="6.2" height="29.5"/>
		<rect x="704" y="763.2" class="st7" width="6.2" height="29.5"/>
		<rect x="732.3" y="763.2" class="st7" width="6.2" height="29.5"/>
		<rect x="760.6" y="763.2" class="st7" width="6.2" height="29.5"/>
		<rect x="788.9" y="747.5" class="st7" width="6.2" height="45.1"/>
		<rect x="817.2" y="763.2" class="st7" width="6.2" height="29.5"/>
		<rect x="845.4" y="763.2" class="st7" width="6.2" height="29.5"/>
		<rect x="873.7" y="763.2" class="st7" width="6.2" height="29.5"/>
		<rect x="902" y="763.2" class="st7" width="6.2" height="29.5"/>
		<rect x="930.3" y="747.5" class="st7" width="6.2" height="45.1"/>
		<rect x="958.6" y="763.2" class="st7" width="6.2" height="29.5"/>
		<rect x="986.9" y="763.2" class="st7" width="6.2" height="29.5"/>
		<rect x="1015.1" y="763.2" class="st7" width="6.2" height="29.5"/>
		<rect x="1043.4" y="763.2" class="st7" width="6.2" height="29.5"/>
		<rect x="1071.7" y="747.5" class="st7" width="6.2" height="45.1"/>
		<rect x="1100" y="763.2" class="st7" width="6.2" height="29.5"/>
		<rect x="1128.3" y="763.2" class="st7" width="6.2" height="29.5"/>
		<rect x="1156.6" y="763.2" class="st7" width="6.2" height="29.5"/>
		<rect x="1184.8" y="763.2" class="st7" width="6.2" height="29.5"/>
		<rect x="1213.1" y="747.5" class="st7" width="6.2" height="45.1"/>
		<rect x="1241.4" y="763.2" class="st7" width="6.2" height="29.5"/>
		<rect x="1269.7" y="763.2" class="st7" width="6.2" height="29.5"/>
	</g>
	<path class="st3" d="M1299.2,796.7H105.8V682h1193.4V796.7z M113.8,788.7h1177.4V690H113.8V788.7z"/>
	<circle class="st7" cx="149.7" cy="733.9" r="13.7"/>
</g>
<g>
	<g>
		<path class="st10" d="M1142.5,1702.1h-45.6c-5.6,0-10.2-4.1-10.2-9.2v-16c0-1.6-0.4-3.1-1.3-4.5l-125.8-204.8
			c-3.9-6.3-13.9-6.3-17.7,0l-125.8,204.8c-0.8,1.4-1.3,2.9-1.3,4.5v16c0,5.1-4.5,9.2-10.2,9.2h-45.6c-5.6,0-10.2-4.1-10.2-9.2
			v-31.6c0-1.6,0.4-3.1,1.3-4.5L942,1344.5c3.9-6.3,13.9-6.3,17.7,0l191.7,312.2c0.8,1.4,1.3,2.9,1.3,4.5v31.6
			C1152.7,1698,1148.1,1702.1,1142.5,1702.1z"/>
		<path class="st3" d="M950.8,1339.8c3.5,0,6.9,1.6,8.9,4.7l191.7,312.2c0.8,1.4,1.3,2.9,1.3,4.5v31.6c0,5.1-4.5,9.2-10.2,9.2h-45.6
			c-5.6,0-10.2-4.1-10.2-9.2v-16c0-1.6-0.4-3.1-1.3-4.5l-125.8-204.8c-1.9-3.2-5.4-4.7-8.9-4.7s-6.9,1.6-8.9,4.7l-125.8,204.8
			c-0.8,1.4-1.3,2.9-1.3,4.5v16c0,5.1-4.5,9.2-10.2,9.2h-45.6c-5.6,0-10.2-4.1-10.2-9.2v-31.6c0-1.6,0.4-3.1,1.3-4.5L942,1344.5
			C943.9,1341.4,947.4,1339.8,950.8,1339.8 M950.8,1331.8c-6.5,0-12.4,3.2-15.7,8.6l-191.7,312.2c-1.6,2.6-2.5,5.6-2.5,8.7v31.6
			c0,9.5,8.1,17.2,18.2,17.2h45.6c10,0,18.2-7.7,18.2-17.2v-16c0-0.1,0-0.2,0.1-0.3l125.8-204.8c0.4-0.7,1.3-0.9,2.1-0.9
			s1.6,0.2,2.1,0.9l125.8,204.8c0.1,0.1,0.1,0.2,0.1,0.3v16c0,9.5,8.1,17.2,18.2,17.2h45.6c10,0,18.2-7.7,18.2-17.2v-31.6
			c0-3.1-0.9-6.1-2.5-8.7l-191.7-312.2C963.2,1335,957.4,1331.8,950.8,1331.8L950.8,1331.8z"/>
	</g>
	<g>
		
			<linearGradient id="SVGID_00000008870758822054216870000014688676961771390863_" gradientUnits="userSpaceOnUse" x1="950.822" y1="1689.3379" x2="950.822" y2="1560.3176">
			<stop  offset="0" style="stop-color:#80A8B7"/>
			<stop  offset="1" style="stop-color:#00526F"/>
		</linearGradient>
		<path style="fill:url(#SVGID_00000008870758822054216870000014688676961771390863_);" d="M1103.7,1690.1c-2.1,0-3.8-1.5-3.8-3.4
			v-9.8c0-3.6-1-7.2-3-10.4l-125.8-204.8c-4.1-6.7-11.9-10.9-20.4-10.9s-16.3,4.2-20.4,10.9l-125.8,204.8c-1.9,3.2-3,6.7-3,10.4v9.8
			c0,1.9-1.7,3.4-3.8,3.4h-32c-2.1,0-3.8-1.5-3.8-3.4v-23.8c0-0.6,0.2-1.2,0.5-1.7L947.5,1360c1.4-2.3,5.1-2.3,6.6,0l184.9,301.2
			c0.3,0.5,0.5,1.1,0.5,1.7v23.8c0,1.9-1.7,3.4-3.8,3.4H1103.7z"/>
	</g>
	<g>
		<g>
			
				<linearGradient id="SVGID_00000159465574666162173330000012852297366377515426_" gradientUnits="userSpaceOnUse" x1="950.8219" y1="1221.5443" x2="950.8219" y2="1385.3186">
				<stop  offset="0" style="stop-color:#A0C0CC"/>
				<stop  offset="1" style="stop-color:#00526F"/>
			</linearGradient>
			<path style="fill:url(#SVGID_00000159465574666162173330000012852297366377515426_);" d="M1195.1,1637.9H706.5
				c-7.1,0-12.8-5.7-12.8-12.8l0-318.1c0-7.1,5.7-12.8,12.8-12.8h488.6c7.1,0,12.8,5.7,12.8,12.8l0,318.1
				C1208,1632.2,1202.2,1637.9,1195.1,1637.9z"/>
			<path class="st3" d="M706.5,1294.1h488.6c7.1,0,12.8,5.7,12.8,12.8l0,318.1c0,7.1-5.7,12.8-12.8,12.8H706.5
				c-7.1,0-12.8-5.7-12.8-12.8v-318.1C693.7,1299.9,699.4,1294.1,706.5,1294.1 M706.5,1286.1c-11.5,0-20.8,9.3-20.8,20.8v318.1
				c0,11.5,9.3,20.8,20.8,20.8h488.6c11.5,0,20.8-9.3,20.8-20.8l0-318.1c0-11.5-9.3-20.8-20.8-20.8H706.5L706.5,1286.1z"/>
		</g>
		<g>
			
				<radialGradient id="SVGID_00000168113229929711562610000016184784616569233300_" cx="1071.4065" cy="1472.4115" r="202.4921" gradientUnits="userSpaceOnUse">
				<stop  offset="0.2564" style="stop-color:#FFFFFF"/>
				<stop  offset="0.3619" style="stop-color:#FEF7E7"/>
				<stop  offset="0.4922" style="stop-color:#FEF0D0"/>
				<stop  offset="0.6331" style="stop-color:#FDEBC0"/>
				<stop  offset="0.7909" style="stop-color:#FDE8B6"/>
				<stop  offset="1" style="stop-color:#FDE7B3"/>
			</radialGradient>
			<path style="fill:url(#SVGID_00000168113229929711562610000016184784616569233300_);" d="M1154.1,1605.8H817.7
				c-4.1,0-7.4-3.3-7.4-7.4v-264.4c0-4.1,3.3-7.4,7.4-7.4h336.4c4.1,0,7.4,3.3,7.4,7.4v264.4
				C1161.4,1602.5,1158.1,1605.8,1154.1,1605.8z"/>
			<path class="st6" d="M1153.4,1334.7v263.1H818.3v-263.1H1153.4 M1154.1,1326.7H817.7c-4.1,0-7.4,3.3-7.4,7.4v264.4
				c0,4.1,3.3,7.4,7.4,7.4h336.4c4.1,0,7.4-3.3,7.4-7.4v-264.4C1161.4,1330,1158.1,1326.7,1154.1,1326.7L1154.1,1326.7z"/>
		</g>
		<path class="st2" d="M778.1,1346.2h-50.4c-2.7,0-4.9-2.2-4.9-4.9v-9.7c0-2.7,2.2-4.9,4.9-4.9h50.4c2.7,0,4.9,2.2,4.9,4.9v9.7
			C783,1344,780.8,1346.2,778.1,1346.2z"/>
		<path class="st14" d="M778.1,1380.5h-50.4c-2.7,0-4.9-2.2-4.9-4.9v-9.7c0-2.7,2.2-4.9,4.9-4.9h50.4c2.7,0,4.9,2.2,4.9,4.9v9.7
			C783,1378.3,780.8,1380.5,778.1,1380.5z"/>
		<g>
			
				<linearGradient id="SVGID_00000035518588591173245380000014582585047311663795_" gradientUnits="userSpaceOnUse" x1="1184.3683" y1="1567.6584" x2="1184.3683" y2="1369.0769">
				<stop  offset="0" style="stop-color:#2794FA"/>
				<stop  offset="1" style="stop-color:#00FCE8"/>
			</linearGradient>
			<path style="fill:url(#SVGID_00000035518588591173245380000014582585047311663795_);" d="M1191.1,1370.8v191c0,3.7-3,6.7-6.7,6.7
				l0,0c-3.7,0-6.7-3-6.7-6.7v-191c0-3.7,3-6.7,6.7-6.7l0,0C1188.1,1364.1,1191.1,1367.1,1191.1,1370.8z"/>
		</g>
		<path class="st16" d="M778.1,1414.7h-50.4c-2.7,0-4.9-2.2-4.9-4.9v-9.7c0-2.7,2.2-4.9,4.9-4.9h50.4c2.7,0,4.9,2.2,4.9,4.9v9.7
			C783,1412.5,780.8,1414.7,778.1,1414.7z"/>
		<path class="st16" d="M778.1,1537.3h-50.4c-2.7,0-4.9-2.2-4.9-4.9v-9.7c0-2.7,2.2-4.9,4.9-4.9h50.4c2.7,0,4.9,2.2,4.9,4.9v9.7
			C783,1535.1,780.8,1537.3,778.1,1537.3z"/>
		<path class="st14" d="M778.1,1571.6h-50.4c-2.7,0-4.9-2.2-4.9-4.9v-9.7c0-2.7,2.2-4.9,4.9-4.9h50.4c2.7,0,4.9,2.2,4.9,4.9v9.7
			C783,1569.4,780.8,1571.6,778.1,1571.6z"/>
		<path class="st2" d="M778.1,1605.8h-50.4c-2.7,0-4.9-2.2-4.9-4.9v-9.7c0-2.7,2.2-4.9,4.9-4.9h50.4c2.7,0,4.9,2.2,4.9,4.9v9.7
			C783,1603.6,780.8,1605.8,778.1,1605.8z"/>
		<g>
			<circle class="st17" cx="752.9" cy="1466" r="30.1"/>
			<path class="st2" d="M752.9,1439.9c14.4,0,26.1,11.7,26.1,26.1c0,14.4-11.7,26.1-26.1,26.1c-14.4,0-26.1-11.7-26.1-26.1
				C726.8,1451.6,738.5,1439.9,752.9,1439.9 M752.9,1435.9c-16.6,0-30.1,13.5-30.1,30.1c0,16.6,13.5,30.1,30.1,30.1
				c16.6,0,30.1-13.5,30.1-30.1C783,1449.4,769.5,1435.9,752.9,1435.9L752.9,1435.9z"/>
		</g>
		<path class="st8" d="M839.2,1387.6c-2.2,0-4-1.8-4-4v-28c0-2.2,1.8-4,4-4h28c2.2,0,4,1.8,4,4s-1.8,4-4,4h-24v24
			C843.2,1385.8,841.4,1387.6,839.2,1387.6z"/>
		<path class="st8" d="M1132.6,1387.6c-2.2,0-4-1.8-4-4v-24h-24c-2.2,0-4-1.8-4-4s1.8-4,4-4h28c2.2,0,4,1.8,4,4v28
			C1136.6,1385.8,1134.8,1387.6,1132.6,1387.6z"/>
		<path class="st8" d="M1132.6,1580.9h-28c-2.2,0-4-1.8-4-4s1.8-4,4-4h24v-24c0-2.2,1.8-4,4-4s4,1.8,4,4v28
			C1136.6,1579.1,1134.8,1580.9,1132.6,1580.9z"/>
		<path class="st8" d="M867.3,1580.9h-28c-2.2,0-4-1.8-4-4v-28c0-2.2,1.8-4,4-4s4,1.8,4,4v24h24c2.2,0,4,1.8,4,4
			S869.5,1580.9,867.3,1580.9z"/>
	</g>
	<path class="st18" d="M1004.2,1515.9c-19.5,0-29.2-9.7-36.9-17.4c-6.1-6.1-10.5-10.6-19.1-10.6c-9.9,0-15.8,5.9-22.6,12.8
		c-7,7.1-14.9,15.1-27.7,15.1c-24.4,0-39.6-28.2-40.2-29.4c-2.1-3.9-0.6-8.7,3.3-10.8c3.9-2.1,8.7-0.6,10.8,3.3
		c3.1,5.8,13.8,20.9,26.1,20.9c5.7,0,9.9-3.9,16.3-10.4c7.7-7.8,17.3-17.6,34-17.6c15.2,0,23.3,8.1,30.4,15.3
		c7.1,7.1,12.6,12.7,25.5,12.7c26,0,44.7-29.1,44.8-29.4c2.4-3.7,7.3-4.9,11-2.5s4.9,7.3,2.5,11
		C1061.7,1480.5,1039.1,1515.9,1004.2,1515.9z"/>
	<g>
		<circle class="st19" cx="1059.1" cy="1474.7" r="38"/>
		<path class="st18" d="M1059.1,1516.7c-23.2,0-42-18.8-42-42s18.8-42,42-42s42,18.8,42,42S1082.3,1516.7,1059.1,1516.7z
			 M1059.1,1440.7c-18.8,0-34,15.3-34,34s15.3,34,34,34s34-15.3,34-34S1077.9,1440.7,1059.1,1440.7z"/>
	</g>
	<circle class="st20" cx="1019.3" cy="1310.6" r="4.2"/>
	<path class="st2" d="M968.8,1306.4h30.5c2.1,0,3.8,1.7,3.8,3.8v0.7c0,2.1-1.7,3.8-3.8,3.8h-30.5c-2.1,0-3.8-1.7-3.8-3.8v-0.7
		C965,1308.1,966.7,1306.4,968.8,1306.4z"/>
	<g>
		<g>
			
				<linearGradient id="SVGID_00000065064394564858507530000003295581313932031130_" gradientUnits="userSpaceOnUse" x1="788.7919" y1="1238.6061" x2="835.0206" y2="1194.718">
				<stop  offset="0" style="stop-color:#A0C0CC"/>
				<stop  offset="0.5" style="stop-color:#FFFFFF"/>
				<stop  offset="1" style="stop-color:#A0C0CC"/>
			</linearGradient>
			<path style="fill:url(#SVGID_00000065064394564858507530000003295581313932031130_);" d="M806.8,1255.7l45.3-43.3l-24.8-26
				c-5.2-5.4-13.8-5.6-19.2-0.5l-25.7,24.5c-5.4,5.2-5.6,13.8-0.5,19.2L806.8,1255.7z"/>
			<path class="st22" d="M806.8,1259.7C806.7,1259.7,806.7,1259.7,806.8,1259.7c-1.2,0-2.2-0.5-2.9-1.2l-24.8-26
				c-3.2-3.4-5-7.9-4.9-12.6c0.1-4.7,2-9.1,5.4-12.3l25.7-24.5c7-6.7,18.2-6.4,24.9,0.6l24.8,26c0.7,0.8,1.1,1.8,1.1,2.9
				c0,1.1-0.5,2.1-1.2,2.8l-45.3,43.3C808.8,1259.3,807.8,1259.7,806.8,1259.7z M817.5,1186.3c-2.4,0-4.8,0.9-6.6,2.6l-25.7,24.5
				c-1.9,1.8-2.9,4.2-3,6.7c-0.1,2.6,0.9,5,2.6,6.8l22,23.1l39.5-37.7l-22-23.1C822.6,1187.3,820,1186.3,817.5,1186.3z"/>
		</g>
		<g>
			
				<linearGradient id="SVGID_00000022558025046326596460000016243361279824281475_" gradientUnits="userSpaceOnUse" x1="895.8016" y1="1353.9807" x2="940.8578" y2="1310.0948">
				<stop  offset="0" style="stop-color:#A0C0CC"/>
				<stop  offset="0.5" style="stop-color:#FFFFFF"/>
				<stop  offset="1" style="stop-color:#A0C0CC"/>
			</linearGradient>
			<polygon style="fill:url(#SVGID_00000022558025046326596460000016243361279824281475_);" points="989.3,1446.9 1034.7,1403.7 
				852.1,1212.5 806.8,1255.7 			"/>
			<path class="st22" d="M989.3,1450.9c-1.1,0-2.1-0.4-2.9-1.2l-182.6-191.2c-0.7-0.8-1.1-1.8-1.1-2.9c0-1.1,0.5-2.1,1.2-2.8
				l45.3-43.3c1.6-1.5,4.1-1.5,5.7,0.1l182.5,191.2c0.7,0.8,1.1,1.8,1.1,2.9c0,1.1-0.5,2.1-1.2,2.8l-45.3,43.3
				C991.3,1450.6,990.3,1450.9,989.3,1450.9z M812.4,1255.9l177,185.4l39.5-37.7l-177-185.4L812.4,1255.9z"/>
		</g>
		<g>
			
				<linearGradient id="SVGID_00000098180314407135497610000008283045346573763771_" gradientUnits="userSpaceOnUse" x1="1011.7087" y1="1473.2006" x2="1057.9352" y2="1427.5593">
				<stop  offset="0" style="stop-color:#A0C0CC"/>
				<stop  offset="0.5" style="stop-color:#FFFFFF"/>
				<stop  offset="1" style="stop-color:#A0C0CC"/>
			</linearGradient>
			<polygon style="fill:url(#SVGID_00000098180314407135497610000008283045346573763771_);" points="1059.1,1474.7 1059.1,1474.7 
				1034.7,1403.7 989.3,1446.9 			"/>
			<path class="st22" d="M1059.1,1478.7c-0.5,0-1-0.1-1.5-0.3l-69.8-27.8c-1.3-0.5-2.2-1.6-2.4-3c-0.3-1.3,0.2-2.7,1.2-3.7
				l45.3-43.3c1-0.9,2.4-1.3,3.7-1c1.3,0.3,2.4,1.3,2.8,2.6l24.5,71c0.5,1.5,0.1,3.1-1,4.2
				C1061.1,1478.3,1060.1,1478.7,1059.1,1478.7z M996.6,1445.5l55.9,22.3l-19.6-56.9L996.6,1445.5z"/>
		</g>
		<path class="st22" d="M988,1401.3l1-1c3-2.9,3.1-7.6,0.2-10.6l-40.4-42.3c-2.9-3-7.6-3.1-10.6-0.2l-1,1c-3,2.9-3.1,7.6-0.2,10.6
			l40.4,42.3C980.3,1404,985.1,1404.1,988,1401.3z"/>
	</g>
</g>
<g>
	<path class="st3" d="M1605.1,613.4c-1.2,0-2.4,0-3.7,0l-1.1,0c-0.9,0-1.7-0.1-2.6-0.1l-1.2-0.1c-0.9,0-1.8-0.1-2.7-0.2l-0.9-0.1
		c-1.2-0.1-2.4-0.2-3.6-0.3l-0.8-0.1c-0.9-0.1-1.9-0.2-2.8-0.3l-1.1-0.1c-0.9-0.1-1.7-0.2-2.5-0.4l-1.1-0.2
		c-1.1-0.2-2.1-0.3-3.2-0.5l-0.4-0.1c-1.1-0.2-2.3-0.4-3.5-0.7l-1-0.2c-0.8-0.2-1.7-0.4-2.5-0.5l-1.2-0.3c-0.8-0.2-1.7-0.4-2.5-0.6
		l-0.9-0.2c-1.1-0.3-2.3-0.6-3.4-0.9l-0.6-0.2c-0.9-0.3-1.9-0.5-2.8-0.8l-1.1-0.3c-0.8-0.2-1.5-0.5-2.3-0.8l-1.1-0.4
		c-0.9-0.3-1.8-0.6-2.7-1l-0.6-0.2c-1.1-0.4-2.2-0.8-3.2-1.2l-0.9-0.4c-0.8-0.3-1.6-0.6-2.3-1l-1.1-0.5c-0.8-0.3-1.5-0.7-2.3-1
		l-0.9-0.4c-1-0.5-2.1-1-3.1-1.4l-0.3-0.2c-0.9-0.5-1.8-0.9-2.7-1.4l-1-0.5c-0.7-0.4-1.4-0.7-2.1-1.1l-1-0.6
		c-0.8-0.4-1.5-0.9-2.3-1.3l-0.7-0.4c-1-0.6-2-1.1-2.9-1.7l-0.8-0.5c-0.6-0.4-1.3-0.8-1.9-1.2c-0.6,0.4-1.3,0.8-1.9,1.2l-0.7,0.4
		c-1,0.6-2,1.2-2.9,1.7l-0.7,0.4c-0.8,0.4-1.6,0.9-2.3,1.3l-1,0.5c-0.7,0.4-1.4,0.8-2.2,1.1l-1,0.5c-0.9,0.5-1.8,0.9-2.7,1.3
		l-0.4,0.2c-1,0.5-2,1-3.1,1.4l-0.9,0.4c-0.8,0.3-1.5,0.7-2.3,1l-1.1,0.5c-0.8,0.3-1.6,0.6-2.3,1l-0.9,0.4c-1.1,0.4-2.2,0.8-3.2,1.2
		l-0.6,0.2c-0.9,0.3-1.8,0.7-2.7,1c-0.4,0.1-0.7,0.2-1.1,0.4c-0.8,0.3-1.5,0.5-2.3,0.8l-1.1,0.3c-0.9,0.3-1.9,0.6-2.8,0.8l-0.6,0.2
		c-1.1,0.3-2.3,0.6-3.4,0.9l-0.9,0.2c-0.8,0.2-1.7,0.4-2.5,0.6l-1.2,0.3c-0.8,0.2-1.7,0.4-2.5,0.5l-1,0.2c-1.2,0.2-2.3,0.5-3.5,0.7
		l-0.3,0.1c-1.1,0.2-2.1,0.4-3.2,0.5l-1.1,0.2c-0.8,0.1-1.7,0.2-2.5,0.3l-1.2,0.2c-0.9,0.1-1.9,0.2-2.8,0.3l-0.8,0.1
		c-1.2,0.1-2.4,0.2-3.6,0.3l-0.9,0.1c-0.9,0.1-1.8,0.1-2.8,0.2l-1.2,0.1c-0.9,0-1.7,0.1-2.6,0.1l-1.1,0c-1.2,0-2.4,0-3.6,0
		c-25,0-48.9-5.7-71-17.1c-21.1-10.8-39.7-26.6-54-45.6c-0.7-1-1.5-2-2.2-3c-4.4-6.1-8.3-12.6-11.7-19.3c-0.6-1.1-1.1-2.2-1.7-3.4
		c-10.2-21.2-15.4-44-15.4-67.6c0-1.6,0-3.3,0.1-5.3c0-0.5,0-0.9,0.1-1.4c0.1-1.7,0.2-3.3,0.3-4.8l0-0.4c0.1-1.5,0.3-3.2,0.5-5.1
		l0.1-1.3c0.2-1.5,0.4-3.1,0.6-4.6l0.1-0.7c0.2-1.6,0.5-3.2,0.8-5l0.2-1.2c0.3-1.4,0.6-2.9,0.9-4.3l0.2-0.8c0.4-1.6,0.8-3.2,1.2-4.9
		l0.3-1.1c0.4-1.4,0.8-2.8,1.2-4.2l0.3-0.9c0.5-1.6,1-3.2,1.6-4.8l0.3-1c0.5-1.3,1-2.7,1.5-4.1l0.3-0.9c0.6-1.6,1.3-3.1,1.9-4.7
		l0.3-0.8c0.6-1.3,1.2-2.7,1.8-4l0.4-0.9c0.7-1.6,1.5-3.1,2.2-4.5l0.3-0.6c0.7-1.3,1.4-2.6,2.2-4l0.4-0.8c0.9-1.6,1.7-3,2.6-4.4
		l0.2-0.3c0.8-1.3,1.6-2.6,2.6-4l0.5-0.7c1.9-2.8,3.9-5.6,5.9-8.3l0.5-0.7c2.1-2.7,4.3-5.4,6.5-7.9l0.5-0.6c2.3-2.6,4.7-5.1,7.1-7.5
		l0.5-0.5c2.5-2.4,5.1-4.8,7.7-7l0.4-0.3c2.7-2.3,5.5-4.5,8.3-6.6l0.4-0.3c1.4-1,2.8-2,4.2-3l0.1-0.1c1.5-1,3-2,4.5-3l0.2-0.1
		c1.5-0.9,3-1.9,4.5-2.7l0.1-0.1c1.6-0.9,3.2-1.8,4.8-2.7l0.2-0.1c0.6-0.3,1.1-0.6,1.7-0.9c-0.1-1-0.2-2-0.3-3.1l-0.1-1
		c-0.1-0.7-0.1-1.4-0.2-2.1c0-0.5-0.1-1.1-0.1-1.7c0-0.6-0.1-1.2-0.1-1.8c0-0.7-0.1-1.5-0.1-2.2c0,0,0-1.1,0-1.4c0-1.2,0-2.4,0-3.6
		c0-43.1,17.2-83.2,48.4-112.9c0.9-0.9,1.8-1.7,2.7-2.6c4.6-4.2,9.5-8.1,14.6-11.7c4.1-2.9,8.3-5.6,12.7-8.1
		c4.4-2.5,8.9-4.8,13.5-6.9c8.1-3.7,16.6-6.7,25.2-8.9c2.5-0.6,5-1.2,7.5-1.7c10.3-2.1,20.8-3.2,31.4-3.2c2.7,0,5.4,0.1,8,0.2
		c2.6,0.1,5.3,0.3,7.9,0.6c5.2,0.5,10.4,1.3,15.5,2.4c2.5,0.5,5.1,1.1,7.6,1.7c1.2,0.3,2.5,0.7,3.7,1c7.7,2.2,15.3,5,22.6,8.4
		c3.8,1.7,7.5,3.7,11.2,5.7c4.8,2.7,9.4,5.7,13.8,8.8c1.5,1,3,2.2,4.7,3.5c1.6,1.2,3,2.3,4.2,3.3c1,0.8,1.9,1.6,2.9,2.4
		c4.7,4.1,9.2,8.5,13.4,13.1c1.5,1.6,3,3.4,4.5,5.2c1.3,1.6,2.7,3.3,4,5c2.9,3.8,5.6,7.8,8.2,11.8c1.2,1.9,2.2,3.6,3.1,5.2
		c0.6,1.1,1.2,2.2,1.8,3.3c1.8,3.3,3.5,6.7,5.1,10.2c0.5,1.1,1,2.3,1.5,3.5c1,2.3,1.9,4.7,2.8,7.1c0.9,2.4,1.7,4.8,2.5,7.2
		c0.6,2,1.2,4.1,1.8,6.4c1.1,4.1,2,8.3,2.7,12.4c0.5,2.6,0.9,5.2,1.2,7.7c0.3,2.6,0.6,5.2,0.8,7.9c0.3,4,0.5,8,0.5,12
		c0,1.2,0,2.5,0,3.7c0,0.3,0,1.4,0,1.4c0,0.8-0.1,1.5-0.1,2.2c0,0.6-0.1,1.2-0.1,1.8c0,0.6-0.1,1.1-0.1,1.7c0,0.7-0.1,1.4-0.2,2.1
		l-0.1,1c-0.1,1-0.2,2-0.3,3.1c0.6,0.3,1.2,0.6,1.7,0.9l0.2,0.1c1.5,0.8,3.1,1.7,4.7,2.6l0.2,0.1c1.4,0.8,2.9,1.7,4.4,2.7l0.3,0.2
		c1.4,0.9,2.7,1.8,4.1,2.7l0.2,0.1l0.4,0.3c1.3,0.9,2.7,1.9,4.1,2.9l0.4,0.3c2.8,2,5.6,4.2,8.2,6.5l0.4,0.4c2.6,2.2,5.2,4.6,7.7,7
		l0.5,0.4c2.5,2.4,4.9,4.9,7.1,7.5l0.5,0.6c2.2,2.5,4.4,5.2,6.5,7.9l0.5,0.7c2.1,2.7,4.1,5.5,5.9,8.3l0.5,0.7
		c0.9,1.4,1.8,2.7,2.6,4.1l0.1,0.2c0.9,1.4,1.7,2.8,2.6,4.4l0.5,0.8c0.8,1.4,1.5,2.7,2.2,4l0.3,0.5c0.7,1.4,1.5,3,2.2,4.5l0.4,0.9
		c0.6,1.3,1.2,2.7,1.8,4l0.3,0.7c0.7,1.6,1.3,3.1,1.9,4.7l0.3,0.9c0.5,1.3,1,2.7,1.5,4.1l0.3,1c0.6,1.6,1.1,3.2,1.6,4.8l0.3,0.9
		c0.4,1.4,0.8,2.8,1.2,4.1l0.3,1.1c0.5,1.7,0.9,3.3,1.2,4.9l0.2,0.8c0.3,1.4,0.6,2.9,0.9,4.3l0.2,1.2c0.3,1.8,0.6,3.4,0.9,5l0.1,0.7
		c0.2,1.4,0.4,2.9,0.6,4.5c0,0,0.1,0.9,0.2,1.3c0.2,1.8,0.4,3.5,0.5,5.1l0,0.4c0.1,1.5,0.2,3.1,0.3,4.8c0,0.5,0,0.9,0.1,1.4
		c0.1,2,0.1,3.7,0.1,5.2C1761,543.5,1691.1,613.4,1605.1,613.4z"/>
	<path class="st3" d="M1749,457.4c0-1.6,0-3.2-0.1-4.9c0-0.4,0-0.8,0-1.3c-0.1-1.5-0.1-3-0.2-4.5c0-0.1,0-0.3,0-0.4
		c-0.1-1.6-0.3-3.2-0.4-4.7c0-0.4-0.1-0.8-0.1-1.2c-0.2-1.4-0.3-2.8-0.5-4.2c0-0.2-0.1-0.4-0.1-0.6c-0.2-1.6-0.5-3.1-0.8-4.6
		c-0.1-0.4-0.1-0.8-0.2-1.1c-0.3-1.3-0.5-2.7-0.8-4c-0.1-0.2-0.1-0.5-0.2-0.7c-0.3-1.5-0.7-3-1.1-4.5c-0.1-0.3-0.2-0.7-0.3-1
		c-0.3-1.3-0.7-2.6-1.1-3.8c-0.1-0.3-0.2-0.5-0.2-0.8c-0.5-1.5-0.9-2.9-1.4-4.4c-0.1-0.3-0.2-0.6-0.3-0.9c-0.4-1.3-0.9-2.5-1.4-3.7
		c-0.1-0.3-0.2-0.5-0.3-0.8c-0.6-1.4-1.1-2.9-1.8-4.3c-0.1-0.2-0.2-0.5-0.3-0.7c-0.5-1.2-1.1-2.5-1.7-3.7c-0.1-0.3-0.2-0.5-0.4-0.8
		c-0.7-1.4-1.4-2.8-2.1-4.2c-0.1-0.2-0.2-0.3-0.3-0.5c-0.6-1.2-1.3-2.5-2-3.7c-0.1-0.3-0.3-0.5-0.4-0.8c-0.8-1.4-1.6-2.7-2.4-4.1
		c-0.1-0.1-0.1-0.2-0.2-0.2c-0.8-1.3-1.6-2.5-2.4-3.7c-0.2-0.2-0.3-0.5-0.5-0.7c-1.7-2.6-3.6-5.2-5.5-7.7c-0.2-0.2-0.3-0.4-0.5-0.6
		c-1.9-2.5-3.9-4.9-6-7.3c-0.2-0.2-0.3-0.3-0.5-0.5c-2.1-2.4-4.3-4.7-6.6-6.9c-0.1-0.1-0.3-0.3-0.4-0.4c-2.3-2.2-4.7-4.4-7.1-6.5
		c-0.1-0.1-0.3-0.2-0.4-0.3c-2.5-2.1-5-4.1-7.6-6c-0.1-0.1-0.2-0.2-0.3-0.2c-1.3-1-2.6-1.9-4-2.8c0,0,0,0,0,0
		c-1.4-0.9-2.8-1.9-4.2-2.7c-0.1-0.1-0.2-0.1-0.2-0.2c-1.4-0.9-2.7-1.7-4.1-2.5c0,0-0.1-0.1-0.1-0.1c-1.4-0.8-2.9-1.7-4.4-2.5
		c0,0-0.1,0-0.1-0.1c-1.4-0.8-2.9-1.5-4.3-2.2c-0.1,0-0.1-0.1-0.2-0.1c-1.5-0.7-3-1.5-4.6-2.1c0,0,0,0,0,0c0.6-3.7,1.1-7.4,1.4-11.1
		c0-0.3,0.1-0.6,0.1-1c0.1-0.6,0.1-1.3,0.1-1.9c0-0.5,0.1-1,0.1-1.6c0-0.5,0.1-1.1,0.1-1.6c0-0.7,0.1-1.4,0.1-2c0-0.4,0-0.9,0-1.3
		c0-1.1,0-2.3,0-3.4c0-3.7-0.1-7.4-0.4-11.1c-0.2-2.4-0.4-4.9-0.7-7.3c-0.3-2.4-0.7-4.8-1.1-7.1c-0.7-3.9-1.5-7.7-2.5-11.4
		c-0.5-2-1.1-4-1.7-5.9c-0.7-2.3-1.5-4.5-2.3-6.7c-0.8-2.2-1.7-4.4-2.6-6.5c-0.5-1.1-0.9-2.1-1.4-3.2c-1.4-3.2-3-6.3-4.7-9.4
		c-0.6-1-1.1-2-1.7-3c-0.9-1.6-1.9-3.2-2.9-4.8c-2.3-3.7-4.9-7.4-7.5-10.9c-1.2-1.6-2.4-3.1-3.7-4.7c-1.4-1.6-2.8-3.2-4.2-4.8
		c-3.9-4.3-8-8.3-12.4-12.1c-0.9-0.8-1.8-1.5-2.6-2.2c-1.3-1.1-2.6-2.1-3.9-3.1c-1.4-1.1-2.9-2.2-4.4-3.2c-4.1-2.9-8.4-5.6-12.8-8.1
		c-3.4-1.9-6.8-3.7-10.3-5.3c-6.7-3.1-13.7-5.7-20.8-7.7c-1.1-0.3-2.3-0.6-3.4-0.9c-2.3-0.6-4.6-1.1-7-1.6c-4.7-1-9.5-1.7-14.3-2.2
		c-2.4-0.2-4.9-0.4-7.3-0.6c-2.5-0.1-4.9-0.2-7.4-0.2c-9.9,0-19.6,1-29,2.9c-2.3,0.5-4.7,1-7,1.6c-8.1,2.1-15.8,4.8-23.3,8.2
		c-4.3,1.9-8.4,4-12.4,6.4s-7.9,4.8-11.7,7.5c-4.7,3.3-9.2,7-13.5,10.8c-0.9,0.8-1.7,1.6-2.5,2.4c-27.5,26.2-44.6,63.2-44.6,104.2
		c0,0,0,0,0,0c0,1.1,0,2.2,0,3.4c0,0.4,0,0.9,0,1.3c0,0.7,0,1.3,0.1,2c0,0.6,0.1,1.1,0.1,1.6c0,0.5,0.1,1,0.1,1.6
		c0,0.7,0.1,1.3,0.1,1.9c0,0.3,0.1,0.6,0.1,0.9c0.3,3.8,0.8,7.5,1.4,11.1c0,0,0,0,0,0c-1.5,0.7-3.1,1.4-4.6,2.1
		c-0.1,0-0.1,0.1-0.2,0.1c-1.5,0.7-2.9,1.5-4.3,2.2c0,0-0.1,0-0.1,0.1c-1.5,0.8-2.9,1.6-4.4,2.5c0,0-0.1,0-0.1,0.1
		c-1.4,0.8-2.8,1.7-4.1,2.5c-0.1,0-0.2,0.1-0.2,0.1c-1.4,0.9-2.8,1.8-4.2,2.7c0,0,0,0,0,0c-1.3,0.9-2.7,1.8-4,2.8
		c-0.1,0.1-0.2,0.2-0.3,0.2c-2.6,1.9-5.2,3.9-7.6,6c-0.1,0.1-0.3,0.2-0.4,0.3c-2.4,2.1-4.8,4.3-7.1,6.5c-0.1,0.1-0.3,0.3-0.4,0.4
		c-2.3,2.2-4.5,4.5-6.6,6.9c-0.2,0.2-0.3,0.3-0.5,0.5c-2.1,2.4-4.1,4.8-6,7.3c-0.2,0.2-0.3,0.4-0.5,0.6c-1.9,2.5-3.7,5.1-5.5,7.7
		c-0.2,0.2-0.3,0.5-0.5,0.7c-0.8,1.2-1.6,2.5-2.4,3.7c0,0.1-0.1,0.2-0.1,0.2c-0.8,1.3-1.6,2.7-2.4,4.1c-0.1,0.2-0.3,0.5-0.4,0.8
		c-0.7,1.2-1.4,2.5-2,3.7c-0.1,0.2-0.2,0.3-0.3,0.5c-0.7,1.4-1.4,2.8-2.1,4.2c-0.1,0.3-0.2,0.5-0.4,0.8c-0.6,1.2-1.1,2.5-1.7,3.7
		c-0.1,0.2-0.2,0.5-0.3,0.7c-0.6,1.4-1.2,2.9-1.8,4.3c-0.1,0.3-0.2,0.5-0.3,0.8c-0.5,1.2-0.9,2.5-1.4,3.8c-0.1,0.3-0.2,0.6-0.3,0.9
		c-0.5,1.5-1,2.9-1.4,4.4c-0.1,0.3-0.2,0.5-0.2,0.8c-0.4,1.3-0.7,2.6-1.1,3.8c-0.1,0.3-0.2,0.7-0.3,1c-0.4,1.5-0.8,3-1.1,4.5
		c-0.1,0.2-0.1,0.5-0.2,0.7c-0.3,1.3-0.6,2.6-0.8,4c-0.1,0.4-0.1,0.7-0.2,1.1c-0.3,1.5-0.5,3.1-0.8,4.6c0,0.2-0.1,0.4-0.1,0.6
		c-0.2,1.4-0.4,2.8-0.5,4.2c0,0.4-0.1,0.8-0.1,1.2c-0.2,1.6-0.3,3.2-0.4,4.8c0,0.1,0,0.3,0,0.4c-0.1,1.5-0.2,3-0.3,4.5
		c0,0.4,0,0.8,0,1.3c-0.1,1.6-0.1,3.2-0.1,4.9v0l0,0c0,22.4,5.1,43.5,14.2,62.4c0.5,1,1,2.1,1.6,3.1c3.2,6.2,6.8,12.2,10.8,17.8
		c0.7,0.9,1.3,1.9,2,2.8c26.3,35.1,68.2,57.8,115.4,57.8c1.1,0,2.3,0,3.4,0c0.3,0,0.7,0,1,0c0.8,0,1.6-0.1,2.4-0.1
		c0.4,0,0.7,0,1.1-0.1c0.8,0,1.7-0.1,2.5-0.2c0.3,0,0.5,0,0.8-0.1c1.1-0.1,2.2-0.2,3.3-0.3c0.2,0,0.5-0.1,0.7-0.1
		c0.9-0.1,1.7-0.2,2.6-0.3c0.4,0,0.7-0.1,1.1-0.1c0.8-0.1,1.5-0.2,2.3-0.3c0.3-0.1,0.7-0.1,1-0.2c1-0.2,1.9-0.3,2.9-0.5
		c0.1,0,0.2,0,0.3-0.1c1.1-0.2,2.1-0.4,3.2-0.6c0.3-0.1,0.6-0.1,0.9-0.2c0.8-0.2,1.5-0.3,2.3-0.5c0.4-0.1,0.7-0.2,1.1-0.2
		c0.8-0.2,1.5-0.4,2.3-0.6c0.3-0.1,0.6-0.1,0.9-0.2c1-0.3,2.1-0.5,3.1-0.8c0.2-0.1,0.4-0.1,0.5-0.2c0.9-0.2,1.7-0.5,2.6-0.8
		c0.3-0.1,0.7-0.2,1-0.3c0.7-0.2,1.4-0.5,2.1-0.7c0.3-0.1,0.7-0.2,1-0.3c0.8-0.3,1.7-0.6,2.5-0.9c0.2-0.1,0.4-0.1,0.5-0.2
		c1-0.4,2-0.7,3-1.1c0.3-0.1,0.5-0.2,0.8-0.3c0.7-0.3,1.4-0.6,2.2-0.9c0.3-0.1,0.7-0.3,1-0.4c0.7-0.3,1.4-0.6,2.1-0.9
		c0.3-0.1,0.6-0.3,0.9-0.4c1-0.4,1.9-0.9,2.9-1.3c0.1-0.1,0.2-0.1,0.3-0.2c0.8-0.4,1.7-0.8,2.5-1.2c0.3-0.2,0.6-0.3,0.9-0.5
		c0.7-0.3,1.3-0.7,2-1c0.3-0.2,0.6-0.3,0.9-0.5c0.7-0.4,1.4-0.8,2.2-1.2c0.2-0.1,0.4-0.2,0.6-0.3c0.9-0.5,1.8-1.1,2.7-1.6
		c0.2-0.1,0.5-0.3,0.7-0.4c0.7-0.4,1.3-0.8,2-1.3c0.3-0.2,0.6-0.4,0.9-0.6c0.6-0.4,1.2-0.8,1.9-1.2c0.3-0.2,0.5-0.4,0.8-0.5
		c0.9-0.6,1.7-1.2,2.6-1.8c0,0,0,0,0,0c0,0,0,0,0,0c0.8,0.6,1.7,1.2,2.6,1.8c0.3,0.2,0.5,0.4,0.8,0.5c0.6,0.4,1.2,0.8,1.9,1.2
		c0.3,0.2,0.6,0.4,0.9,0.6c0.7,0.4,1.3,0.8,2,1.2c0.2,0.1,0.5,0.3,0.7,0.4c0.9,0.5,1.8,1.1,2.7,1.6c0.2,0.1,0.4,0.2,0.6,0.3
		c0.7,0.4,1.4,0.8,2.2,1.2c0.3,0.2,0.6,0.3,0.9,0.5c0.6,0.3,1.3,0.7,2,1c0.3,0.2,0.6,0.3,0.9,0.5c0.8,0.4,1.7,0.8,2.5,1.2
		c0.1,0.1,0.2,0.1,0.4,0.2c0.9,0.5,1.9,0.9,2.9,1.3c0.3,0.1,0.6,0.3,0.9,0.4c0.7,0.3,1.4,0.6,2.1,0.9c0.3,0.1,0.7,0.3,1,0.4
		c0.7,0.3,1.4,0.6,2.2,0.9c0.3,0.1,0.6,0.2,0.8,0.3c1,0.4,2,0.8,3,1.1c0.2,0.1,0.4,0.1,0.5,0.2c0.8,0.3,1.7,0.6,2.5,0.9
		c0.3,0.1,0.7,0.2,1,0.3c0.7,0.2,1.4,0.5,2.1,0.7c0.3,0.1,0.7,0.2,1,0.3c0.8,0.3,1.7,0.5,2.6,0.8c0.2,0.1,0.4,0.1,0.5,0.2
		c1,0.3,2.1,0.6,3.1,0.8c0.3,0.1,0.6,0.1,0.9,0.2c0.8,0.2,1.5,0.4,2.3,0.6c0.4,0.1,0.7,0.2,1.1,0.2c0.8,0.2,1.5,0.3,2.3,0.5
		c0.3,0.1,0.6,0.1,0.9,0.2c1.1,0.2,2.1,0.4,3.2,0.6c0.1,0,0.2,0,0.3,0.1c1,0.2,1.9,0.3,2.9,0.5c0.3,0.1,0.7,0.1,1,0.2
		c0.8,0.1,1.5,0.2,2.3,0.3c0.4,0,0.7,0.1,1.1,0.1c0.9,0.1,1.7,0.2,2.6,0.3c0.2,0,0.5,0.1,0.7,0.1c1.1,0.1,2.2,0.2,3.3,0.3
		c0.3,0,0.5,0,0.8,0.1c0.8,0.1,1.7,0.1,2.5,0.2c0.4,0,0.7,0,1.1,0.1c0.8,0,1.6,0.1,2.4,0.1c0.3,0,0.7,0,1,0c1.1,0,2.2,0,3.4,0
		C1684.6,601.4,1749,537,1749,457.4C1749,457.4,1749,457.4,1749,457.4z"/>
	<g>
		<g>
			
				<linearGradient id="SVGID_00000163067861668402804160000010636028640374874558_" gradientUnits="userSpaceOnUse" x1="1315.6472" y1="527.2468" x2="1466.8623" y2="441.2433">
				<stop  offset="0" style="stop-color:#FFFFFF"/>
				<stop  offset="1.097125e-02" style="stop-color:#FFFFFD"/>
				<stop  offset="0.2284" style="stop-color:#FFFED3"/>
				<stop  offset="0.4409" style="stop-color:#FFFEB3"/>
				<stop  offset="0.6443" style="stop-color:#FFFD9C"/>
				<stop  offset="0.8351" style="stop-color:#FFFD8E"/>
				<stop  offset="1" style="stop-color:#FFFD89"/>
			</linearGradient>
			<path style="fill:url(#SVGID_00000163067861668402804160000010636028640374874558_);" d="M1461.1,457.4c0-8.2,0.7-16.1,2-23.9
				c-43.3-19.3-75.3-59.4-83.3-107.6c-50.3,22.5-85.3,72.9-85.3,131.5c0,79.5,64.5,144,144,144c31.1,0,59.8-9.8,83.3-26.6
				C1485,548.8,1461.1,505.9,1461.1,457.4z"/>
			
				<linearGradient id="SVGID_00000011000702280245833590000013591707535520330929_" gradientUnits="userSpaceOnUse" x1="1734.5887" y1="518.5993" x2="1582.4286" y2="446.7721">
				<stop  offset="0" style="stop-color:#FFFFFF"/>
				<stop  offset="0.1358" style="stop-color:#CEEEFF"/>
				<stop  offset="0.294" style="stop-color:#9BDCFF"/>
				<stop  offset="0.4505" style="stop-color:#72CDFF"/>
				<stop  offset="0.6019" style="stop-color:#51C2FF"/>
				<stop  offset="0.7468" style="stop-color:#3ABAFF"/>
				<stop  offset="0.8826" style="stop-color:#2CB5FF"/>
				<stop  offset="1" style="stop-color:#27B3FF"/>
			</linearGradient>
			<path style="fill:url(#SVGID_00000011000702280245833590000013591707535520330929_);" d="M1663.7,325.9
				c-8.1,48.2-40.1,88.3-83.3,107.6c1.3,7.8,2,15.8,2,23.9c0,48.5-23.9,91.3-60.6,117.4c23.5,16.7,52.3,26.6,83.3,26.6
				c79.5,0,144-64.5,144-144C1749,398.8,1714,348.4,1663.7,325.9z"/>
			<path class="st2" d="M1582.3,457.4c0-8.2-0.7-16.1-2-23.9c-17.9,8-37.8,12.5-58.6,12.5s-40.7-4.5-58.6-12.5
				c-1.3,7.8-2,15.8-2,23.9c0,48.5,23.9,91.3,60.6,117.4C1558.4,548.8,1582.3,505.9,1582.3,457.4z"/>
			
				<linearGradient id="SVGID_00000154427272384021989500000017340262739178440590_" gradientUnits="userSpaceOnUse" x1="1521.7084" y1="156.2974" x2="1521.7084" y2="337.8441">
				<stop  offset="0" style="stop-color:#FFFFFF"/>
				<stop  offset="0.1125" style="stop-color:#F9D8E4"/>
				<stop  offset="0.2749" style="stop-color:#F0A5C2"/>
				<stop  offset="0.4356" style="stop-color:#E97CA6"/>
				<stop  offset="0.5911" style="stop-color:#E45B90"/>
				<stop  offset="0.74" style="stop-color:#E04480"/>
				<stop  offset="0.8794" style="stop-color:#DE3676"/>
				<stop  offset="1" style="stop-color:#DD3173"/>
			</linearGradient>
			<path style="fill:url(#SVGID_00000154427272384021989500000017340262739178440590_);" d="M1521.7,340
				c23.5-16.7,52.3-26.6,83.3-26.6c20.9,0,40.7,4.5,58.6,12.5c1.3-7.8,2-15.8,2-23.9c0-79.5-64.5-144-144-144s-144,64.5-144,144
				c0,8.2,0.7,16.1,2,23.9c17.9-8,37.8-12.5,58.6-12.5C1469.4,313.5,1498.2,323.3,1521.7,340z"/>
			<path class="st28" d="M1463.1,433.5c6.4-38.5,28.1-71.8,58.6-93.5c-23.5-16.7-52.3-26.6-83.3-26.6c-20.9,0-40.7,4.5-58.6,12.5
				C1387.8,374.1,1419.8,414.2,1463.1,433.5z"/>
			<path class="st5" d="M1521.7,340c30.5,21.7,52.2,55,58.6,93.5c43.3-19.3,75.3-59.4,83.3-107.6c-17.9-8-37.8-12.5-58.6-12.5
				C1574,313.5,1545.2,323.3,1521.7,340z"/>
			<path class="st7" d="M1521.7,340c-30.5,21.7-52.2,55-58.6,93.5c17.9,8,37.8,12.5,58.6,12.5s40.7-4.5,58.6-12.5
				C1573.9,395,1552.2,361.7,1521.7,340z"/>
		</g>
		<path class="st6" d="M1438.4,605.4c-81.6,0-148-66.4-148-148s66.4-148,148-148s148,66.4,148,148S1520,605.4,1438.4,605.4z
			 M1438.4,317.5c-77.2,0-140,62.8-140,140s62.8,140,140,140s140-62.8,140-140S1515.6,317.5,1438.4,317.5z"/>
		<path class="st6" d="M1605.1,605.4c-81.6,0-148-66.4-148-148s66.4-148,148-148s148,66.4,148,148S1686.7,605.4,1605.1,605.4z
			 M1605.1,317.5c-77.2,0-140,62.8-140,140s62.8,140,140,140s140-62.8,140-140S1682.2,317.5,1605.1,317.5z"/>
		<path class="st6" d="M1521.7,450c-81.6,0-148-66.4-148-148s66.4-148,148-148s148,66.4,148,148S1603.3,450,1521.7,450z M1521.7,162
			c-77.2,0-140,62.8-140,140s62.8,140,140,140s140-62.8,140-140S1598.9,162,1521.7,162z"/>
	</g>
</g>
<g>
	<g>
		
			<radialGradient id="SVGID_00000091694616393179056160000000131423642651927199_" cx="939.6733" cy="207.0563" r="213.058" gradientTransform="matrix(1 5.429231e-04 -3.076189e-04 0.5666 6.377442e-02 89.2285)" gradientUnits="userSpaceOnUse">
			<stop  offset="0.6834" style="stop-color:#FFFFFF"/>
			<stop  offset="1" style="stop-color:#B4E0E9"/>
		</radialGradient>
		<path style="fill:url(#SVGID_00000091694616393179056160000000131423642651927199_);" d="M939.7,312
			C790.6,312,712,207.1,712,207.1s95.5-104.9,227.7-104.9s227.7,104.9,227.7,104.9S1088.7,312,939.7,312z"/>
		<g>
			
				<radialGradient id="SVGID_00000104700307559969990390000016480212439571871620_" cx="939.6733" cy="207.0563" r="101.6415" gradientUnits="userSpaceOnUse">
				<stop  offset="0.5611" style="stop-color:#A28DE6"/>
				<stop  offset="1" style="stop-color:#C4889C"/>
			</radialGradient>
			<circle style="fill:url(#SVGID_00000104700307559969990390000016480212439571871620_);" cx="939.7" cy="207.1" r="101.6"/>
			<path class="st5" d="M939.7,105.4c56.1,0,101.6,45.5,101.6,101.6s-45.5,101.6-101.6,101.6c-56.1,0-101.6-45.5-101.6-101.6
				S883.5,105.4,939.7,105.4 M939.7,97.4c-29.3,0-56.8,11.4-77.5,32.1c-20.7,20.7-32.1,48.2-32.1,77.5s11.4,56.8,32.1,77.5
				c20.7,20.7,48.2,32.1,77.5,32.1s56.8-11.4,77.5-32.1c20.7-20.7,32.1-48.2,32.1-77.5s-11.4-56.8-32.1-77.5
				C996.5,108.8,969,97.4,939.7,97.4L939.7,97.4z"/>
		</g>
		<g>
			
				<linearGradient id="SVGID_00000005960211125486388150000000937182710825496968_" gradientUnits="userSpaceOnUse" x1="939.6733" y1="298.1443" x2="939.6733" y2="206.3952">
				<stop  offset="0" style="stop-color:#27B3FF"/>
				<stop  offset="1" style="stop-color:#003E61"/>
			</linearGradient>
			<circle style="fill:url(#SVGID_00000005960211125486388150000000937182710825496968_);" cx="939.7" cy="207.1" r="55"/>
			<path class="st17" d="M939.7,152.1c30.4,0,55,24.6,55,55s-24.6,55-55,55c-30.4,0-55-24.6-55-55S909.3,152.1,939.7,152.1
				 M939.7,150.1c-31.4,0-57,25.6-57,57s25.6,57,57,57c31.4,0,57-25.6,57-57S971.1,150.1,939.7,150.1L939.7,150.1z"/>
		</g>
	</g>
	<g>
		<path class="st3" d="M950.2,102.7h-21.1V10.5c0-5.8,4.7-10.5,10.5-10.5h0c5.8,0,10.5,4.7,10.5,10.5V102.7z"/>
		<path class="st3" d="M989.9,106.3l19.5,3.7l15.4-86.4c1-5.4-2.5-10.6-7.9-11.6l0,0c-5.4-1-10.6,2.5-11.6,7.9L989.9,106.3z"/>
		<path class="st3" d="M1045.4,124l18,7.5l33.6-76.1c2.1-5-0.3-10.7-5.3-12.7v0c-5-2.1-10.7,0.3-12.7,5.3L1045.4,124z"/>
		<path class="st3" d="M1098.4,150.6l16.4,11.2l41.6-63.9c3.1-4.5,1.9-10.7-2.6-13.8v0c-4.5-3.1-10.7-1.9-13.8,2.6L1098.4,150.6z"/>
		<path class="st3" d="M1148.2,188.2l14.9,14.9l45.6-51c4.1-4.1,4.1-10.8,0-14.9v0c-4.1-4.1-10.8-4.1-14.9,0L1148.2,188.2z"/>
		<path class="st3" d="M887,108.3l-19.5,3.7L851,23.6c-1-5.4,2.5-10.6,7.9-11.6v0c5.4-1,10.6,2.5,11.6,7.9L887,108.3z"/>
		<path class="st3" d="M832.4,124l-17,8.5l-36.6-77.1c-2.1-5,0.3-10.7,5.3-12.7v0c5-2.1,10.7,0.3,12.7,5.3L832.4,124z"/>
		<path class="st3" d="M780.5,150.6l-16.4,11.2l-44.6-63.9c-3.1-4.5-1.9-10.7,2.6-13.8l0,0c4.5-3.1,10.7-1.9,13.8,2.6L780.5,150.6z"
			/>
		<path class="st3" d="M729.6,188.2l-14.9,14.9l-47.6-51c-4.1-4.1-4.1-10.8,0-14.9v0c4.1-4.1,10.8-4.1,14.9,0L729.6,188.2z"/>
	</g>
	<path class="st7" d="M738.3,232.7c-17.8-13.5-26.8-25.6-26.8-25.6s9.7-10.7,26.6-23.1c0,0-4.2,8.3-4.2,23.1
		S738.3,232.7,738.3,232.7z"/>
	<path class="st7" d="M1140.3,231.9c17.1-13.1,25.9-24.8,25.9-24.8s-9.4-10.3-25.7-22.4c0,0,4,8,4,22.4S1140.3,231.9,1140.3,231.9z"
		/>
	<path class="st7" d="M1129.4,242.3c24.4-18.5,36.8-35.2,36.8-35.2s-13.3-14.6-36.6-31.8c0,0,5.7,11.4,5.7,31.8
		S1129.4,242.3,1129.4,242.3z"/>
	<g>
		<path class="st28" d="M939.7,139.9c-0.6,0-1-0.4-1-1v-25.2c0-0.6,0.4-1,1-1s1,0.4,1,1v25.2C940.7,139.4,940.2,139.9,939.7,139.9z"
			/>
		<path class="st28" d="M939.7,301.5c-0.6,0-1-0.4-1-1v-25.2c0-0.6,0.4-1,1-1s1,0.4,1,1v25.2C940.7,301,940.2,301.5,939.7,301.5z"/>
		<path class="st28" d="M1033.1,208.1h-25.2c-0.6,0-1-0.4-1-1s0.4-1,1-1h25.2c0.6,0,1,0.4,1,1S1033.6,208.1,1033.1,208.1z"/>
		<path class="st28" d="M871.5,208.1h-25.2c-0.6,0-1-0.4-1-1s0.4-1,1-1h25.2c0.6,0,1,0.4,1,1S872,208.1,871.5,208.1z"/>
		<path class="st28" d="M987.8,159.7c-0.3,0-0.5-0.1-0.7-0.3c-0.4-0.4-0.4-1,0-1.4l17.8-17.8c0.4-0.4,1-0.4,1.4,0s0.4,1,0,1.4
			l-17.8,17.8C988.3,159.6,988,159.7,987.8,159.7z"/>
		<path class="st28" d="M873.5,274c-0.3,0-0.5-0.1-0.7-0.3c-0.4-0.4-0.4-1,0-1.4l17.8-17.8c0.4-0.4,1-0.4,1.4,0s0.4,1,0,1.4
			l-17.8,17.8C874,273.9,873.8,274,873.5,274z"/>
		<path class="st28" d="M1005.6,274c-0.3,0-0.5-0.1-0.7-0.3l-17.8-17.8c-0.4-0.4-0.4-1,0-1.4s1-0.4,1.4,0l17.8,17.8
			c0.4,0.4,0.4,1,0,1.4C1006.1,273.9,1005.9,274,1005.6,274z"/>
		<path class="st28" d="M891.4,159.7c-0.3,0-0.5-0.1-0.7-0.3l-17.8-17.8c-0.4-0.4-0.4-1,0-1.4s1-0.4,1.4,0l17.8,17.8
			c0.4,0.4,0.4,1,0,1.4C891.9,159.6,891.6,159.7,891.4,159.7z"/>
		<path class="st28" d="M965.7,145c-0.1,0-0.3,0-0.4-0.1c-0.5-0.2-0.8-0.8-0.5-1.3l9.7-23.3c0.2-0.5,0.8-0.8,1.3-0.5
			c0.5,0.2,0.8,0.8,0.5,1.3l-9.7,23.3C966.5,144.8,966.1,145,965.7,145z"/>
		<path class="st28" d="M903.4,294.1c-0.1,0-0.3,0-0.4-0.1c-0.5-0.2-0.8-0.8-0.5-1.3l9.7-23.3c0.2-0.5,0.8-0.8,1.3-0.5
			c0.5,0.2,0.8,0.8,0.5,1.3l-9.7,23.3C904.2,293.9,903.8,294.1,903.4,294.1z"/>
		<path class="st28" d="M1025.6,244c-0.1,0-0.3,0-0.4-0.1l-23.3-9.7c-0.5-0.2-0.8-0.8-0.5-1.3c0.2-0.5,0.8-0.8,1.3-0.5l23.3,9.7
			c0.5,0.2,0.8,0.8,0.5,1.3C1026.4,243.7,1026,244,1025.6,244z"/>
		<path class="st28" d="M876.5,181.7c-0.1,0-0.3,0-0.4-0.1l-23.3-9.7c-0.5-0.2-0.8-0.8-0.5-1.3c0.2-0.5,0.8-0.8,1.3-0.5l23.3,9.7
			c0.5,0.2,0.8,0.8,0.5,1.3C877.3,181.4,876.9,181.7,876.5,181.7z"/>
		<path class="st28" d="M1002.5,181.9c-0.4,0-0.8-0.2-0.9-0.6c-0.2-0.5,0-1.1,0.5-1.3l23.3-9.6c0.5-0.2,1.1,0,1.3,0.5
			c0.2,0.5,0,1.1-0.5,1.3l-23.3,9.6C1002.7,181.9,1002.6,181.9,1002.5,181.9z"/>
		<path class="st28" d="M853,243.3c-0.4,0-0.8-0.2-0.9-0.6c-0.2-0.5,0-1.1,0.5-1.3l23.3-9.6c0.5-0.2,1.1,0,1.3,0.5
			c0.2,0.5,0,1.1-0.5,1.3l-23.3,9.6C853.3,243.3,853.1,243.3,853,243.3z"/>
		<path class="st28" d="M974.9,294.2c-0.4,0-0.8-0.2-0.9-0.6l-9.6-23.3c-0.2-0.5,0-1.1,0.5-1.3c0.5-0.2,1.1,0,1.3,0.5l9.6,23.3
			c0.2,0.5,0,1.1-0.5,1.3C975.1,294.2,975,294.2,974.9,294.2z"/>
		<path class="st28" d="M913.5,144.7c-0.4,0-0.8-0.2-0.9-0.6l-9.6-23.3c-0.2-0.5,0-1.1,0.5-1.3c0.5-0.2,1.1,0,1.3,0.5l9.6,23.3
			c0.2,0.5,0,1.1-0.5,1.3C913.7,144.7,913.6,144.7,913.5,144.7z"/>
		<path class="st28" d="M953.4,141.2c-0.1,0-0.1,0-0.2,0c-0.5-0.1-0.9-0.6-0.8-1.2l5.1-24.7c0.1-0.5,0.6-0.9,1.2-0.8
			c0.5,0.1,0.9,0.6,0.8,1.2l-5.1,24.7C954.3,140.9,953.9,141.2,953.4,141.2z"/>
		<path class="st28" d="M920.7,299.5c-0.1,0-0.1,0-0.2,0c-0.5-0.1-0.9-0.6-0.8-1.2l5.1-24.7c0.1-0.5,0.6-0.9,1.2-0.8
			c0.5,0.1,0.9,0.6,0.8,1.2l-5.1,24.7C921.6,299.2,921.2,299.5,920.7,299.5z"/>
		<path class="st28" d="M1031.1,226.9c-0.1,0-0.1,0-0.2,0l-24.7-5.1c-0.5-0.1-0.9-0.6-0.8-1.2c0.1-0.5,0.6-0.9,1.2-0.8l24.7,5.1
			c0.5,0.1,0.9,0.6,0.8,1.2C1032,226.6,1031.6,226.9,1031.1,226.9z"/>
		<path class="st28" d="M872.9,194.2c-0.1,0-0.1,0-0.2,0l-24.7-5.1c-0.5-0.1-0.9-0.6-0.8-1.2c0.1-0.5,0.6-0.9,1.2-0.8l24.7,5.1
			c0.5,0.1,0.9,0.6,0.8,1.2C873.7,193.9,873.3,194.2,872.9,194.2z"/>
		<path class="st28" d="M996.5,170.4c-0.3,0-0.6-0.2-0.8-0.5c-0.3-0.5-0.2-1.1,0.3-1.4l21.1-13.9c0.5-0.3,1.1-0.2,1.4,0.3
			c0.3,0.5,0.2,1.1-0.3,1.4l-21.1,13.9C996.9,170.4,996.7,170.4,996.5,170.4z"/>
		<path class="st28" d="M861.5,259.2c-0.3,0-0.6-0.2-0.8-0.5c-0.3-0.5-0.2-1.1,0.3-1.4l21.1-13.9c0.5-0.3,1.1-0.2,1.4,0.3
			s0.2,1.1-0.3,1.4L862.1,259C861.9,259.1,861.7,259.2,861.5,259.2z"/>
		<path class="st28" d="M990.9,285.9c-0.3,0-0.6-0.2-0.8-0.5l-13.9-21.1c-0.3-0.5-0.2-1.1,0.3-1.4c0.5-0.3,1.1-0.2,1.4,0.3
			l13.9,21.1c0.3,0.5,0.2,1.1-0.3,1.4C991.3,285.9,991.1,285.9,990.9,285.9z"/>
		<path class="st28" d="M902.1,150.9c-0.3,0-0.6-0.2-0.8-0.5l-13.9-21.1c-0.3-0.5-0.2-1.1,0.3-1.4c0.5-0.3,1.1-0.2,1.4,0.3
			l13.9,21.1c0.3,0.5,0.2,1.1-0.3,1.4C902.5,150.8,902.3,150.9,902.1,150.9z"/>
		<path class="st28" d="M977.9,151.6c-0.2,0-0.4-0.1-0.6-0.2c-0.5-0.3-0.6-0.9-0.3-1.4l14.2-20.8c0.3-0.5,0.9-0.6,1.4-0.3
			c0.5,0.3,0.6,0.9,0.3,1.4l-14.2,20.8C978.5,151.4,978.2,151.6,977.9,151.6z"/>
		<path class="st28" d="M886.7,285c-0.2,0-0.4-0.1-0.6-0.2c-0.5-0.3-0.6-0.9-0.3-1.4l14.2-20.8c0.3-0.5,0.9-0.6,1.4-0.3
			c0.5,0.3,0.6,0.9,0.3,1.4l-14.2,20.8C887.4,284.9,887.1,285,886.7,285z"/>
		<path class="st28" d="M1016.5,260.6c-0.2,0-0.4-0.1-0.6-0.2l-20.8-14.2c-0.5-0.3-0.6-0.9-0.3-1.4c0.3-0.5,0.9-0.6,1.4-0.3
			l20.8,14.2c0.5,0.3,0.6,0.9,0.3,1.4C1017.2,260.4,1016.9,260.6,1016.5,260.6z"/>
		<path class="st28" d="M883.1,169.4c-0.2,0-0.4-0.1-0.6-0.2L861.7,155c-0.5-0.3-0.6-0.9-0.3-1.4c0.3-0.5,0.9-0.6,1.4-0.3l20.8,14.2
			c0.5,0.3,0.6,0.9,0.3,1.4C883.8,169.3,883.4,169.4,883.1,169.4z"/>
		<path class="st28" d="M1006.4,195.1c-0.5,0-0.9-0.3-1-0.8c-0.1-0.5,0.3-1.1,0.8-1.2l24.8-4.7c0.5-0.1,1.1,0.3,1.2,0.8
			c0.1,0.5-0.3,1.1-0.8,1.2l-24.8,4.7C1006.6,195.1,1006.5,195.1,1006.4,195.1z"/>
		<path class="st28" d="M847.6,225c-0.5,0-0.9-0.3-1-0.8c-0.1-0.5,0.3-1.1,0.8-1.2l24.8-4.7c0.5-0.1,1.1,0.3,1.2,0.8
			c0.1,0.5-0.3,1.1-0.8,1.2l-24.8,4.7C847.8,225,847.7,225,847.6,225z"/>
		<path class="st28" d="M956.7,299.5c-0.5,0-0.9-0.3-1-0.8l-4.7-24.8c-0.1-0.5,0.3-1.1,0.8-1.2c0.5-0.1,1.1,0.3,1.2,0.8l4.7,24.8
			c0.1,0.5-0.3,1.1-0.8,1.2C956.8,299.5,956.8,299.5,956.7,299.5z"/>
		<path class="st28" d="M926.8,140.7c-0.5,0-0.9-0.3-1-0.8l-4.7-24.8c-0.1-0.5,0.3-1.1,0.8-1.2c0.5-0.1,1.1,0.3,1.2,0.8l4.7,24.8
			c0.1,0.5-0.3,1.1-0.8,1.2C926.9,140.7,926.9,140.7,926.8,140.7z"/>
	</g>
	<circle class="st32" cx="993.1" cy="196.6" r="20.7"/>
	<path class="st3" d="M939.7,318c-78.5,0-137.5-29.1-173.1-53.5c-38.7-26.5-58.5-52.7-59.4-53.8c-1.7-2.3-1.6-5.5,0.4-7.6
		c1-1.1,24.9-27.1,65.4-53.5c37.5-24.4,96.9-53.4,166.7-53.4s129.1,29.1,166.7,53.4c40.6,26.3,64.4,52.4,65.4,53.5
		c1.9,2.1,2.1,5.3,0.4,7.6c-0.8,1.1-20.7,27.3-59.4,53.8C1077.2,288.9,1018.2,318,939.7,318z M720,207.4c7,8.2,25.1,27.9,53.7,47.4
		c34.2,23.3,90.7,51.1,165.9,51.1c75.2,0,131.8-27.8,165.9-51.1c28.6-19.5,46.8-39.2,53.7-47.4c-8-8.1-29.2-28.1-59.8-48
		c-36.1-23.4-93.2-51.3-159.9-51.3S815.9,136,779.8,159.4C749.2,179.3,728,199.3,720,207.4z"/>
</g>
<g>
	<path class="st3" d="M497.2,1476.5H422c-2.8,0-5.7-0.3-8.5-0.9l-373.5-4c-22.3-0.2-40.3-18.6-40.1-40.9l1.2-115.4
		c0.2-22.1,18.4-40.1,40.5-40.1l59.5,0.6l-45.4-25.5c-22.8-12.9-30.7-41.9-17.9-64.6l50.2-88.5c8.4-14.8,24.2-24,41.2-24
		c8.1,0,16.2,2.1,23.3,6.2l54,30.3l-31.7-52.8c-6.5-10.9-8.3-23.7-5.2-35.9c3.1-12.3,10.8-22.6,21.7-29l87.5-51.9
		c7.3-4.3,15.7-6.6,24.1-6.6c16.6,0,32.3,8.9,40.7,23.2l37.7,62.7v-79.9c0-22.3,18.2-40.5,40.5-40.5h115.4
		c22.3,0,40.5,18.2,40.5,40.5V1313c0.6,2.8,0.8,5.6,0.8,8.5l-0.8,75.2v39.3c0,11-4.3,21.3-12.2,29c-7.7,7.7-17.8,11.9-28.7,11.9
		C537,1476.9,497.2,1476.5,497.2,1476.5z"/>
	<path class="st3" d="M566.7,1321.3c0-2.4-0.3-4.8-0.8-7V939.5c0-15.7-12.8-28.5-28.5-28.5H422c-15.7,0-28.5,12.8-28.5,28.5v123.2
		l-60-99.9c-10-16.8-31.6-22.3-48.4-12.4l-87.5,51.9c-16.8,10-22.3,31.6-12.4,48.4l55,91.6l-93.5-52.4c-17-9.6-38.5-3.7-48.2,13.3
		l-50.2,88.5c-9.6,17-3.7,38.5,13.3,48.2l86.4,48.4l-106-1.1c-15.7-0.2-28.6,12.5-28.8,28.2L12,1430.8
		c-0.2,15.7,12.5,28.6,28.2,28.8l374.8,4c2.2,0.6,4.6,0.9,7,0.9h75.3l39.4,0.4c8,0.1,15.3-3.2,20.6-8.5c5.3-5.2,8.7-12.4,8.7-20.5
		v-39.4L566.7,1321.3z"/>
	<g>
		<g>
			
				<linearGradient id="SVGID_00000027585916828191577980000011521323654354587051_" gradientUnits="userSpaceOnUse" x1="16.3916" y1="1376.0911" x2="549.9465" y2="1376.0911">
				<stop  offset="0.4237" style="stop-color:#FFFFFF"/>
				<stop  offset="1" style="stop-color:#B8D0D9"/>
			</linearGradient>
			<path style="fill:url(#SVGID_00000027585916828191577980000011521323654354587051_);" d="M565.5,1436.7l1.2-115.4
				c0.2-15.7-12.5-28.6-28.2-28.8L42,1287.2c-15.7-0.2-28.6,12.5-28.8,28.2L12,1430.8c-0.2,15.7,12.5,28.6,28.2,28.8l496.5,5.3
				C552.4,1465.1,565.3,1452.5,565.5,1436.7z"/>
			<path class="st10" d="M537,1468.9c-0.1,0-0.2,0-0.4,0l-496.5-5.3c-17.9-0.2-32.3-14.9-32.2-32.9l1.2-115.4
				c0.1-8.7,3.6-16.8,9.8-22.9c6.2-6.1,14.4-9.4,23.1-9.3l496.5,5.3c17.9,0.2,32.3,14.9,32.2,32.9l-1.2,115.4
				c-0.1,8.7-3.6,16.8-9.8,22.9C553.6,1465.6,545.5,1468.9,537,1468.9z M41.7,1291.2c-6.4,0-12.5,2.5-17.1,7
				c-4.7,4.6-7.3,10.7-7.4,17.3L16,1430.9c-0.1,13.5,10.7,24.6,24.2,24.8l496.5,5.3c6.5,0.1,12.7-2.4,17.4-7
				c4.7-4.6,7.3-10.7,7.4-17.3l4,0l-4,0l1.2-115.4c0.1-13.5-10.7-24.6-24.2-24.8L42,1291.2C41.9,1291.2,41.8,1291.2,41.7,1291.2z"/>
		</g>
		<g>
			
				<rect x="52.6" y="1347.7" transform="matrix(1.063685e-02 -0.9999 0.9999 1.063685e-02 -1269.6063 1465.0884)" class="st34" width="105.9" height="53"/>
			
				<rect x="146.2" y="1348.7" transform="matrix(1.063685e-02 -0.9999 0.9999 1.063685e-02 -1178.063 1559.6007)" class="st35" width="105.9" height="53"/>
			
				<rect x="239.7" y="1349.7" transform="matrix(1.063685e-02 -0.9999 0.9999 1.063685e-02 -1086.5197 1654.113)" class="st36" width="105.9" height="53"/>
			
				<rect x="333.2" y="1350.6" transform="matrix(1.063685e-02 -0.9999 0.9999 1.063685e-02 -994.9764 1748.6252)" class="st18" width="105.9" height="53"/>
			
				<rect x="426.8" y="1351.6" transform="matrix(1.063685e-02 -0.9999 0.9999 1.063685e-02 -903.433 1843.1376)" class="st1" width="105.9" height="53"/>
		</g>
	</g>
	<g>
		<g>
			
				<linearGradient id="SVGID_00000098195724146347440850000012503345808710707850_" gradientUnits="userSpaceOnUse" x1="75.605" y1="1145.1207" x2="497.2943" y2="1389.0732">
				<stop  offset="0.4985" style="stop-color:#FFFFFF"/>
				<stop  offset="1" style="stop-color:#B8D0D9"/>
			</linearGradient>
			<path style="fill:url(#SVGID_00000098195724146347440850000012503345808710707850_);" d="M474.9,1431.2l50.2-88.5
				c9.6-17,3.7-38.5-13.3-48.2l-365-204.6c-17-9.6-38.5-3.7-48.2,13.3l-50.2,88.5c-9.6,17-3.7,38.5,13.3,48.2l365,204.6
				C443.7,1454.2,465.2,1448.2,474.9,1431.2z"/>
			<path class="st10" d="M444.1,1453.1c-6.6,0-13.2-1.6-19.4-5.1l-365-204.6c-18.9-10.7-25.5-34.8-14.8-53.6l50.2-88.5
				c10.7-18.9,34.8-25.5,53.6-14.8l365,204.6c18.9,10.7,25.5,34.8,14.8,53.6l-50.2,88.5l-3.5-2l3.5,2
				C471.1,1445.9,457.8,1453.1,444.1,1453.1z M129.4,1089.4c-10.9,0-21.5,5.7-27.3,15.9l-50.2,88.5c-8.5,15-3.2,34.2,11.8,42.7
				l365,204.6c15,8.5,34.2,3.3,42.7-11.8l50.2-88.5c8.5-15,3.2-34.2-11.8-42.7l-365-204.6C139.9,1090.7,134.6,1089.4,129.4,1089.4z"
				/>
		</g>
		<g>
			
				<rect x="101.4" y="1166.9" transform="matrix(0.4937 -0.8697 0.8697 0.4937 -959.7219 738.4873)" class="st38" width="105.9" height="53"/>
			
				<rect x="182.7" y="1213.1" transform="matrix(0.4937 -0.8697 0.8697 0.4937 -958.6895 832.6119)" class="st39" width="105.9" height="53"/>
			
				<rect x="264.1" y="1259.3" transform="matrix(0.4937 -0.8697 0.8697 0.4937 -957.657 926.7364)" class="st40" width="105.9" height="53"/>
			
				<rect x="345.4" y="1305.5" transform="matrix(0.4937 -0.8697 0.8697 0.4937 -956.6246 1020.8609)" class="st5" width="105.9" height="53"/>
			
				<rect x="426.8" y="1351.6" transform="matrix(0.4937 -0.8697 0.8697 0.4937 -955.5922 1114.9855)" class="st1" width="105.9" height="53"/>
		</g>
	</g>
	<g>
		<g>
			
				<linearGradient id="SVGID_00000080187800535234685720000009719200451609621171_" gradientUnits="userSpaceOnUse" x1="251.245" y1="971.7531" x2="472.5448" y2="1381.2448">
				<stop  offset="0.6257" style="stop-color:#FFFFFF"/>
				<stop  offset="1" style="stop-color:#B8D0D9"/>
			</linearGradient>
			<path style="fill:url(#SVGID_00000080187800535234685720000009719200451609621171_);" d="M449.2,1421.8l87.5-51.9
				c16.8-10,22.3-31.6,12.4-48.4L333.5,962.8c-10-16.8-31.6-22.3-48.4-12.4l-87.5,51.9c-16.8,10-22.3,31.6-12.4,48.4l215.5,358.7
				C410.7,1426.3,432.4,1431.8,449.2,1421.8z"/>
			<path class="st10" d="M431.2,1430.8c-3.3,0-6.5-0.4-9.8-1.2c-10.2-2.6-18.7-9-24.1-18l-215.5-358.7c-5.4-9.1-6.9-19.6-4.3-29.8
				s9-18.7,18-24.1L283,947c18.7-11.1,42.8-4.9,53.9,13.8l215.5,358.7c11.1,18.7,4.9,42.9-13.7,53.9l-87.5,51.9
				C445,1428.9,438.2,1430.8,431.2,1430.8z M303,949.5c-5.4,0-10.9,1.4-15.9,4.4l-87.5,51.9c-7.2,4.3-12.3,11.1-14.4,19.2
				s-0.9,16.5,3.4,23.7l215.5,358.7c4.3,7.2,11.1,12.3,19.2,14.4c8.1,2.1,16.5,0.9,23.7-3.4l87.5-51.9c14.9-8.8,19.8-28.1,11-42.9
				L330.1,964.9C324.2,955,313.7,949.5,303,949.5z"/>
		</g>
		<g>
			
				<rect x="235.8" y="1029.9" transform="matrix(0.86 -0.5104 0.5104 0.86 -498.6876 295.3014)" class="st42" width="105.9" height="53"/>
			
				<rect x="283.6" y="1110.3" transform="matrix(0.86 -0.5104 0.5104 0.86 -533.0555 330.9299)" class="st43" width="105.9" height="53"/>
			
				<rect x="331.3" y="1190.8" transform="matrix(0.86 -0.5104 0.5104 0.86 -567.4233 366.5585)" class="st44" width="105.9" height="53"/>
			
				<rect x="379" y="1271.2" transform="matrix(0.86 -0.5104 0.5104 0.86 -601.7912 402.1871)" class="st2" width="105.9" height="53"/>
			
				<rect x="426.8" y="1351.6" transform="matrix(0.86 -0.5104 0.5104 0.86 -636.1591 437.8156)" class="st1" width="105.9" height="53"/>
		</g>
	</g>
	<g>
		<g>
			
				<linearGradient id="SVGID_00000109032078236640782380000009834935917270579630_" gradientUnits="userSpaceOnUse" x1="479.7076" y1="928.5448" x2="479.7076" y2="1451.7181">
				<stop  offset="0.7191" style="stop-color:#FFFFFF"/>
				<stop  offset="1" style="stop-color:#B8D0D9"/>
			</linearGradient>
			<path style="fill:url(#SVGID_00000109032078236640782380000009834935917270579630_);" d="M422,1464.5h115.4
				c15.7,0,28.5-12.8,28.5-28.5V939.5c0-15.7-12.8-28.5-28.5-28.5H422c-15.7,0-28.5,12.8-28.5,28.5V1436
				C393.5,1451.8,406.3,1464.5,422,1464.5z"/>
			<path class="st10" d="M537.4,1468.5H422c-17.9,0-32.5-14.6-32.5-32.5V939.5c0-17.9,14.6-32.5,32.5-32.5h115.4
				c17.9,0,32.5,14.6,32.5,32.5V1436C569.9,1453.9,555.3,1468.5,537.4,1468.5z M422,915c-13.5,0-24.5,11-24.5,24.5V1436
				c0,13.5,11,24.5,24.5,24.5h115.4c13.5,0,24.5-11,24.5-24.5V939.5c0-13.5-11-24.5-24.5-24.5H422z"/>
		</g>
		<circle class="st8" cx="479.7" cy="1378.1" r="19.4"/>
	</g>
	
		<linearGradient id="SVGID_00000085930367280205183730000014419666240846560430_" gradientUnits="userSpaceOnUse" x1="479.7076" y1="992.5743" x2="479.7076" y2="1319.0455">
		<stop  offset="0" style="stop-color:#48A7FA"/>
		<stop  offset="0.3264" style="stop-color:#4099E2"/>
		<stop  offset="1" style="stop-color:#2C75A7"/>
	</linearGradient>
	<path style="fill:url(#SVGID_00000085930367280205183730000014419666240846560430_);" d="M455.4,977.1H504
		c5.7,0,10.3,4.6,10.3,10.3v325.7c0,5.7-4.6,10.3-10.3,10.3h-48.6c-5.7,0-10.3-4.6-10.3-10.3V987.3
		C445.1,981.7,449.7,977.1,455.4,977.1z"/>
</g>
<g id="Microphone">
	<g>
		<ellipse class="st22" cx="1749.4" cy="1259.5" rx="119.3" ry="18.4"/>
		<path class="st3" d="M1749.4,1241.1c65.9,0,119.3,8.2,119.3,18.4c0,10.2-53.4,18.4-119.3,18.4s-119.3-8.2-119.3-18.4
			C1630.1,1249.3,1683.5,1241.1,1749.4,1241.1 M1749.4,1233.1c-32.3,0-62.7,1.9-85.6,5.5c-11.5,1.8-20.6,3.9-27.1,6.2
			c-3.6,1.3-14.6,5.3-14.6,14.7c0,9.3,11,13.4,14.6,14.7c6.5,2.4,15.6,4.5,27.1,6.2c22.9,3.5,53.3,5.5,85.6,5.5s62.7-1.9,85.6-5.5
			c11.5-1.8,20.6-3.9,27.1-6.2c3.6-1.3,14.6-5.3,14.6-14.7c0-9.3-11-13.4-14.6-14.7c-6.5-2.4-15.6-4.5-27.1-6.2
			C1812.1,1235,1781.7,1233.1,1749.4,1233.1L1749.4,1233.1z"/>
	</g>
	
		<linearGradient id="SVGID_00000098924575052110654770000006114021961233767306_" gradientUnits="userSpaceOnUse" x1="1749.438" y1="1031.4604" x2="1749.438" y2="1250.8757">
		<stop  offset="0" style="stop-color:#00526F"/>
		<stop  offset="1" style="stop-color:#003E61"/>
	</linearGradient>
	<path style="fill:url(#SVGID_00000098924575052110654770000006114021961233767306_);" d="M1749.4,1263.7c-4.4,0-8-3.6-8-8V662
		c0-4.4,3.6-8,8-8s8,3.6,8,8v593.7C1757.4,1260.2,1753.9,1263.7,1749.4,1263.7z"/>
	<g>
		<path class="st22" d="M1864.5,716.4h-394.8c-4.4,0-8-3.6-8-8s3.6-8,8-8h394.8c4.4,0,8,3.6,8,8S1868.9,716.4,1864.5,716.4z"/>
	</g>
	<g>
		<rect x="1796.1" y="693.5" class="st3" width="52.6" height="30"/>
		<path class="st3" d="M1848.7,727.4h-52.6c-2.2,0-4-1.8-4-4v-30c0-2.2,1.8-4,4-4h52.6c2.2,0,4,1.8,4,4v30
			C1852.7,725.6,1850.9,727.4,1848.7,727.4z M1800.1,719.4h44.6v-22h-44.6V719.4z"/>
	</g>
	<g>
		<g>
			<path class="st3" d="M1421,757.6c-2.3,0-4.5-1-6.1-2.8c-2.9-3.4-2.4-8.4,0.9-11.3l81.9-69.3c3.4-2.9,8.4-2.4,11.3,0.9
				c2.9,3.4,2.4,8.4-0.9,11.3l-81.9,69.3C1424.7,757,1422.9,757.6,1421,757.6z"/>
		</g>
		<g>
			<path class="st22" d="M1462,727.4l-32.9,27.9c-4,3.4-10,2.9-13.4-1.1l0,0c-3.4-4-2.9-10,1.1-13.4l32.9-27.9L1462,727.4z"/>
			<path class="st3" d="M1449.7,712.9l12.3,14.5l-32.9,27.9c-1.8,1.5-4,2.2-6.1,2.2c-2.7,0-5.4-1.1-7.3-3.4v0
				c-3.4-4-2.9-10,1.1-13.4L1449.7,712.9 M1449.7,704.9c-1.8,0-3.7,0.6-5.2,1.9l-32.9,27.9c-3.6,3-5.7,7.2-6.1,11.9
				c-0.4,4.7,1.1,9.2,4.1,12.8c3.3,3.9,8.2,6.2,13.4,6.2c4.1,0,8.1-1.5,11.3-4.1l32.9-27.9c1.6-1.4,2.6-3.3,2.8-5.4
				c0.2-2.1-0.5-4.2-1.9-5.8l-12.3-14.5C1454.2,705.9,1452,704.9,1449.7,704.9L1449.7,704.9z"/>
		</g>
	</g>
	<g>
		<circle class="st22" cx="1749.4" cy="708.4" r="19.8"/>
		<path class="st3" d="M1749.4,732.3c-13.1,0-23.8-10.7-23.8-23.8s10.7-23.8,23.8-23.8c13.1,0,23.8,10.7,23.8,23.8
			S1762.6,732.3,1749.4,732.3z M1749.4,692.6c-8.7,0-15.8,7.1-15.8,15.8s7.1,15.8,15.8,15.8s15.8-7.1,15.8-15.8
			S1758.2,692.6,1749.4,692.6z"/>
	</g>
	<path class="st3" d="M1767.2,1204.9c-15.4,0-37.3-7.8-64.1-23.2c-30.7-17.6-81.9-53.1-151.4-122.9l5.7-5.6
		c121.8,122.2,204.6,155.8,222.2,140.1c6.1-5.5,3.7-17,0.6-25.6c-5.3-14.6-16.9-33.3-33.8-54.2c-100.1-124.5-33.1-213.6,0.3-246.2
		c26.5-25.8,44.1-44.4,46.5-66.4c2.5-22.9-11.5-49.7-46.7-89.8c-32.3-36.7-59-20.8-84.9-5.4c-21.5,12.8-43.7,26-64.2,1.5
		c-20.5-24.5-42.2-35.9-64.4-34c-16.6,1.4-27.4,10.1-27.5,10.2l-5.1-6.2c0.5-0.4,12.6-10.2,31.4-11.9c17.3-1.6,43.7,3.5,71.7,36.8
		c15.4,18.3,30.5,10.7,54-3.2c26-15.4,58.3-34.7,95,7c36.9,41.9,51.4,70.6,48.7,95.9c-2.7,24.7-21.1,44.3-48.9,71.3
		c-18.9,18.4-42.8,49.1-49.1,90.7c-7.1,46.4,9.6,95.1,49.4,144.7c35.6,44.2,47.3,77.3,32.3,90.8
		C1780.6,1203.1,1774.7,1204.9,1767.2,1204.9z"/>
</g>
<g id="Camera">
	<g>
		<g>
			
				<linearGradient id="SVGID_00000085959218155439393700000001626251975196359319_" gradientUnits="userSpaceOnUse" x1="1416.2675" y1="1159.9508" x2="1416.2675" y2="1213.0952">
				<stop  offset="0" style="stop-color:#A0C0CC"/>
				<stop  offset="1" style="stop-color:#B4E0E9"/>
			</linearGradient>
			<path style="fill:url(#SVGID_00000085959218155439393700000001626251975196359319_);" d="M1417.2,1414.1h-1.9
				c-4.1,0-7.4-3.3-7.4-7.4v-287.5h16.7v287.5C1424.6,1410.8,1421.3,1414.1,1417.2,1414.1z"/>
			<path class="st3" d="M1424.6,1119.2v287.5c0,4.1-3.3,7.4-7.4,7.4h-1.9c-4.1,0-7.4-3.3-7.4-7.4v-287.5H1424.6 M1432.6,1111.2h-8
				h-16.7h-8v8v287.5c0,8.5,6.9,15.4,15.4,15.4h1.9c8.5,0,15.4-6.9,15.4-15.4v-287.5V1111.2L1432.6,1111.2z"/>
		</g>
		<path class="st3" d="M1498.9,1308.4c-0.7,0-1.5-0.1-2.3-0.3l-69.4-20.4c-7.2-2.1-14.8-2.2-22-0.2l-69.8,19.5
			c-4.3,1.2-8.7-1.3-9.9-5.5c-1.2-4.3,1.3-8.7,5.5-9.9l69.8-19.5c10.1-2.8,20.8-2.8,30.8,0.2l69.4,20.4c4.2,1.2,6.7,5.7,5.4,9.9
			C1505.5,1306.2,1502.4,1308.4,1498.9,1308.4z"/>
		<g>
			<g>
				<path class="st3" d="M1523.2,1081.3h-213.8c-29.1,0-52.7-23.6-52.7-52.7V911.8c0-29.1,23.6-52.7,52.7-52.7h213.8
					c29.1,0,52.7,23.6,52.7,52.7v116.9C1575.8,1057.7,1552.3,1081.3,1523.2,1081.3z"/>
				<path class="st3" d="M1523.2,859.1c29.1,0,52.7,23.6,52.7,52.7v116.9c0,29.1-23.6,52.7-52.7,52.7h-213.8
					c-29.1,0-52.7-23.6-52.7-52.7V911.8c0-29.1,23.6-52.7,52.7-52.7H1523.2 M1523.2,851.1h-213.8c-33.4,0-60.7,27.2-60.7,60.7v116.9
					c0,33.4,27.2,60.7,60.7,60.7h213.8c33.4,0,60.7-27.2,60.7-60.7V911.8C1583.8,878.3,1556.6,851.1,1523.2,851.1L1523.2,851.1z"/>
			</g>
			
				<linearGradient id="SVGID_00000091001251983075893380000003420222558552222866_" gradientUnits="userSpaceOnUse" x1="1415.7544" y1="1078.9219" x2="1415.7544" y2="968.9119">
				<stop  offset="0" style="stop-color:#003E61"/>
				<stop  offset="1" style="stop-color:#00526F"/>
			</linearGradient>
			
				<rect x="1284.9" y="859.1" style="fill:url(#SVGID_00000091001251983075893380000003420222558552222866_);" width="261.7" height="222.2"/>
			<g>
				
					<radialGradient id="SVGID_00000136385930930608476860000003552494966449268153_" cx="1413.6495" cy="971.9629" r="179.0043" gradientTransform="matrix(0.8251 0 0 0.6986 249.4142 292.9602)" gradientUnits="userSpaceOnUse">
					<stop  offset="0" style="stop-color:#FFFFFF"/>
					<stop  offset="1" style="stop-color:#00FCE8"/>
				</radialGradient>
				
					<rect x="1314.9" y="898" style="fill:url(#SVGID_00000136385930930608476860000003552494966449268153_);" width="201.7" height="147.9"/>
				<path class="st17" d="M1512.6,902v139.9h-193.7V902H1512.6 M1516.6,898h-201.7v147.9h201.7V898L1516.6,898z"/>
			</g>
			<rect x="1282.9" y="859.1" class="st1" width="4" height="222.2"/>
			<rect x="1544.6" y="859.1" class="st1" width="4" height="222.2"/>
			<path class="st3" d="M1523.2,859.1c29.1,0,52.7,23.6,52.7,52.7v116.9c0,29.1-23.6,52.7-52.7,52.7h-213.8
				c-29.1,0-52.7-23.6-52.7-52.7V911.8c0-29.1,23.6-52.7,52.7-52.7H1523.2 M1523.2,851.1h-213.8c-33.4,0-60.7,27.2-60.7,60.7v116.9
				c0,33.4,27.2,60.7,60.7,60.7h213.8c33.4,0,60.7-27.2,60.7-60.7V911.8C1583.8,878.3,1556.6,851.1,1523.2,851.1L1523.2,851.1z"/>
			<path class="st3" d="M1452.7,889h-72.9c-5.9,0-10.6-4.8-10.6-10.6v-47.3c0-5.9,4.8-10.6,10.6-10.6h72.9c5.9,0,10.6,4.8,10.6,10.6
				v47.3C1463.4,884.3,1458.6,889,1452.7,889z"/>
			<path class="st3" d="M1542.4,854.8h-51.6c-3.5,0-6.4-2.9-6.4-6.4V840c0-3.5,2.9-6.4,6.4-6.4h51.6c3.5,0,6.4,2.9,6.4,6.4v8.4
				C1548.8,851.9,1545.9,854.8,1542.4,854.8z"/>
			<g>
				
					<radialGradient id="SVGID_00000079478976819742016460000003109236304716177573_" cx="1416.2675" cy="854.753" r="33.1401" gradientUnits="userSpaceOnUse">
					<stop  offset="0" style="stop-color:#FFFFFF"/>
					<stop  offset="1" style="stop-color:#00FCE8"/>
				</radialGradient>
				<path style="fill:url(#SVGID_00000079478976819742016460000003109236304716177573_);" d="M1448,880.9h-63.5
					c-3.9,0-7.1-3.2-7.1-7.1v-38.1c0-3.9,3.2-7.1,7.1-7.1h63.5c3.9,0,7.1,3.2,7.1,7.1v38.1C1455.2,877.7,1452,880.9,1448,880.9z"/>
				<path class="st17" d="M1448,832.6c1.7,0,3.1,1.4,3.1,3.1v38.1c0,1.7-1.4,3.1-3.1,3.1h-63.5c-1.7,0-3.1-1.4-3.1-3.1v-38.1
					c0-1.7,1.4-3.1,3.1-3.1H1448 M1448,828.6h-63.5c-3.9,0-7.1,3.2-7.1,7.1v38.1c0,3.9,3.2,7.1,7.1,7.1h63.5c3.9,0,7.1-3.2,7.1-7.1
					v-38.1C1455.2,831.8,1452,828.6,1448,828.6L1448,828.6z"/>
			</g>
			<path class="st8" d="M1342.3,1071h-22.5c-2.7,0-4.8-2.2-4.8-4.8l0,0c0-2.7,2.2-4.8,4.8-4.8h22.5c2.7,0,4.8,2.2,4.8,4.8l0,0
				C1347.1,1068.9,1344.9,1071,1342.3,1071z"/>
			<path class="st8" d="M1511.8,1071h-22.5c-2.7,0-4.8-2.2-4.8-4.8l0,0c0-2.7,2.2-4.8,4.8-4.8h22.5c2.7,0,4.8,2.2,4.8,4.8l0,0
				C1516.6,1068.9,1514.4,1071,1511.8,1071z"/>
			<path class="st8" d="M1469.4,1071h-22.5c-2.7,0-4.8-2.2-4.8-4.8l0,0c0-2.7,2.2-4.8,4.8-4.8h22.5c2.7,0,4.8,2.2,4.8,4.8l0,0
				C1474.2,1068.9,1472.1,1071,1469.4,1071z"/>
			<path class="st8" d="M1427,1071h-22.5c-2.7,0-4.8-2.2-4.8-4.8l0,0c0-2.7,2.2-4.8,4.8-4.8h22.5c2.7,0,4.8,2.2,4.8,4.8l0,0
				C1431.8,1068.9,1429.7,1071,1427,1071z"/>
			<path class="st8" d="M1384.6,1071h-22.5c-2.7,0-4.8-2.2-4.8-4.8l0,0c0-2.7,2.2-4.8,4.8-4.8h22.5c2.7,0,4.8,2.2,4.8,4.8l0,0
				C1389.5,1068.9,1387.3,1071,1384.6,1071z"/>
			<g>
				<circle class="st22" cx="1538" cy="898" r="37.9"/>
				<path class="st3" d="M1538,860.1c20.9,0,37.9,17,37.9,37.9s-17,37.9-37.9,37.9s-37.9-17-37.9-37.9S1517.1,860.1,1538,860.1
					 M1538,852.1c-25.3,0-45.9,20.6-45.9,45.9c0,25.3,20.6,45.9,45.9,45.9s45.9-20.6,45.9-45.9
					C1583.8,872.7,1563.3,852.1,1538,852.1L1538,852.1z"/>
			</g>
			<g>
				<circle class="st3" cx="1538" cy="898" r="26.5"/>
			</g>
			<g>
				<circle class="st18" cx="1538" cy="898" r="10.8"/>
				<path class="st19" d="M1538,887.2c6,0,10.8,4.8,10.8,10.8s-4.8,10.8-10.8,10.8s-10.8-4.8-10.8-10.8S1532,887.2,1538,887.2
					 M1538,883.2c-8.2,0-14.8,6.6-14.8,14.8c0,8.2,6.6,14.8,14.8,14.8s14.8-6.6,14.8-14.8C1552.8,889.8,1546.1,883.2,1538,883.2
					L1538,883.2z"/>
			</g>
			<g>
				<g>
					
						<linearGradient id="SVGID_00000038381508233959353360000010604830154372416951_" gradientUnits="userSpaceOnUse" x1="1358.447" y1="962.2094" x2="1472.5468" y2="962.2094">
						<stop  offset="0" style="stop-color:#2794FA"/>
						<stop  offset="1" style="stop-color:#00526F"/>
					</linearGradient>
					<path style="fill:url(#SVGID_00000038381508233959353360000010604830154372416951_);" d="M1416.3,1000.5L1416.3,1000.5
						c-15.3,0-27.9-12-28.6-27.2l-1-19.3c-0.9-16.4,12.2-30.2,28.6-30.2h2c16.4,0,29.5,13.8,28.6,30.2l-1,19.3
						C1444.1,988.6,1431.5,1000.5,1416.3,1000.5z"/>
					
						<linearGradient id="SVGID_00000002384512215296154650000006024361374166531227_" gradientUnits="userSpaceOnUse" x1="1358.6898" y1="1020.9646" x2="1472.2999" y2="1020.9646">
						<stop  offset="0" style="stop-color:#2794FA"/>
						<stop  offset="1" style="stop-color:#00526F"/>
					</linearGradient>
					<path style="fill:url(#SVGID_00000002384512215296154650000006024361374166531227_);" d="M1440.1,999.9
						c-6.4,5.5-14.8,8.8-23.8,8.8c-9.1,0-17.4-3.3-23.8-8.8c-18.4,5.9-32.2,22.3-34.1,42.1h115.9
						C1472.2,1022.2,1458.5,1005.8,1440.1,999.9z"/>
				</g>
			</g>
			<g>
				<g>
					
						<linearGradient id="SVGID_00000157292446478616176620000001429328664007448245_" gradientUnits="userSpaceOnUse" x1="1399.4858" y1="853.7998" x2="1432.6017" y2="853.7998">
						<stop  offset="0" style="stop-color:#2794FA"/>
						<stop  offset="1" style="stop-color:#00526F"/>
					</linearGradient>
					<path style="fill:url(#SVGID_00000157292446478616176620000001429328664007448245_);" d="M1416.3,864.9L1416.3,864.9
						c-4.4,0-8.1-3.5-8.3-7.9l-0.3-5.6c-0.2-4.8,3.5-8.8,8.3-8.8h0.6c4.8,0,8.6,4,8.3,8.8l-0.3,5.6
						C1424.4,861.5,1420.7,864.9,1416.3,864.9z"/>
					
						<linearGradient id="SVGID_00000050631501795191939140000002837743970700136380_" gradientUnits="userSpaceOnUse" x1="1399.5563" y1="870.837" x2="1432.53" y2="870.837">
						<stop  offset="0" style="stop-color:#2794FA"/>
						<stop  offset="1" style="stop-color:#00526F"/>
					</linearGradient>
					<path style="fill:url(#SVGID_00000050631501795191939140000002837743970700136380_);" d="M1423.2,864.7
						c-1.9,1.6-4.3,2.5-6.9,2.5c-2.6,0-5-1-6.9-2.5c-5.3,1.7-9.3,6.4-9.9,12.2h33.6C1432.5,871.2,1428.5,866.4,1423.2,864.7z"/>
				</g>
			</g>
			<path class="st6" d="M1336.9,940c-1.1,0-2-0.9-2-2v-18c0-1.1,0.9-2,2-2h18c1.1,0,2,0.9,2,2s-0.9,2-2,2h-16v16
				C1338.9,939.1,1338,940,1336.9,940z"/>
			<path class="st6" d="M1355,1025.8h-18c-1.1,0-2-0.9-2-2v-18c0-1.1,0.9-2,2-2s2,0.9,2,2v16h16c1.1,0,2,0.9,2,2
				S1356.1,1025.8,1355,1025.8z"/>
			<path class="st6" d="M1494.6,1025.8h-18c-1.1,0-2-0.9-2-2s0.9-2,2-2h16v-16c0-1.1,0.9-2,2-2s2,0.9,2,2v18
				C1496.6,1024.9,1495.7,1025.8,1494.6,1025.8z"/>
			<path class="st6" d="M1494.6,940c-1.1,0-2-0.9-2-2v-16h-16c-1.1,0-2-0.9-2-2s0.9-2,2-2h18c1.1,0,2,0.9,2,2v18
				C1496.6,939.1,1495.7,940,1494.6,940z"/>
		</g>
		<g>
			
				<linearGradient id="SVGID_00000141454179529579191100000012208923795745080764_" gradientUnits="userSpaceOnUse" x1="1438.3147" y1="1182.0179" x2="1438.3147" y2="1257.7211" gradientTransform="matrix(0.937 -0.3494 0.3494 0.937 -308.1187 570.0753)">
				<stop  offset="0" style="stop-color:#A0C0CC"/>
				<stop  offset="1" style="stop-color:#B4E0E9"/>
			</linearGradient>
			<path style="fill:url(#SVGID_00000141454179529579191100000012208923795745080764_);" d="M1575.8,1515.5l-1.8,0.7
				c-3.8,1.4-8.1-0.5-9.5-4.4l-136.1-389.8l15.7-5.8l136.1,389.8C1581.6,1509.8,1579.7,1514.1,1575.8,1515.5z"/>
			<path class="st3" d="M1444.1,1116.2l136.1,389.8c1.4,3.8-0.5,8.1-4.4,9.5l-1.8,0.7c-0.9,0.3-1.7,0.5-2.6,0.5
				c-3,0-5.8-1.8-6.9-4.8l-136.1-389.8L1444.1,1116.2 M1449,1105.9l-7.7,2.9l-15.7,5.8l-7.3,2.7l2.6,7.4l136.1,389.8l0,0.1l0,0.1
				c2.2,6,8,10,14.4,10c1.8,0,3.7-0.3,5.4-1l1.8-0.7c3.9-1.4,6.9-4.3,8.6-8c1.7-3.7,1.9-7.9,0.5-11.7l-136.1-389.7L1449,1105.9
				L1449,1105.9z"/>
		</g>
		<g>
			
				<linearGradient id="SVGID_00000051374804293143580210000000973802552083327932_" gradientUnits="userSpaceOnUse" x1="1494.5789" y1="1202.9966" x2="1494.5789" y2="1278.6998" gradientTransform="matrix(-0.937 -0.3494 -0.3494 0.937 3200.0652 570.0753)">
				<stop  offset="0" style="stop-color:#A0C0CC"/>
				<stop  offset="1" style="stop-color:#B4E0E9"/>
			</linearGradient>
			<path style="fill:url(#SVGID_00000051374804293143580210000000973802552083327932_);" d="M1256,1515.5l1.8,0.7
				c3.8,1.4,8.1-0.5,9.5-4.4l136.1-389.8l-15.7-5.8L1251.7,1506C1250.3,1509.8,1252.2,1514.1,1256,1515.5z"/>
			<path class="st3" d="M1387.8,1116.2l15.7,5.8l-136.1,389.8c-1.1,3-3.9,4.8-6.9,4.8c-0.9,0-1.7-0.2-2.6-0.5l-1.8-0.7
				c-3.8-1.4-5.8-5.7-4.4-9.5L1387.8,1116.2 M1382.9,1105.9l-2.7,7.7l-136.1,389.7c-2.9,7.9,1.2,16.8,9.1,19.7l1.8,0.7
				c1.7,0.6,3.5,1,5.4,1c6.4,0,12.2-4,14.4-10l0-0.1l0-0.1l136.1-389.8l2.6-7.4l-7.3-2.7l-15.7-5.8L1382.9,1105.9L1382.9,1105.9z"/>
		</g>
		<g>
			<rect x="1337.2" y="1122.9" class="st22" width="158.2" height="33.2"/>
			<path class="st3" d="M1499.4,1160h-166.2v-41.2h166.2V1160z M1341.2,1152h150.2v-25.2h-150.2V1152z"/>
		</g>
		<g>
			<path class="st22" d="M1473.4,1088.6c0,16.9-25.6,30.5-57.1,30.5c-31.5,0-57.1-13.7-57.1-30.5H1473.4z"/>
			<path class="st3" d="M1473.4,1088.6c0,16.9-25.6,30.5-57.1,30.5s-57.1-13.7-57.1-30.5H1473.4 M1481.4,1080.6h-8h-114.2h-8v8
				c0,11.2,7.4,21.4,20.9,28.7c11.9,6.4,27.6,9.9,44.1,9.9c16.5,0,32.2-3.5,44.1-9.9c13.5-7.2,20.9-17.4,20.9-28.7V1080.6
				L1481.4,1080.6z"/>
		</g>
	</g>
</g>
<g>
	<g>
		
			<radialGradient id="SVGID_00000128459956433251852940000006186476172574251909_" cx="938.2552" cy="722.6259" r="615.5998" gradientTransform="matrix(1.2143 0 0 1.1718 -201.0836 -73.4281)" gradientUnits="userSpaceOnUse">
			<stop  offset="0.2564" style="stop-color:#FFFFFF"/>
			<stop  offset="0.3619" style="stop-color:#FEF7E7"/>
			<stop  offset="0.4922" style="stop-color:#FEF0D0"/>
			<stop  offset="0.6331" style="stop-color:#FDEBC0"/>
			<stop  offset="0.7909" style="stop-color:#FDE8B6"/>
			<stop  offset="1" style="stop-color:#FDE7B3"/>
		</radialGradient>
		
			<rect x="685.4" y="427.5" style="fill:url(#SVGID_00000128459956433251852940000006186476172574251909_);" width="505.7" height="691.7"/>
	</g>
	<g>
		<g>
			<g>
				<path class="st59" d="M756.9,859.8L813.5,686L870,859.8l-7.7,7.5c-10.4,10-26.2,11.8-38.5,4.3l-10.4-6.3l-10.4,6.3
					c-12.3,7.5-28.1,5.7-38.5-4.3L756.9,859.8z"/>
				<path class="st22" d="M786.7,880.2c-9,0-18-3.4-24.8-10l-7.7-7.5c-1.1-1.1-1.5-2.7-1-4.1l56.5-173.8c0.5-1.6,2.1-2.8,3.8-2.8
					s3.3,1.1,3.8,2.8l56.5,173.8c0.5,1.5,0.1,3.1-1,4.1l-7.7,7.5c-11.6,11.3-29.5,13.3-43.3,4.9l-8.3-5l-8.3,5
					C799.4,878.5,793,880.2,786.7,880.2z M761.5,858.7l5.9,5.7c9,8.7,22.9,10.3,33.6,3.8l10.4-6.3c1.3-0.8,2.9-0.8,4.1,0l10.4,6.3
					c10.8,6.5,24.6,5,33.6-3.8l5.9-5.7l-52-159.8L761.5,858.7z"/>
			</g>
			<g>
				
					<linearGradient id="SVGID_00000046304828701443709520000000382162190041282200_" gradientUnits="userSpaceOnUse" x1="813.0842" y1="989.0699" x2="931.5899" y2="989.0699">
					<stop  offset="0" style="stop-color:#FFBA89"/>
					<stop  offset="5.176950e-02" style="stop-color:#F8B48B"/>
					<stop  offset="0.2455" style="stop-color:#E1A093"/>
					<stop  offset="0.455" style="stop-color:#D19398"/>
					<stop  offset="0.6894" style="stop-color:#C78B9B"/>
					<stop  offset="1" style="stop-color:#C4889C"/>
				</linearGradient>
				<path style="fill:url(#SVGID_00000046304828701443709520000000382162190041282200_);" d="M870,859.8l-7.7,7.5
					c-10.4,10-26.2,11.8-38.5,4.3l-10.4-6.3l-10.4,6.3c-12.3,7.5-28.1,5.7-38.5-4.3l-7.7-7.5v258.5H870V859.8z"/>
				<path class="st22" d="M870,1122.3H756.9c-2.2,0-4-1.8-4-4V859.8c0-1.6,1-3.1,2.4-3.7c1.5-0.6,3.2-0.3,4.3,0.8l7.7,7.5
					c9,8.7,22.9,10.3,33.6,3.8l10.4-6.3c1.3-0.8,2.9-0.8,4.1,0l10.4,6.3c10.8,6.5,24.6,5,33.6-3.8l7.7-7.5c1.2-1.1,2.9-1.4,4.3-0.8
					s2.4,2.1,2.4,3.7v258.5C874,1120.5,872.2,1122.3,870,1122.3z M760.9,1114.3H866V869.2l-0.9,0.9c-11.7,11.3-29.5,13.3-43.3,4.9
					l-8.3-5l-8.3,5c-13.9,8.4-31.7,6.4-43.3-4.9l-0.9-0.9V1114.3z"/>
			</g>
			<path class="st22" d="M813.5,1122c-2.2,0-4-1.8-4-4V873.8c0-2.2,1.8-4,4-4s4,1.8,4,4V1118C817.5,1120.2,815.7,1122,813.5,1122z"
				/>
			<g>
				<path class="st22" d="M831.4,741.8l-18-55.8l-18.3,55.8c0,0,4.4,8.8,18.3,8.8S831.4,741.8,831.4,741.8z"/>
				<path class="st22" d="M813.5,754.6c-16.2,0-21.7-10.5-21.9-11c-0.5-0.9-0.6-2-0.2-3.1l18.3-55.8c0.5-1.6,2.1-2.8,3.8-2.8
					c0,0,0,0,0,0c1.7,0,3.3,1.1,3.8,2.8l18,55.8c0.3,1,0.2,2-0.2,2.9C834.8,743.9,829.7,754.6,813.5,754.6z M799.5,741.2
					c1.6,1.9,5.7,5.4,13.9,5.4c8.2,0,12.1-3.5,13.6-5.4l-13.6-42.3L799.5,741.2z"/>
			</g>
		</g>
		<g>
			<path class="st14" d="M1193.6,1122.2H682v-698h511.5V1122.2z M690,1114.2h495.5v-682H690V1114.2z"/>
		</g>
		<g>
			<rect x="672.6" y="414.7" class="st6" width="26.9" height="26.9"/>
			<path class="st14" d="M699.5,414.7v26.9h-26.9v-26.9H699.5 M707.5,406.7h-8h-26.9h-8v8v26.9v8h8h26.9h8v-8v-26.9V406.7
				L707.5,406.7z"/>
		</g>
		<g>
			<rect x="672.6" y="1104.7" class="st6" width="26.9" height="26.9"/>
			<path class="st14" d="M699.5,1104.7v26.9h-26.9v-26.9H699.5 M707.5,1096.7h-8h-26.9h-8v8v26.9v8h8h26.9h8v-8v-26.9V1096.7
				L707.5,1096.7z"/>
		</g>
		<g>
			<rect x="1176.1" y="1104.7" class="st6" width="26.9" height="26.9"/>
			<path class="st14" d="M1203,1104.7v26.9h-26.9v-26.9H1203 M1211,1096.7h-8h-26.9h-8v8v26.9v8h8h26.9h8v-8v-26.9V1096.7
				L1211,1096.7z"/>
		</g>
		<g>
			<rect x="1176.1" y="414.7" class="st6" width="26.9" height="26.9"/>
			<path class="st14" d="M1203,414.7v26.9h-26.9v-26.9H1203 M1211,406.7h-8h-26.9h-8v8v26.9v8h8h26.9h8v-8v-26.9V406.7L1211,406.7z"
				/>
		</g>
		<g>
			<path class="st14" d="M1095.6,558.8c-0.1-0.3-12.5-32.5-38.1-64.2c-15-18.5-31.5-33.2-49-43.8c-21.8-13.1-45.5-19.7-70.2-19.7
				s-48.4,6.6-70.2,19.7c-17.6,10.5-34.1,25.3-49,43.8c-25.6,31.7-38,63.9-38.1,64.2l-7.5-2.8c0.5-1.4,12.8-33.6,39.2-66.3
				c35.2-43.6,78.6-66.7,125.6-66.7s90.4,23,125.6,66.7c26.4,32.7,38.7,64.9,39.2,66.3L1095.6,558.8z"/>
			<g>
				<circle class="st6" cx="1099.3" cy="557.4" r="12.5"/>
				<path class="st14" d="M1099.3,545c6.9,0,12.5,5.6,12.5,12.5c0,6.9-5.6,12.5-12.5,12.5c-6.9,0-12.5-5.6-12.5-12.5
					C1086.9,550.5,1092.4,545,1099.3,545 M1099.3,537c-11.3,0-20.5,9.2-20.5,20.5c0,11.3,9.2,20.5,20.5,20.5
					c11.3,0,20.5-9.2,20.5-20.5C1119.8,546.1,1110.6,537,1099.3,537L1099.3,537z"/>
			</g>
			<g>
				<circle class="st6" cx="777.2" cy="557.4" r="12.5"/>
				<path class="st14" d="M777.2,545c6.9,0,12.5,5.6,12.5,12.5c0,6.9-5.6,12.5-12.5,12.5s-12.5-5.6-12.5-12.5
					C764.7,550.5,770.3,545,777.2,545 M777.2,537c-11.3,0-20.5,9.2-20.5,20.5c0,11.3,9.2,20.5,20.5,20.5s20.5-9.2,20.5-20.5
					C797.7,546.1,788.5,537,777.2,537L777.2,537z"/>
			</g>
			<path class="st14" d="M938.3,432.5c-58.9,0-100.4-21-124.8-38.6c-26.6-19.1-39.1-38.1-39.6-38.9l6.7-4.4c0,0,0,0,0,0l0,0
				c0.2,0.3,12.5,18.8,37.8,37c23.5,16.8,63.3,36.8,119.9,36.8s96.4-20,119.9-36.8c25.5-18.3,37.7-36.8,37.9-37l6.7,4.4
				c-0.5,0.8-13,19.8-39.6,38.9C1038.6,411.5,997.1,432.5,938.3,432.5z"/>
			<g>
				<circle class="st6" cx="1099.3" cy="352.8" r="12.5"/>
				<path class="st14" d="M1099.3,340.4c6.9,0,12.5,5.6,12.5,12.5s-5.6,12.5-12.5,12.5c-6.9,0-12.5-5.6-12.5-12.5
					S1092.4,340.4,1099.3,340.4 M1099.3,332.4c-11.3,0-20.5,9.2-20.5,20.5s9.2,20.5,20.5,20.5c11.3,0,20.5-9.2,20.5-20.5
					S1110.6,332.4,1099.3,332.4L1099.3,332.4z"/>
			</g>
			<g>
				<circle class="st6" cx="777.2" cy="352.8" r="12.5"/>
				<path class="st14" d="M777.2,340.4c6.9,0,12.5,5.6,12.5,12.5s-5.6,12.5-12.5,12.5s-12.5-5.6-12.5-12.5S770.3,340.4,777.2,340.4
					 M777.2,332.4c-11.3,0-20.5,9.2-20.5,20.5s9.2,20.5,20.5,20.5s20.5-9.2,20.5-20.5S788.5,332.4,777.2,332.4L777.2,332.4z"/>
			</g>
			<g>
				<rect x="913.1" y="403.3" class="st6" width="50.2" height="50.2"/>
				<path class="st14" d="M963.4,403.3v50.2h-50.2v-50.2H963.4 M979.4,387.3h-16h-50.2h-16v16v50.2v16h16h50.2h16v-16v-50.2V387.3
					L979.4,387.3z"/>
			</g>
			
				<linearGradient id="SVGID_00000022523313709954788850000011202690853395940279_" gradientUnits="userSpaceOnUse" x1="902.4345" y1="539.8211" x2="902.4345" y2="442.7153">
				<stop  offset="0.1354" style="stop-color:#D0C6F2"/>
				<stop  offset="1" style="stop-color:#FFFFFF"/>
			</linearGradient>
			<path style="fill:url(#SVGID_00000022523313709954788850000011202690853395940279_);" d="M938.3,432.9l-71.6,128.6
				c26.8,34.5,42.7,64.2,40.6,86.3h31V432.9z"/>
			
				<linearGradient id="SVGID_00000116920182652752555470000008236400082034000027_" gradientUnits="userSpaceOnUse" x1="974.076" y1="539.8211" x2="974.076" y2="442.3851">
				<stop  offset="0" style="stop-color:#A28DE6"/>
				<stop  offset="1" style="stop-color:#FFFFFF"/>
			</linearGradient>
			<path style="fill:url(#SVGID_00000116920182652752555470000008236400082034000027_);" d="M938.3,432.9l71.6,128.6
				c-26.8,34.5-42.7,64.2-40.6,86.3h-31V432.9z"/>
			<path class="st22" d="M973.7,651.8h-70.9l0.4-4.4c1.8-19.5-11.2-46.8-39.8-83.5l-1.6-2.1l76.4-137.2l76.4,137.2l-1.6,2.1
				c-28.6,36.7-41.6,64.1-39.8,83.5L973.7,651.8z M911.4,643.8h53.7c0-20.7,13.2-47.8,40-82.7l-66.9-120l-66.9,120
				C898.2,596,911.3,623.1,911.4,643.8z"/>
			<circle class="st22" cx="938.3" cy="559.9" r="19.5"/>
			<rect x="891.7" y="647.8" class="st63" width="46.6" height="59.7"/>
			<rect x="938.3" y="647.8" class="st5" width="46.6" height="59.7"/>
			<path class="st22" d="M988.8,711.5H887.7v-67.7h101.2V711.5z M895.7,703.5h85.2v-51.7h-85.2V703.5z"/>
		</g>
		<g>
			<g>
				
					<linearGradient id="SVGID_00000014597034265981974070000001074946216388356799_" gradientUnits="userSpaceOnUse" x1="1023.6753" y1="933.3815" x2="1023.6753" y2="1549.9698">
					<stop  offset="0" style="stop-color:#FFFFFF"/>
					<stop  offset="0.1259" style="stop-color:#E4DEF8"/>
					<stop  offset="0.2672" style="stop-color:#CCC1F1"/>
					<stop  offset="0.4176" style="stop-color:#BAAAEC"/>
					<stop  offset="0.5793" style="stop-color:#AC9AE9"/>
					<stop  offset="0.7602" style="stop-color:#A490E7"/>
					<stop  offset="1" style="stop-color:#A28DE6"/>
				</linearGradient>
				<path style="fill:url(#SVGID_00000014597034265981974070000001074946216388356799_);" d="M1041.3,1081.1h-35.2
					c-26,0-47.1-21.1-47.1-47.1V922.2c0-35.7,29-64.7,64.7-64.7h0c35.7,0,64.7,29,64.7,64.7V1034
					C1088.4,1060,1067.3,1081.1,1041.3,1081.1z"/>
				<path class="st6" d="M1023.7,869.5c29.1,0,52.7,23.6,52.7,52.7V1034c0,19.4-15.8,35.1-35.1,35.1h-35.2
					c-19.4,0-35.1-15.8-35.1-35.1V922.2C971,893.1,994.6,869.5,1023.7,869.5 M1023.7,857.5L1023.7,857.5c-35.7,0-64.7,29-64.7,64.7
					V1034c0,26,21.1,47.1,47.1,47.1h35.2c26,0,47.1-21.1,47.1-47.1V922.2C1088.4,886.5,1059.4,857.5,1023.7,857.5L1023.7,857.5z"/>
			</g>
			<g>
				<circle class="st65" cx="1023.7" cy="1034" r="15.3"/>
			</g>
			<path class="st22" d="M1027.7,857.5h-8v-1.2c0-20,16.3-36.2,36.2-36.2h42.2c15.6,0,28.2-12.7,28.2-28.2s-12.7-28.2-28.2-28.2
				H967.4c-20,0-36.2-16.3-36.2-36.2v-19.8h8v19.8c0,15.6,12.7,28.2,28.2,28.2h130.7c20,0,36.2,16.3,36.2,36.2s-16.3,36.2-36.2,36.2
				h-42.2c-15.6,0-28.2,12.7-28.2,28.2V857.5z"/>
			<g>
				<path class="st63" d="M959,922.2c0,0,22.2,10,22.2,52.3c0,42.4-22.2,59.5-22.2,59.5V922.2z"/>
				<path class="st6" d="M959,922.2c0,0,22.2,10,22.2,52.3c0,42.4-22.2,59.5-22.2,59.5V922.2 M955,916v6.2V1034v8.1l6.4-5
					c1-0.7,23.8-18.8,23.8-62.7c0-44.4-23.6-55.5-24.6-56L955,916L955,916z"/>
			</g>
			<g>
				<path class="st63" d="M1088.4,1036.7c0,0-22.2-10-22.2-52.3c0-42.4,22.2-59.5,22.2-59.5V1036.7z"/>
				<path class="st6" d="M1088.4,924.9v111.8c0,0-22.2-10-22.2-52.3C1066.1,942,1088.4,924.9,1088.4,924.9 M1092.4,916.8l-6.4,5
					c-1,0.7-23.8,18.8-23.8,62.7c0,44.4,23.6,55.5,24.6,56l5.6,2.5v-6.2V924.9V916.8L1092.4,916.8z"/>
			</g>
			<path class="st22" d="M1041.3,1085.1h-35.2c-28.2,0-51.1-22.9-51.1-51.1V922.2c0-37.9,30.8-68.7,68.7-68.7s68.7,30.8,68.7,68.7
				V1034C1092.4,1062.2,1069.5,1085.1,1041.3,1085.1z M1023.7,861.5c-33.5,0-60.7,27.2-60.7,60.7V1034c0,23.8,19.4,43.1,43.1,43.1
				h35.2c23.8,0,43.1-19.4,43.1-43.1V922.2C1084.4,888.7,1057.2,861.5,1023.7,861.5z"/>
		</g>
	</g>
</g>
<g>
	<path class="st7" d="M193.6,725.2c-1-0.1-1.7-0.3-2-0.7s-0.5-0.9-0.5-1.6c0-0.7,0.1-1.5,0.4-2.5c0.2-1,0.6-2,1-3.1
		c0.4-1.1,0.8-2.2,1.3-3.3c-0.2,0-0.5,0-1,0.1c-0.4,0-0.9,0.1-1.4,0.1c-0.5,0-0.8,0.1-1.1,0.2c0.1-0.6,0.3-1,0.7-1.4
		c0.4-0.3,0.9-0.6,1.5-0.7c0.6-0.2,1.3-0.2,2-0.3c0.5-1.4,1-2.7,1.5-4c0.5-1.3,1-2.5,1.6-3.6c-0.1,0-0.2,0-0.4,0c-0.2,0-0.4,0-0.6,0
		c-1.2,0-2,0.1-2.7,0.4c-0.6,0.2-1.1,0.6-1.3,1s-0.4,1-0.4,1.7c0,0.5,0,0.9,0.1,1.3c0.1,0.4,0.2,0.8,0.4,1.3
		c-0.9-0.2-1.5-0.4-1.9-0.9c-0.4-0.4-0.6-1-0.6-1.6c0-1,0.4-1.9,1.1-2.6c0.7-0.8,1.7-1.3,2.9-1.8c1.2-0.4,2.6-0.7,4.2-0.7
		c1,0,2,0.1,3,0.2c1,0.1,1.9,0.2,2.8,0.2c0.5,0,0.9,0,1.4-0.1c0.4-0.1,0.9-0.2,1.5-0.3c-0.9,1-1.6,1.7-2.2,2
		c-0.6,0.3-1.1,0.5-1.7,0.5c-0.5,0-1-0.1-1.8-0.2c-0.7-0.1-1.5-0.2-2.3-0.3c-0.2,0.6-0.5,1.3-0.8,2.1s-0.6,1.6-0.9,2.5
		c-0.3,0.9-0.6,1.8-0.9,2.8c1,0.1,1.9,0.2,2.7,0.3c0.8,0.1,1.7,0.2,2.6,0.2c-0.2,0.3-0.5,0.5-0.7,0.7c-0.2,0.2-0.5,0.3-0.9,0.4
		c-0.4,0.1-0.9,0.1-1.6,0.2c-0.7,0-1.5,0.1-2.6,0.1c-0.2,0.6-0.3,1.1-0.5,1.7s-0.3,1.1-0.4,1.5c-0.1,0.4-0.2,0.7-0.2,0.8
		c-0.5,1.8-0.9,3.3-1.1,4.4C193.7,723.3,193.6,724.3,193.6,725.2z"/>
	<path class="st7" d="M204.9,723.6c-0.9,0-1.5-0.3-1.9-0.9c-0.3-0.6-0.5-1.3-0.5-2.1c0-0.9,0.2-2,0.5-3.3s0.8-2.6,1.3-3.9
		c0.6-1.4,1.2-2.7,1.8-4c0.7-1.3,1.3-2.5,2-3.6c0.7-1.1,1.3-1.9,1.9-2.5c0.6-0.6,1-0.9,1.4-0.9c0.2,0,0.5,0.1,0.6,0.4
		c0.2,0.3,0.3,0.6,0.4,0.9c0.1,0.3,0.2,0.7,0.2,1c0,0.5-0.1,1.2-0.4,2s-0.6,1.7-1.1,2.7c-0.5,1-1,2-1.6,3s-1.3,2-2.1,2.9
		s-1.6,1.7-2.4,2.4c-0.1,0.5-0.1,0.9-0.2,1.4c-0.1,0.5-0.1,0.9-0.1,1.3c0,0.7,0.1,1.2,0.3,1.5s0.5,0.5,0.9,0.5c0.5,0,1-0.2,1.5-0.7
		c0.5-0.4,1-1,1.4-1.7c0.5-0.7,0.9-1.4,1.2-2.1l0.7,0.4c-0.8,1.7-1.7,3-2.7,4C207.1,723.1,206,723.6,204.9,723.6z M205.6,715.9
		c0.6-0.7,1.2-1.5,1.8-2.3c0.6-0.8,1.1-1.7,1.6-2.5c0.5-0.8,0.9-1.7,1.3-2.5c0.4-0.8,0.6-1.5,0.8-2.1c0.2-0.6,0.3-1.1,0.3-1.5
		c0,0,0,0,0,0s0,0,0,0c-0.2,0-0.4,0.2-0.7,0.6c-0.3,0.4-0.7,1-1.2,1.7c-0.5,0.7-0.9,1.6-1.4,2.5s-0.9,1.9-1.4,3
		C206.3,713.8,205.9,714.9,205.6,715.9z"/>
	<path class="st7" d="M211.7,723.6c-0.9,0-1.5-0.3-1.9-0.8s-0.6-1.2-0.6-1.9c0-1,0.2-1.9,0.5-2.7c0.3-0.8,0.8-1.6,1.3-2.3
		c0.5-0.7,1.1-1.3,1.7-1.8c0.6-0.5,1.2-0.9,1.8-1.1c0.6-0.3,1-0.4,1.4-0.4c0.1,0,0.2,0,0.4,0.1c0.2,0,0.3,0.1,0.4,0.3
		c0.1,0,0.1-0.1,0.2-0.1c0.1,0,0.1,0,0.2,0c0.5,0,0.9,0.2,1,0.5c0.2,0.3,0.2,0.6,0.2,1c0,0.3-0.1,0.7-0.3,1.1
		c-0.2,0.4-0.4,0.9-0.5,1.4c-0.2,0.5-0.3,1.1-0.3,1.7c0,0.3,0.1,0.6,0.3,0.8c0.2,0.2,0.4,0.3,0.7,0.3c0.7,0,1.3-0.2,1.8-0.5
		c0.5-0.3,0.9-0.8,1.2-1.3c0.3-0.5,0.6-1.1,0.8-1.8c0.2-0.7,0.4-1.3,0.6-1.9c-0.2-0.2-0.3-0.4-0.3-0.7c0-0.4,0.1-0.8,0.3-1.1
		s0.4-0.6,0.6-0.7c0.2-0.2,0.4-0.3,0.5-0.3c0.3,0,0.5,0.1,0.5,0.3s0.1,0.4,0.1,0.5c0,0.1-0.1,0.3-0.2,0.5c-0.1,0.2-0.2,0.4-0.2,0.5
		c0,0.2,0.2,0.4,0.5,0.6c0.3,0.2,0.7,0.4,1.1,0.7c0.4,0.3,0.8,0.6,1.1,1c0.3,0.4,0.5,0.9,0.5,1.5c0,0.6-0.1,1.1-0.3,1.7
		c-0.2,0.6-0.5,1.1-0.7,1.6c-0.2,0.5-0.3,0.9-0.3,1.3c0,0.3,0.1,0.5,0.2,0.6s0.3,0.1,0.5,0.1c0.4,0,0.9-0.1,1.4-0.4
		c0.5-0.3,0.9-0.6,1.4-1.1c0.5-0.4,0.9-0.9,1.2-1.4c0.4-0.5,0.6-0.9,0.8-1.3l0.6,0.4c-0.4,0.8-0.9,1.6-1.5,2.4
		c-0.6,0.8-1.3,1.5-2.1,2c-0.8,0.5-1.6,0.8-2.4,0.8c-0.7,0-1.3-0.2-1.7-0.6c-0.4-0.4-0.7-0.9-0.7-1.4c0-0.5,0.1-1.1,0.4-1.7
		c0.2-0.6,0.5-1.2,0.7-1.8c0.2-0.6,0.4-1.1,0.4-1.5c0-0.5-0.2-0.9-0.5-1.2c-0.3-0.3-0.7-0.6-1-0.8c-0.2,0.7-0.5,1.4-0.8,2.1
		c-0.3,0.7-0.6,1.4-1,2c-0.4,0.6-0.9,1.1-1.5,1.4c-0.6,0.4-1.4,0.6-2.3,0.6c-0.2,0-0.5,0-0.8-0.1c-0.3-0.1-0.6-0.2-0.8-0.2
		c-0.5,1-1.2,1.8-2,2.4C213.3,723.3,212.5,723.6,211.7,723.6z M212.2,722.2c0.2,0,0.6-0.1,0.9-0.4c0.4-0.2,0.7-0.6,1.1-1
		s0.7-0.8,0.9-1.3c-0.4-0.5-0.6-1.3-0.6-2.4c0-0.2,0-0.5,0.1-0.9c0.1-0.4,0.2-0.8,0.3-1.2c0.1-0.4,0.3-0.8,0.4-1
		c-0.4,0.4-0.8,0.8-1.1,1.2c-0.4,0.4-0.8,0.9-1.1,1.4s-0.6,1-0.9,1.4c-0.3,0.5-0.5,1-0.6,1.4c-0.2,0.5-0.2,0.9-0.2,1.3
		c0,0.5,0.1,0.9,0.2,1.1C211.7,722.1,212,722.2,212.2,722.2z"/>
	<path class="st7" d="M232.8,723.6c-0.8,0-1.5-0.2-1.9-0.7s-0.6-1.1-0.6-1.8c0-0.4,0.1-1,0.2-1.6c0.2-0.7,0.4-1.4,0.6-2.1
		c0.3-0.7,0.6-1.4,0.9-2.1s0.7-1.2,1.2-1.6c0.4-0.4,0.8-0.6,1.2-0.6c0.2,0,0.4,0.1,0.6,0.2c0.2,0.1,0.3,0.3,0.3,0.6
		c0,0.2-0.1,0.6-0.4,1.1c-0.3,0.5-0.6,1.1-1,1.7c-0.4,0.6-0.7,1.3-1,2c-0.3,0.7-0.4,1.3-0.4,2c0,0.6,0.1,1,0.3,1.2
		c0.2,0.2,0.5,0.3,0.9,0.3c0.6,0,1.3-0.3,2.1-1c0.8-0.6,1.5-1.8,2.4-3.4l0.4,0.5c-0.7,1.7-1.5,3-2.5,3.9S234,723.6,232.8,723.6z
		 M236.2,710.8c-0.4,0-0.7-0.1-1-0.3c-0.3-0.2-0.4-0.5-0.4-0.8c0-0.5,0.2-0.8,0.7-1.2c0.5-0.3,1-0.5,1.5-0.5c0.3,0,0.6,0.1,0.9,0.2
		c0.2,0.2,0.4,0.4,0.4,0.8s-0.2,0.8-0.7,1.1C237.2,710.6,236.7,710.8,236.2,710.8z"/>
	<path class="st7" d="M239.4,723.6c-0.4,0-0.7-0.1-1.1-0.3c-0.4-0.2-0.7-0.5-0.9-0.8s-0.4-0.9-0.4-1.4c0-0.6,0.2-1.3,0.5-2.1
		c0.3-0.8,0.7-1.5,1.2-2.3c0.5-0.8,1.1-1.5,1.8-2.1c0.7-0.6,1.4-1.2,2.2-1.6c0.8-0.4,1.6-0.6,2.4-0.6c0.4,0,0.8,0.1,1,0.2
		c0.2,0.1,0.4,0.4,0.4,0.7c0,0.1,0,0.2-0.1,0.3c0,0.1-0.1,0.2-0.3,0.3c-0.1-0.1-0.2-0.2-0.4-0.2c-0.2,0-0.4-0.1-0.6-0.1
		c-0.6,0-1.2,0.2-1.8,0.5c-0.6,0.3-1.1,0.8-1.6,1.3s-0.9,1.1-1.2,1.8c-0.3,0.6-0.6,1.3-0.8,1.9c-0.2,0.6-0.3,1.1-0.3,1.5
		c0,0.4,0.1,0.6,0.2,0.9c0.2,0.2,0.4,0.3,0.7,0.3c0.5,0,1.1-0.3,1.8-0.9c0.7-0.6,1.4-1.5,2.2-2.6s1.4-2.5,2-4
		c0.4-1.1,0.8-2.2,1.3-3.3c0.5-1.1,0.9-2.2,1.4-3.2c0.5-1,0.9-2,1.3-2.8c0.4-0.8,0.9-1.5,1.3-1.9c0.4-0.5,0.8-0.7,1.1-0.7
		c0.2,0,0.4,0.1,0.6,0.2c0.2,0.2,0.2,0.4,0.2,0.6c0,0.3-0.2,0.8-0.5,1.5c-0.3,0.7-0.7,1.6-1.2,2.5s-1,2-1.6,3.2
		c-0.6,1.1-1.1,2.3-1.6,3.5c-0.5,1.2-0.9,2.4-1.2,3.5c-0.3,1.2-0.5,2.3-0.5,3.3c0,0.5,0,0.8,0.1,0.9c0.1,0.2,0.2,0.2,0.4,0.2
		c0.4,0,0.9-0.2,1.4-0.5c0.5-0.3,1-0.8,1.6-1.4c0.5-0.6,1-1.4,1.4-2.3l0.5,0.5c-0.4,1-0.9,2-1.6,2.7c-0.6,0.8-1.3,1.4-2.1,1.9
		c-0.7,0.4-1.5,0.7-2.2,0.7c-0.8,0-1.3-0.2-1.6-0.7c-0.3-0.5-0.5-1.1-0.5-1.7c0-0.3,0-0.6,0.1-0.9c0-0.3,0.1-0.6,0.2-0.9
		c-0.6,0.8-1.2,1.6-1.9,2.3c-0.7,0.7-1.3,1.2-1.9,1.6C240.6,723.4,240,723.6,239.4,723.6z"/>
	<path class="st7" d="M253,724c-0.6,0-1.2-0.2-1.6-0.6c-0.5-0.4-0.7-1-0.7-1.9c0-0.7,0.2-1.4,0.5-2.2c0.3-0.8,0.7-1.5,1.2-2.3
		c0.5-0.8,1.1-1.4,1.8-2.1c0.7-0.6,1.4-1.1,2.2-1.5c0.8-0.4,1.5-0.6,2.3-0.6c0.8,0,1.5,0.2,2.1,0.6c0.6,0.4,0.8,1,0.8,1.6
		c0,0.5-0.2,0.9-0.5,1.1s-0.8,0.3-1.3,0.2c0-0.2,0.1-0.3,0.1-0.5c0-0.2,0-0.3,0-0.5c0-0.4-0.1-0.7-0.2-1c-0.2-0.3-0.5-0.5-1-0.5
		c-0.5,0-1.1,0.2-1.6,0.5c-0.5,0.4-1.1,0.8-1.6,1.4c-0.5,0.6-0.9,1.2-1.3,1.9s-0.7,1.4-0.9,2c-0.2,0.7-0.3,1.3-0.3,1.8
		c0,0.6,0.2,0.9,0.7,0.9c0.4,0,0.9-0.2,1.4-0.6c0.5-0.4,1.1-1,1.6-1.6c0.5-0.6,1.1-1.3,1.5-2c0.5-0.7,0.9-1.2,1.3-1.7
		c0.1-0.1,0.1-0.1,0.2-0.1c0.1,0,0.2,0.1,0.4,0.1c0.2,0.1,0.4,0.2,0.6,0.3c0.2,0.1,0.3,0.3,0.3,0.5c0,0.2-0.1,0.4-0.2,0.7
		c-0.2,0.3-0.3,0.6-0.6,1c-0.2,0.3-0.4,0.7-0.6,1c-0.2,0.3-0.2,0.7-0.2,1c0,0.2,0.1,0.5,0.2,0.7c0.1,0.2,0.3,0.3,0.7,0.3
		c0.5,0,1.1-0.3,1.9-1s1.7-1.8,2.5-3.4l0.5,0.5c-0.5,1-1,1.9-1.6,2.7c-0.6,0.8-1.3,1.4-2,1.8s-1.4,0.7-2.1,0.7
		c-0.8,0-1.3-0.2-1.7-0.7c-0.4-0.5-0.6-1-0.6-1.6c0,0,0-0.1,0-0.1c0,0,0,0,0-0.1c-0.8,0.9-1.4,1.6-2.1,2.2
		C254.4,723.8,253.7,724,253,724z"/>
	<path class="st7" d="M277.9,725.2c-1.1,0-2.1-0.2-3.1-0.6c-1-0.4-1.8-1-2.4-1.7c-0.6-0.8-0.9-1.7-0.9-2.9c0-1,0.2-1.8,0.7-2.4
		c0.5-0.6,1-1,1.7-1.2s1.3-0.3,2-0.3c-0.6,0.6-1.1,1.3-1.4,2c-0.3,0.7-0.5,1.3-0.5,2c0,0.6,0.2,1.2,0.5,1.8c0.3,0.6,0.8,1,1.5,1.4
		c0.7,0.3,1.5,0.5,2.5,0.5c0.8,0,1.7-0.1,2.5-0.4s1.5-0.7,2-1.3c0.5-0.6,0.8-1.3,0.8-2.1c0-0.8-0.2-1.4-0.7-2
		c-0.4-0.6-1-1.1-1.7-1.5c-0.7-0.4-1.4-0.9-2.2-1.3c-0.8-0.4-1.5-0.8-2.2-1.3c-0.7-0.5-1.3-1-1.7-1.6c-0.4-0.6-0.7-1.4-0.7-2.2
		c0-0.8,0.2-1.6,0.6-2.5c0.4-0.9,0.9-1.7,1.7-2.5c0.7-0.8,1.6-1.4,2.6-1.9s2.2-0.7,3.4-0.7c1.3,0,2.2,0.3,2.7,0.8
		c0.5,0.5,0.8,1.3,0.8,2.2c0,0.7-0.1,1.4-0.4,2.2c-0.2,0.8-0.5,1.5-0.9,2.3c-0.3,0.7-0.7,1.3-1,1.8c-0.4-0.1-0.7-0.3-0.9-0.5
		c-0.2-0.2-0.3-0.6-0.3-0.9c0-0.4,0.1-0.8,0.2-1.3c0.2-0.5,0.3-1,0.6-1.5c0.2-0.5,0.4-1,0.6-1.5c0.2-0.5,0.2-0.9,0.2-1.3
		c0-0.3-0.1-0.6-0.3-0.8c-0.2-0.2-0.6-0.3-1.2-0.3c-0.9,0-1.7,0.2-2.5,0.6c-0.8,0.4-1.4,0.9-2,1.5c-0.6,0.6-1,1.2-1.3,1.9
		c-0.3,0.7-0.5,1.3-0.5,1.8c0,0.7,0.2,1.3,0.7,1.7c0.4,0.5,1,0.9,1.7,1.3c0.7,0.4,1.4,0.8,2.2,1.2c0.8,0.4,1.5,0.8,2.2,1.3
		c0.7,0.5,1.2,1.1,1.7,1.8c0.4,0.7,0.7,1.5,0.7,2.5c0,1-0.2,1.9-0.7,2.6c-0.4,0.8-1,1.4-1.8,1.9c-0.8,0.5-1.6,0.9-2.5,1.2
		C279.8,725,278.9,725.2,277.9,725.2z"/>
	<path class="st7" d="M289.9,724c-0.8,0-1.5-0.2-2-0.7c-0.5-0.5-0.8-1.2-0.8-2.2c0-0.8,0.1-1.7,0.4-2.9s0.7-2.3,1.1-3.6
		c-0.1,0-0.3-0.1-0.5-0.1c-0.2,0-0.4-0.1-0.5-0.2v-0.9c0.3,0,0.6,0.1,0.8,0.1c0.2,0,0.4,0,0.6,0.1c0.4-1,0.8-2,1.3-2.9
		c0.5-0.9,0.9-1.8,1.4-2.5c0.5-0.7,0.9-1.3,1.3-1.7c0.4-0.4,0.8-0.6,1.1-0.6c0.2,0,0.4,0.1,0.5,0.2s0.3,0.3,0.3,0.6
		c0,0.4-0.2,0.9-0.6,1.6c-0.4,0.7-0.9,1.5-1.4,2.4c-0.6,0.9-1.1,1.9-1.6,3c0.2,0,0.3,0,0.5,0c0.2,0,0.3,0,0.4,0c0.8,0,1.6,0,2.3,0
		s1.4-0.1,2.1-0.2v0.9c-1,0.1-2,0.2-2.9,0.2c-0.9,0.1-1.7,0.1-2.5,0.1c-0.1,0-0.1,0-0.2,0s-0.1,0-0.2,0c-0.4,0.9-0.7,1.9-1,2.8
		c-0.3,1-0.4,1.9-0.4,2.8c0,0.8,0.1,1.3,0.4,1.6c0.2,0.3,0.6,0.5,1.2,0.5c0.9,0,1.9-0.4,2.9-1.3c1-0.9,1.9-2,2.6-3.5l0.4,0.3
		c-0.5,1.1-1.1,2.1-1.8,3c-0.7,0.9-1.5,1.6-2.4,2.1C291.7,723.7,290.8,724,289.9,724z"/>
	<path class="st7" d="M297.1,724c-0.6,0-1.2-0.2-1.6-0.6c-0.5-0.4-0.7-1-0.7-1.9c0-0.7,0.2-1.4,0.5-2.2c0.3-0.8,0.7-1.5,1.2-2.3
		c0.5-0.8,1.1-1.4,1.8-2.1c0.7-0.6,1.4-1.1,2.2-1.5c0.8-0.4,1.5-0.6,2.3-0.6c0.8,0,1.5,0.2,2.1,0.6c0.6,0.4,0.8,1,0.8,1.6
		c0,0.5-0.2,0.9-0.5,1.1s-0.8,0.3-1.3,0.2c0-0.2,0.1-0.3,0.1-0.5c0-0.2,0-0.3,0-0.5c0-0.4-0.1-0.7-0.2-1c-0.2-0.3-0.5-0.5-1-0.5
		c-0.5,0-1.1,0.2-1.6,0.5c-0.5,0.4-1.1,0.8-1.6,1.4c-0.5,0.6-0.9,1.2-1.3,1.9s-0.7,1.4-0.9,2c-0.2,0.7-0.3,1.3-0.3,1.8
		c0,0.6,0.2,0.9,0.7,0.9c0.4,0,0.9-0.2,1.4-0.6c0.5-0.4,1.1-1,1.6-1.6c0.5-0.6,1.1-1.3,1.5-2c0.5-0.7,0.9-1.2,1.3-1.7
		c0.1-0.1,0.1-0.1,0.2-0.1c0.1,0,0.2,0.1,0.4,0.1c0.2,0.1,0.4,0.2,0.6,0.3c0.2,0.1,0.3,0.3,0.3,0.5c0,0.2-0.1,0.4-0.2,0.7
		c-0.2,0.3-0.3,0.6-0.6,1c-0.2,0.3-0.4,0.7-0.6,1c-0.2,0.3-0.2,0.7-0.2,1c0,0.2,0.1,0.5,0.2,0.7c0.1,0.2,0.3,0.3,0.7,0.3
		c0.5,0,1.1-0.3,1.9-1s1.7-1.8,2.5-3.4l0.5,0.5c-0.5,1-1,1.9-1.6,2.7c-0.6,0.8-1.3,1.4-2,1.8s-1.4,0.7-2.1,0.7
		c-0.8,0-1.3-0.2-1.7-0.7c-0.4-0.5-0.6-1-0.6-1.6c0,0,0-0.1,0-0.1c0,0,0,0,0-0.1c-0.8,0.9-1.4,1.6-2.1,2.2
		C298.5,723.8,297.8,724,297.1,724z"/>
	<path class="st7" d="M310.7,724c-0.8,0-1.5-0.2-2-0.7c-0.5-0.5-0.8-1.2-0.8-2.2c0-0.8,0.1-1.7,0.4-2.9s0.7-2.3,1.1-3.6
		c-0.1,0-0.3-0.1-0.5-0.1c-0.2,0-0.4-0.1-0.5-0.2v-0.9c0.3,0,0.6,0.1,0.8,0.1c0.2,0,0.4,0,0.6,0.1c0.4-1,0.8-2,1.3-2.9
		c0.5-0.9,0.9-1.8,1.4-2.5c0.5-0.7,0.9-1.3,1.3-1.7c0.4-0.4,0.8-0.6,1.1-0.6c0.2,0,0.4,0.1,0.5,0.2s0.3,0.3,0.3,0.6
		c0,0.4-0.2,0.9-0.6,1.6c-0.4,0.7-0.9,1.5-1.4,2.4c-0.6,0.9-1.1,1.9-1.6,3c0.2,0,0.3,0,0.5,0c0.2,0,0.3,0,0.4,0c0.8,0,1.6,0,2.3,0
		s1.4-0.1,2.1-0.2v0.9c-1,0.1-2,0.2-2.9,0.2c-0.9,0.1-1.7,0.1-2.5,0.1c-0.1,0-0.1,0-0.2,0s-0.1,0-0.2,0c-0.4,0.9-0.7,1.9-1,2.8
		c-0.3,1-0.4,1.9-0.4,2.8c0,0.8,0.1,1.3,0.4,1.6c0.2,0.3,0.6,0.5,1.2,0.5c0.9,0,1.9-0.4,2.9-1.3c1-0.9,1.9-2,2.6-3.5l0.4,0.3
		c-0.5,1.1-1.1,2.1-1.8,3c-0.7,0.9-1.5,1.6-2.4,2.1C312.5,723.7,311.6,724,310.7,724z"/>
	<path class="st7" d="M319.5,723.9c-1.2,0-2.1-0.3-2.8-1s-1-1.5-1-2.4c0-0.8,0.2-1.7,0.6-2.6c0.4-0.9,1-1.8,1.7-2.6
		c0.7-0.8,1.5-1.5,2.4-2c0.9-0.5,1.7-0.8,2.6-0.8c0.5,0,1,0.1,1.4,0.4c0.4,0.3,0.7,0.8,0.7,1.5c0,0.7-0.2,1.4-0.6,2
		c-0.4,0.6-1,1.2-1.7,1.7c-0.7,0.5-1.5,0.9-2.3,1.2s-1.7,0.5-2.5,0.6c0,0.1,0,0.2,0,0.2c0,0.1,0,0.2,0,0.4c0,0.1,0,0.3,0,0.5
		s0.1,0.5,0.2,0.8c0.1,0.3,0.3,0.5,0.7,0.7c0.3,0.2,0.7,0.3,1.2,0.3c0.8,0,1.6-0.2,2.4-0.7c0.8-0.4,1.6-1,2.3-1.8s1.3-1.6,1.8-2.5
		l0.6,0.5c-0.5,1.1-1.2,2.1-2,3c-0.8,0.8-1.7,1.5-2.7,2C321.5,723.7,320.5,723.9,319.5,723.9z M318.3,718.8c0.5-0.1,1-0.2,1.6-0.5
		c0.6-0.3,1.2-0.6,1.7-1.1c0.6-0.4,1-0.9,1.4-1.4s0.5-1,0.5-1.6c0-0.2,0-0.3-0.1-0.4c-0.1-0.1-0.2-0.1-0.4-0.1
		c-0.4,0-0.9,0.2-1.4,0.5c-0.5,0.3-0.9,0.7-1.4,1.2c-0.5,0.5-0.9,1.1-1.2,1.7C318.8,717.6,318.5,718.2,318.3,718.8z"/>
</g>
<path class="st22" d="M938.3,563.9c-2.2,0-4-1.8-4-4v-127c0-2.2,1.8-4,4-4s4,1.8,4,4v127C942.3,562.1,940.5,563.9,938.3,563.9z"/>
<g>
	<g>
		
			<linearGradient id="SVGID_00000011009740503846901040000018165191226344836761_" gradientUnits="userSpaceOnUse" x1="354.7166" y1="394.4087" x2="354.7166" y2="34.9474">
			<stop  offset="0" style="stop-color:#FFFFFF"/>
			<stop  offset="4.938680e-02" style="stop-color:#FFFAEE"/>
			<stop  offset="0.1329" style="stop-color:#FEF3D8"/>
			<stop  offset="0.2315" style="stop-color:#FEEDC7"/>
			<stop  offset="0.3536" style="stop-color:#FDEABC"/>
			<stop  offset="0.5248" style="stop-color:#FDE8B5"/>
			<stop  offset="1" style="stop-color:#FDE7B3"/>
		</linearGradient>
		<path style="fill:url(#SVGID_00000011009740503846901040000018165191226344836761_);" d="M377.6,262.5v191.4c0,2.4,0.2,4.4,0.5,6
			c0.4,1.6,1.3,3,2.7,4.2c1.5,1.2,3.5,2.2,6.2,3.1c2.7,0.9,6.4,1.6,11.3,2.4c3.6,0.7,5.5,2.8,5.5,6.2c0,0.7-0.1,1.8-0.2,3.3
			c-0.1,1.5-0.3,2.7-0.5,3.6c-7.8-0.5-16.1-0.9-24.9-1.3c-8.9-0.4-16.7-0.5-23.5-0.5c-7,0-14.9,0.2-23.5,0.5
			c-8.6,0.4-16.8,0.8-24.6,1.3c-0.5-1-0.8-2.2-0.9-3.6c-0.1-1.5-0.2-2.5-0.2-3.3c0-1.7,0.3-3.1,0.9-4.2c0.6-1.1,2.2-1.9,4.9-2.4
			c9-1.2,14.6-2.8,16.9-4.9c2.3-2.1,3.5-5.5,3.5-10.4V262.5h-32c-6.8,0-12.6,0.7-17.3,2c-4.7,1.3-8.9,3.4-12.4,6.2
			c-3.5,2.8-6.7,6.4-9.5,10.9c-2.8,4.5-5.6,9.9-8.6,16.2c-1,2.2-2.8,3.3-5.5,3.3c-1.5,0-3.2-0.3-5.1-0.9c-1.9-0.6-3.4-1.1-4.4-1.6
			c1.7-5.8,3.1-11,4.4-15.5c1.2-4.5,2.2-8.9,2.9-13.3c1-5.6,1.7-10.6,2.2-14.9c0.5-4.4,1.1-7.5,1.8-9.5c1-2.2,2.9-3.3,5.8-3.3
			c2.7,0,7.9,0.4,15.8,1.1c7.9,0.7,17.4,1.1,28.6,1.1h112.1c10.9,0,20.3-0.4,28.2-1.1c7.9-0.7,13.3-1.1,16.2-1.1
			c2.7,0,4.6,1.1,5.8,3.3c0.7,1.9,1.3,5.1,1.6,9.5c0.4,4.4,1.1,9.3,2.4,14.9c0.7,4.4,1.6,8.8,2.7,13.3c1.1,4.5,2.6,9.6,4.5,15.5
			c-1.2,0.5-2.7,1-4.5,1.6c-1.8,0.6-3.5,0.9-4.9,0.9c-2.7,0-4.6-1.1-5.8-3.3c-2.9-6.3-5.8-11.7-8.5-16.2c-2.8-4.5-5.9-8.1-9.5-10.9
			c-3.5-2.8-7.6-4.8-12.4-6.2c-4.7-1.3-10.4-2-16.9-2H377.6z"/>
		<path class="st7" d="M455.1,242.1c2.7,0,4.6,1.1,5.8,3.3c0.7,1.9,1.3,5.1,1.6,9.5c0.4,4.4,1.1,9.3,2.4,14.9
			c0.7,4.4,1.6,8.8,2.7,13.3c1.1,4.5,2.6,9.6,4.5,15.5c-1.2,0.5-2.7,1-4.5,1.6c-1.8,0.6-3.5,0.9-4.9,0.9c-2.7,0-4.6-1.1-5.8-3.3
			c-2.9-6.3-5.8-11.7-8.5-16.2c-2.8-4.5-5.9-8.1-9.5-10.9c-3.5-2.8-7.6-4.8-12.4-6.2c-4.7-1.3-10.4-2-16.9-2h-32v191.4
			c0,2.4,0.2,4.4,0.5,6c0.4,1.6,1.3,3,2.7,4.2c1.5,1.2,3.5,2.2,6.2,3.1c2.7,0.9,6.4,1.6,11.3,2.4c3.6,0.7,5.5,2.8,5.5,6.2
			c0,0.7-0.1,1.8-0.2,3.3c-0.1,1.5-0.3,2.7-0.5,3.6c-7.8-0.5-16.1-0.9-24.9-1.3c-8.9-0.4-16.7-0.5-23.5-0.5c-7,0-14.9,0.2-23.5,0.5
			c-8.6,0.4-16.8,0.8-24.6,1.3c-0.5-1-0.8-2.2-0.9-3.6c-0.1-1.5-0.2-2.5-0.2-3.3c0-1.7,0.3-3.1,0.9-4.2c0.6-1.1,2.2-1.9,4.9-2.4
			c9-1.2,14.6-2.8,16.9-4.9c2.3-2.1,3.5-5.5,3.5-10.4V262.5h-32c-6.8,0-12.6,0.7-17.3,2c-4.7,1.3-8.9,3.4-12.4,6.2
			c-3.5,2.8-6.7,6.4-9.5,10.9c-2.8,4.5-5.6,9.9-8.6,16.2c-1,2.2-2.8,3.3-5.5,3.3c-1.5,0-3.2-0.3-5.1-0.9c-1.9-0.6-3.4-1.1-4.4-1.6
			c1.7-5.8,3.1-11,4.4-15.5c1.2-4.5,2.2-8.9,2.9-13.3c1-5.6,1.7-10.6,2.2-14.9c0.5-4.4,1.1-7.5,1.8-9.5c1-2.2,2.9-3.3,5.8-3.3
			c2.7,0,7.9,0.4,15.8,1.1c7.9,0.7,17.4,1.1,28.6,1.1h112.1c10.9,0,20.3-0.4,28.2-1.1C446.8,242.5,452.2,242.1,455.1,242.1
			 M455.1,234.9c-3.2,0-8.7,0.4-16.9,1.1c-7.6,0.7-16.9,1.1-27.5,1.1H298.7c-10.9,0-20.3-0.4-27.9-1.1c-8.2-0.8-13.6-1.1-16.5-1.1
			c-5.8,0-10.3,2.8-12.4,7.6l-0.1,0.2l-0.1,0.2c-1,2.6-1.7,6.1-2.2,11.2c-0.5,4.2-1.2,9.1-2.1,14.5c-0.7,4.1-1.6,8.4-2.8,12.6
			c-1.2,4.4-2.7,9.6-4.3,15.3l-1.7,5.8l5.4,2.7c1.3,0.7,3.1,1.4,5.5,2.1c2.6,0.8,5,1.2,7.2,1.2c5.5,0,9.9-2.7,12-7.5
			c2.8-6,5.5-11.2,8.1-15.4c2.3-3.8,5-6.8,7.8-9.1c2.7-2.2,6.1-3.8,9.8-4.9c4.1-1.1,9.2-1.7,15.3-1.7h24.8v184.1
			c0,3.1-0.6,4.6-1,4.9c-0.3,0.2-2.8,1.8-13.1,3.2l-0.2,0l-0.2,0c-1.8,0.3-7.4,1.4-9.9,6c-1.2,2.1-1.8,4.7-1.8,7.7
			c0,1,0.1,2.2,0.2,3.9c0.2,2.4,0.7,4.5,1.7,6.3l2.1,4.3l4.8-0.3c7.5-0.5,15.7-0.9,24.4-1.3c8.5-0.4,16.3-0.5,23.2-0.5
			c6.7,0,14.5,0.2,23.2,0.5c8.9,0.4,17.3,0.8,24.8,1.3l6,0.4l1.4-5.9c0.3-1.4,0.6-2.9,0.7-4.8c0.1-1.7,0.2-3,0.2-3.9
			c0-6.9-4.2-11.9-11.3-13.3l-0.2,0l-0.2,0c-4.5-0.7-7.9-1.4-10.1-2.1c-2.3-0.7-3.3-1.4-3.8-1.8c-0.2-0.2-0.3-0.3-0.3-0.3
			c-0.2-0.7-0.3-2.1-0.3-4.3V269.7h24.8c5.8,0,10.9,0.6,15,1.7c3.8,1.1,7.1,2.7,9.8,4.9c2.8,2.3,5.5,5.3,7.8,9.1
			c2.6,4.2,5.4,9.4,8.1,15.4l0.1,0.2l0.1,0.2c2.5,4.5,6.8,7,12.1,7c2.2,0,4.7-0.4,7.2-1.3c1.9-0.6,3.6-1.2,5-1.8l6.3-2.5l-2.2-6.5
			c-1.9-5.6-3.3-10.6-4.4-14.9c-1-4.3-1.9-8.6-2.6-12.8l0-0.2l0-0.2c-1.1-5.2-1.9-9.9-2.2-14c-0.4-5.1-1.1-8.8-2.1-11.4l-0.2-0.5
			l-0.3-0.5C464.8,237.4,460.5,234.9,455.1,234.9L455.1,234.9z"/>
	</g>
</g>
</svg>
